<svg xmlns="http://www.w3.org/2000/svg" width="500" height="500" style="width: 500px; height: 500px;">
  <linearGradient id="gradient" gradientTransform="rotate(90)">
    <stop offset="0%" stop-color="#FF00C7" />
    <stop offset="100%" stop-color="#3800ff" />
  </linearGradient>
  <g transform="translate(
              50,
              200
            )" fill="url(#gradient)">
    <g>
      <rect x="0" y="11.947359432990893" width="10" height="76.10528113401821" style="fill-opacity: 0.691348;"></rect>
    </g>
    <g>
      <rect x="10" y="33.12021523095513" width="10" height="33.759569538089735" style="fill-opacity: 0.362316;"></rect>
    </g>
    <g>
      <rect x="20" y="42.15332365428649" width="10" height="15.693352691427018" style="fill-opacity: 0.221939;"></rect>
    </g>
    <g>
      <rect x="30" y="44.43402874343214" width="10" height="11.131942513135728" style="fill-opacity: 0.186497;"></rect>
    </g>
    <g>
      <rect x="40" y="0" width="10" height="100" style="fill-opacity: 0.877014;"></rect>
    </g>
    <g>
      <rect x="50" y="29.47319942417638" width="10" height="41.05360115164724" style="fill-opacity: 0.418992;"></rect>
    </g>
    <g>
      <rect x="60" y="26.31798270471155" width="10" height="47.3640345905769" style="fill-opacity: 0.468025;"></rect>
    </g>
    <g>
      <rect x="70" y="33.701514964758516" width="10" height="32.596970070482975" style="fill-opacity: 0.353283;"></rect>
    </g>
    <g>
      <rect x="80" y="30.907180566353926" width="10" height="38.18563886729215" style="fill-opacity: 0.396708;"></rect>
    </g>
    <g>
      <rect x="90" y="8.27230800570159" width="10" height="83.45538398859682" style="fill-opacity: 0.74846;"></rect>
    </g>
    <g>
      <rect x="100" y="45.71007066754662" width="10" height="8.579858664906768" style="fill-opacity: 0.166667;"></rect>
    </g>
    <g>
      <rect x="110" y="17.101749737553682" width="10" height="65.79650052489264" style="fill-opacity: 0.611248;"></rect>
    </g>
    <g>
      <rect x="120" y="45.71007066754662" width="10" height="8.579858664906768" style="fill-opacity: 0.166667;"></rect>
    </g>
    <g>
      <rect x="130" y="24.650142015770353" width="10" height="50.699715968459294" style="fill-opacity: 0.493944;"></rect>
    </g>
    <g>
      <rect x="140" y="10.516864559920776" width="10" height="78.96627088015845" style="fill-opacity: 0.713579;"></rect>
    </g>
    <g>
      <rect x="150" y="15.338964514395379" width="10" height="69.32207097120924" style="fill-opacity: 0.638642;"></rect>
    </g>
    <g>
      <rect x="160" y="33.52623885509345" width="10" height="32.9475222898131" style="fill-opacity: 0.356007;"></rect>
    </g>
    <g>
      <rect x="170" y="31.52614368007243" width="10" height="36.94771263985514" style="fill-opacity: 0.387089;"></rect>
    </g>
    <g>
      <rect x="180" y="45.71007066754662" width="10" height="8.579858664906768" style="fill-opacity: 0.166667;"></rect>
    </g>
    <g>
      <rect x="190" y="3.851430363948758" width="10" height="92.29713927210248" style="fill-opacity: 0.817161;"></rect>
    </g>
    <g>
      <rect x="200" y="18.164654743434845" width="10" height="63.67069051313031" style="fill-opacity: 0.59473;"></rect>
    </g>
    <g>
      <rect x="210" y="38.5526391916664" width="10" height="22.894721616667194" style="fill-opacity: 0.277895;"></rect>
    </g>
    <g>
      <rect x="220" y="36.739189576147204" width="10" height="26.52162084770559" style="fill-opacity: 0.306077;"></rect>
    </g>
    <g>
      <rect x="230" y="11.066035246937822" width="10" height="77.86792950612436" style="fill-opacity: 0.705044;"></rect>
    </g>
    <g>
      <rect x="240" y="16.295036004444505" width="10" height="67.40992799111099" style="fill-opacity: 0.623784;"></rect>
    </g>
    <g>
      <rect x="250" y="19.523138541192953" width="10" height="60.953722917614094" style="fill-opacity: 0.573619;"></rect>
    </g>
    <g>
      <rect x="260" y="28.567191367812423" width="10" height="42.86561726437515" style="fill-opacity: 0.433072;"></rect>
    </g>
    <g>
      <rect x="270" y="28.956608145704944" width="10" height="42.08678370859011" style="fill-opacity: 0.42702;"></rect>
    </g>
    <g>
      <rect x="280" y="17.6761927470612" width="10" height="64.6476145058776" style="fill-opacity: 0.602321;"></rect>
    </g>
    <g>
      <rect x="290" y="16.4215029116493" width="10" height="67.1569941767014" style="fill-opacity: 0.621819;"></rect>
    </g>
    <g>
      <rect x="300" y="18.844098863752386" width="10" height="62.31180227249523" style="fill-opacity: 0.584171;"></rect>
    </g>
    <g>
      <rect x="310" y="16.906622751705385" width="10" height="66.18675449658923" style="fill-opacity: 0.61428;"></rect>
    </g>
    <g>
      <rect x="320" y="8.524376709376632" width="10" height="82.95124658124674" style="fill-opacity: 0.744542;"></rect>
    </g>
    <g>
      <rect x="330" y="45.71007066754662" width="10" height="8.579858664906768" style="fill-opacity: 0.166667;"></rect>
    </g>
    <g>
      <rect x="340" y="28.9803692162965" width="10" height="42.039261567407" style="fill-opacity: 0.426651;"></rect>
    </g>
    <g>
      <rect x="350" y="45.71007066754662" width="10" height="8.579858664906768" style="fill-opacity: 0.166667;"></rect>
    </g>
    <g>
      <rect x="360" y="22.761476597911624" width="10" height="54.47704680417675" style="fill-opacity: 0.523294;"></rect>
    </g>
    <g>
      <rect x="370" y="9.033407920856078" width="10" height="81.93318415828784" style="fill-opacity: 0.736632;"></rect>
    </g>
    <g>
      <rect x="380" y="23.235566624750614" width="10" height="53.52886675049877" style="fill-opacity: 0.515927;"></rect>
    </g>
    <g>
      <rect x="390" y="34.87841593983667" width="10" height="30.24316812032665" style="fill-opacity: 0.334994;"></rect>
    </g>
  </g>
</svg>