<?xml version="1.0" encoding="utf-8"?>
<!-- Generator: Adobe Illustrator 21.1.0, SVG Export Plug-In . SVG Version: 6.00 Build 0)  -->
<svg version="1.1" id="Layer_1" 
	xmlns="http://www.w3.org/2000/svg" 
	xmlns:xlink="http://www.w3.org/1999/xlink" x="0px" y="0px" viewBox="0 0 500 500" style="enable-background:new 0 0 500 500;" xml:space="preserve">
	<linearGradient id="gradient" gradientTransform="rotate(45)">
		<stop offset="0%" stop-color="#FF00C7" />
		<stop offset="100%" stop-color="#3800ff" />
	</linearGradient>
	<style type="text/css">
	.st0{opacity:0.15;}
	.st1{opacity:0.25;}
	.st2{opacity:0.49;}
	.st3{opacity:0.63;}
	.st4{opacity:0.3;}
	.st5{opacity:0.9;}
	.st6{opacity:0.4;}
	.st7{opacity:0.7;}
	.st8{opacity:0.79;}
	.st9{opacity:0.1;}
	.st10{opacity:0.5;}
	.st11{opacity:0.51;}
	.st12{opacity:0.81;}
	.st13{opacity:0.43;}
	</style>
	<g fill="url(#gradient)">
		<g class="st0">
			<path d="M226,266.5v116.2c0,16.7-41.1,10.2-35.9-5.7L226,266.5z"/>
		</g>
		<g>
			<path d="M221.5,265l-9.7,29.8c-1.4,4.3-11.4-0.8-8.7-4.4L221.5,265z"/>
		</g>
		<g class="st1">
			<path d="M217.6,262.2l-28.5,39.3c-4.1,5.7-16.4-6.6-10.7-10.7L217.6,262.2z"/>
		</g>
		<g class="st2">
			<path d="M214.8,258.4l-59.5,43.3c-8.6,6.2-20.5-17.2-10.5-20.5L214.8,258.4z"/>
		</g>
		<g class="st3">
			<path d="M213.4,253.8l-86.2,28c-12.4,4-17.5-28-4.4-28H213.4z"/>
		</g>
		<g class="st4">
			<path d="M213.4,249.1H81.3c-19,0-11.6-46.7,6.5-40.8L213.4,249.1z"/>
		</g>
		<g class="st5">
			<path d="M214.8,244.6l-70.4-22.9c-10.1-3.3,1.9-26.9,10.5-20.6L214.8,244.6z"/>
		</g>
		<g class="st6">
			<path d="M217.6,240.7l-58.2-42.3c-8.4-6.1,9.8-24.3,15.9-15.9L217.6,240.7z"/>
		</g>
		<g class="st7">
			<path d="M221.5,237.9l-91.8-126.3c-13.2-18.2,36.6-43.6,43.5-22.2L221.5,237.9z"/>
		</g>
		<g class="st8">
			<path d="M226,236.4L209.3,185c-2.4-7.4,16.7-10.4,16.7-2.6V236.4z"/>
		</g>
		<g class="st4">
			<path d="M230.8,236.4v-89.3c0-12.9,31.6-7.9,27.6,4.4L230.8,236.4z"/>
		</g>
		<g class="st9">
			<path d="M235.3,237.9l45.4-139.8c6.5-20.2,53.4,3.7,41,20.9L235.3,237.9z"/>
		</g>
		<g>
			<path d="M239.1,240.7l70.6-97.2c10.2-14,40.6,16.4,26.6,26.6L239.1,240.7z"/>
		</g>
		<g class="st9">
			<path d="M241.9,244.6l32.9-23.9c4.7-3.4,11.3,9.5,5.8,11.3L241.9,244.6z"/>
		</g>
		<g class="st10">
			<path d="M243.4,249.1l67.7-22c9.8-3.2,13.7,22,3.5,22H243.4z"/>
		</g>
		<g class="st11">
			<path d="M243.4,253.8h145.1c20.9,0,12.8,51.3-7.1,44.8L243.4,253.8z"/>
		</g>
		<g class="st7">
			<path d="M241.9,258.4l178.1,57.9c25.7,8.3-4.8,68.1-26.6,52.2L241.9,258.4z"/>
		</g>
		<g class="st7">
			<path d="M239.1,262.2l36.1,26.2c5.2,3.8-6.1,15.1-9.9,9.9L239.1,262.2z"/>
		</g>
		<g class="st12">
			<path d="M235.3,265L325.3,389c13,17.9-35.9,42.8-42.7,21.8L235.3,265z"/>
		</g>
		<g class="st13">
			<path d="M230.8,266.5l28.1,86.4c4,12.5-28.1,17.5-28.1,4.4V266.5z"/>
		</g>
	</g>
</svg>
