<svg height="512" viewBox="0 0 1024 1024" version="1.1" 
  xmlns="http://www.w3.org/2000/svg">
  <path fill="#6dc8be" d="M884.9 380.8c0-58.7-19.5-112.9-57.8-156.5 22.6-70.7-3.1-130.4-6.5-139.6-63.8-5.8-130 41.7-143.4 51.8-39.3-10.6-84-16.4-134.2-16.4-49.8 0-94.4 5.7-133.5 16.2-5.6-4.4-76.9-59.7-145.6-53.5-3.5 9.1-29.8 70.2-5.8 141.9C220.3 268.3 201 322.2 201 380.6c0 120.7 69.4 222.2 235.5 251.8-0.3 0.3-0.5 0.5-0.8 0.8l1.2 0c-21.6 16.3-36.2 39.4-43.1 70.3-24.9 5.8-38.9 14.6-65.7 13.6-87.7-3.1-91.4-127-189-103.5 7.5 26.7 33.2 29.3 49.3 49 16.2 19.7 19.5 45.9 32.9 68.1 29.9 49.5 91.1 67.5 169.9 51.8-5.4 47.3 9.6 93.4-5.5 125.4-10.8 23-36.2 19-41.1 43.6 37.2 14.8 86.2 0.4 101.4-32.7 26.4-57.5-20.7-169.6 21.9-201.7-9.3 70.3 14.8 157.1-5.5 215.4-6.9 19.9-25.2 27.3-21.9 49 111.6 13.9 89.9-128.1 90.4-231.7 0.1-11.8-8.5-39.5 11-40.9 21 106-32.7 285.6 95.9 272.6 5.6-20.4-14.8-29.2-21.9-51.8-18-57.6-0.1-148.1-2.7-212.6 36.8 40.1 3 131.7 16.4 190.8 7.8 34.5 76.4 70.9 104.1 38.2-11.3-17.4-28.1-17.9-38.4-38.2-21.5-42.4 0.3-135.4-8.2-199-5.4-40.7-27-51.7-39.5-75.8l1.4 0c-0.2-0.2-0.3-0.3-0.5-0.5C815.2 603.4 884.9 501.7 884.9 380.8z" />
</svg>