<svg width="205" height="29" viewBox="0 0 205 29" fill="none" xmlns="http://www.w3.org/2000/svg">
<path d="M179 27.5H177.5C177.5 28.3284 178.172 29 179 29V27.5ZM179 1.5V0C178.172 0 177.5 0.671573 177.5 1.5L179 1.5ZM187.17 27.5V29C187.618 29 188.042 28.7999 188.327 28.4545L187.17 27.5ZM191 22.8571L192.157 21.9027C191.872 21.5572 191.448 21.3571 191 21.3571C190.552 21.3571 190.128 21.5572 189.843 21.9027L191 22.8571ZM194.83 27.5L193.673 28.4545C193.958 28.7999 194.382 29 194.83 29V27.5ZM203 27.5V29C203.828 29 204.5 28.3284 204.5 27.5H203ZM203 1.5L204.5 1.5C204.5 1.10218 204.342 0.720644 204.061 0.43934C203.779 0.158035 203.398 0 203 0V1.5ZM194.83 1.5V0C194.382 0 193.958 0.200068 193.673 0.54551L194.83 1.5ZM191 6.14285L189.843 7.09734C190.128 7.44278 190.552 7.64285 191 7.64285C191.448 7.64285 191.872 7.44278 192.157 7.09734L191 6.14285ZM187.17 1.5L188.327 0.54551C188.042 0.200068 187.618 0 187.17 0V1.5ZM180.5 27.5V1.5H177.5V27.5H180.5ZM187.17 26H179V29H187.17V26ZM189.843 21.9027L186.013 26.5455L188.327 28.4545L192.157 23.8116L189.843 21.9027ZM195.987 26.5455L192.157 21.9027L189.843 23.8116L193.673 28.4545L195.987 26.5455ZM203 26H194.83V29H203V26ZM201.5 1.5L201.5 27.5H204.5L204.5 1.5L201.5 1.5ZM194.83 3H203V0H194.83V3ZM192.157 7.09734L195.987 2.45449L193.673 0.54551L189.843 5.18836L192.157 7.09734ZM186.013 2.45449L189.843 7.09734L192.157 5.18836L188.327 0.54551L186.013 2.45449ZM179 3H187.17V0H179V3Z" fill="black"/>
<path d="M102 1.5V0C101.172 0 100.5 0.671573 100.5 1.5L102 1.5ZM102 27.5H100.5C100.5 28.3284 101.172 29 102 29V27.5ZM129 27.5V29C129.563 29 130.078 28.6852 130.335 28.1846C130.591 27.684 130.547 27.0818 130.218 26.6249L129 27.5ZM110.324 1.5L111.543 0.624913C111.261 0.232604 110.807 0 110.324 0V1.5ZM100.5 1.5V27.5H103.5V1.5H100.5ZM102 29H129V26H102V29ZM130.218 26.6249L111.543 0.624913L109.106 2.37509L127.782 28.3751L130.218 26.6249ZM110.324 0H102V3H110.324V0Z" fill="black"/>
<path d="M133 1.5V0C132.172 0 131.5 0.671573 131.5 1.5L133 1.5ZM133 27.5H131.5C131.5 28.3284 132.172 29 133 29V27.5ZM144 27.5V29C144.828 29 145.5 28.3284 145.5 27.5H144ZM144 1.5H145.5C145.5 0.671573 144.828 0 144 0V1.5ZM131.5 1.5V27.5H134.5V1.5H131.5ZM133 29H144V26H133V29ZM145.5 27.5V1.5H142.5V27.5H145.5ZM144 0H133V3H144V0Z" fill="black"/>
<path d="M12.894 1.5C22.5288 1.5 25.9959 6.40867 25.9959 14.7662C26.1601 21.5361 21.361 27.3025 13.8064 27.193H2V1.5H12.894Z" stroke="black" stroke-width="3" stroke-linejoin="round"/>
<path d="M27 27.5H54L44.1361 1.51847L37.0318 1.5L27 27.5Z" stroke="black" stroke-width="3" stroke-linejoin="round"/>
<path d="M71 27.5H98L88.1361 1.51847L81.0318 1.5L71 27.5Z" stroke="black" stroke-width="3" stroke-linejoin="round"/>
<path d="M76 1.5L49 1.5L58.8639 27.4815L65.9682 27.5L76 1.5Z" stroke="black" stroke-width="3" stroke-linejoin="round"/>
<path d="M175 1.5L148 1.5L157.864 27.4815L164.968 27.5L175 1.5Z" stroke="black" stroke-width="3" stroke-linejoin="round"/>
</svg>
