<svg xmlns="http://www.w3.org/2000/svg" width="500" height="500" style="width: 500px; height: 500px;">
  <linearGradient id="gradient" gradientTransform="rotate(45)">
    <stop offset="0%" stop-color="#FF00C7" />
    <stop offset="100%" stop-color="#3800ff" />
  </linearGradient>
  <g transform="translate(
              74,
              78.5
            )" fill="url(#gradient)">
    <g>
      <rect x="0" y="0" width="40" height="40" style="fill-opacity: 0.604522;"></rect>
    </g>
    <g>
      <rect x="40" y="0" width="40" height="40" style="fill-opacity: 0.301882;"></rect>
    </g>
    <g>
      <rect x="80" y="0" width="40" height="40" style="fill-opacity: 0.350886;"></rect>
    </g>
    <g>
      <rect x="120" y="0" width="40" height="40" style="fill-opacity: 0.369106;"></rect>
    </g>
    <g>
      <rect x="160" y="0" width="40" height="40" style="fill-opacity: 0.643715;"></rect>
    </g>
    <g>
      <rect x="200" y="0" width="40" height="40" style="fill-opacity: 0.166667;"></rect>
    </g>
    <g>
      <rect x="240" y="0" width="40" height="40" style="fill-opacity: 0.552103;"></rect>
    </g>
    <g>
      <rect x="280" y="0" width="40" height="40" style="fill-opacity: 0.341662;"></rect>
    </g>
    <g>
      <rect x="0" y="40" width="40" height="40" style="fill-opacity: 0.227156;"></rect>
    </g>
    <g>
      <rect x="40" y="40" width="40" height="40" style="fill-opacity: 0.877721;"></rect>
    </g>
    <g>
      <rect x="80" y="40" width="40" height="40" style="fill-opacity: 0.8182;"></rect>
    </g>
    <g>
      <rect x="120" y="40" width="40" height="40" style="fill-opacity: 0.402692;"></rect>
    </g>
    <g>
      <rect x="160" y="40" width="40" height="40" style="fill-opacity: 0.166667;"></rect>
    </g>
    <g>
      <rect x="200" y="40" width="40" height="40" style="fill-opacity: 0.579387;"></rect>
    </g>
    <g>
      <rect x="240" y="40" width="40" height="40" style="fill-opacity: 0.7382;"></rect>
    </g>
    <g>
      <rect x="280" y="40" width="40" height="40" style="fill-opacity: 0.213017;"></rect>
    </g>
    <g>
      <rect x="0" y="80" width="40" height="40" style="fill-opacity: 0.166667;"></rect>
    </g>
    <g>
      <rect x="40" y="80" width="40" height="40" style="fill-opacity: 0.166667;"></rect>
    </g>
    <g>
      <rect x="80" y="80" width="40" height="40" style="fill-opacity: 0.192347;"></rect>
    </g>
    <g>
      <rect x="120" y="80" width="40" height="40" style="fill-opacity: 0.181692;"></rect>
    </g>
    <g>
      <rect x="160" y="80" width="40" height="40" style="fill-opacity: 0.818692;"></rect>
    </g>
    <g>
      <rect x="200" y="80" width="40" height="40" style="fill-opacity: 0.166667;"></rect>
    </g>
    <g>
      <rect x="240" y="80" width="40" height="40" style="fill-opacity: 0.340951;"></rect>
    </g>
    <g>
      <rect x="280" y="80" width="40" height="40" style="fill-opacity: 0.172328;"></rect>
    </g>
    <g>
      <rect x="0" y="120" width="40" height="40" style="fill-opacity: 0.317634;"></rect>
    </g>
    <g>
      <rect x="40" y="120" width="40" height="40" style="fill-opacity: 0.427753;"></rect>
    </g>
    <g>
      <rect x="80" y="120" width="40" height="40" style="fill-opacity: 0.268741;"></rect>
    </g>
    <g>
      <rect x="120" y="120" width="40" height="40" style="fill-opacity: 0.30218;"></rect>
    </g>
    <g>
      <rect x="160" y="120" width="40" height="40" style="fill-opacity: 0.670247;"></rect>
    </g>
    <g>
      <rect x="200" y="120" width="30" height="30" style="fill-opacity: 0.856876;"></rect>
    </g>
    <g>
      <rect x="230" y="120" width="30" height="30" style="fill-opacity: 0.780211;"></rect>
    </g>
    <g>
      <rect x="260" y="120" width="30" height="30" style="fill-opacity: 0.418973;"></rect>
    </g>
    <g>
      <rect x="290" y="120" width="30" height="30" style="fill-opacity: 0.724257;"></rect>
    </g>
    <g>
      <rect x="320" y="120" width="30" height="30" style="fill-opacity: 0.820653;"></rect>
    </g>
    <g>
      <rect x="320" y="80" width="30" height="30" style="fill-opacity: 0.784964;"></rect>
    </g>
    <g>
      <rect x="320" y="40" width="30" height="30" style="fill-opacity: 0.66875;"></rect>
    </g>
    <g>
      <rect x="320" y="0" width="30" height="30" style="fill-opacity: 0.702889;"></rect>
    </g>
    <g>
      <rect x="0" y="160" width="30" height="30" style="fill-opacity: 0.188626;"></rect>
    </g>
    <g>
      <rect x="30" y="160" width="30" height="30" style="fill-opacity: 0.662701;"></rect>
    </g>
    <g>
      <rect x="60" y="160" width="30" height="30" style="fill-opacity: 0.219975;"></rect>
    </g>
    <g>
      <rect x="90" y="160" width="30" height="30" style="fill-opacity: 0.166667;"></rect>
    </g>
    <g>
      <rect x="120" y="160" width="30" height="30" style="fill-opacity: 0.72462;"></rect>
    </g>
    <g>
      <rect x="150" y="160" width="30" height="30" style="fill-opacity: 0.6406;"></rect>
    </g>
    <g>
      <rect x="180" y="160" width="30" height="30" style="fill-opacity: 0.67073;"></rect>
    </g>
    <g>
      <rect x="210" y="160" width="30" height="30" style="fill-opacity: 0.875141;"></rect>
    </g>
    <g>
      <rect x="240" y="160" width="30" height="30" style="fill-opacity: 0.547509;"></rect>
    </g>
    <g>
      <rect x="270" y="160" width="30" height="30" style="fill-opacity: 0.295173;"></rect>
    </g>
    <g>
      <rect x="300" y="160" width="30" height="30" style="fill-opacity: 0.308177;"></rect>
    </g>
    <g>
      <rect x="0" y="190" width="30" height="30" style="fill-opacity: 0.166667;"></rect>
    </g>
    <g>
      <rect x="30" y="190" width="30" height="30" style="fill-opacity: 0.166667;"></rect>
    </g>
    <g>
      <rect x="60" y="190" width="30" height="30" style="fill-opacity: 0.598466;"></rect>
    </g>
    <g>
      <rect x="90" y="190" width="30" height="30" style="fill-opacity: 0.723713;"></rect>
    </g>
    <g>
      <rect x="120" y="190" width="30" height="30" style="fill-opacity: 0.299937;"></rect>
    </g>
    <g>
      <rect x="150" y="190" width="30" height="30" style="fill-opacity: 0.835618;"></rect>
    </g>
    <g>
      <rect x="180" y="190" width="30" height="30" style="fill-opacity: 0.689619;"></rect>
    </g>
    <g>
      <rect x="210" y="190" width="30" height="30" style="fill-opacity: 0.300458;"></rect>
    </g>
    <g>
      <rect x="240" y="190" width="30" height="30" style="fill-opacity: 0.27988;"></rect>
    </g>
    <g>
      <rect x="270" y="190" width="30" height="30" style="fill-opacity: 0.383867;"></rect>
    </g>
    <g>
      <rect x="300" y="190" width="20" height="20" style="fill-opacity: 0.192453;"></rect>
    </g>
    <g>
      <rect x="320" y="190" width="20" height="20" style="fill-opacity: 0.332589;"></rect>
    </g>
    <g>
      <rect x="330" y="160" width="20" height="20" style="fill-opacity: 0.364604;"></rect>
    </g>
    <g>
      <rect x="0" y="220" width="20" height="20" style="fill-opacity: 0.178156;"></rect>
    </g>
    <g>
      <rect x="20" y="220" width="20" height="20" style="fill-opacity: 0.835548;"></rect>
    </g>
    <g>
      <rect x="40" y="220" width="20" height="20" style="fill-opacity: 0.647191;"></rect>
    </g>
    <g>
      <rect x="60" y="220" width="20" height="20" style="fill-opacity: 0.54532;"></rect>
    </g>
    <g>
      <rect x="80" y="220" width="20" height="20" style="fill-opacity: 0.65058;"></rect>
    </g>
    <g>
      <rect x="100" y="220" width="20" height="20" style="fill-opacity: 0.535036;"></rect>
    </g>
    <g>
      <rect x="120" y="220" width="20" height="20" style="fill-opacity: 0.474291;"></rect>
    </g>
    <g>
      <rect x="140" y="220" width="20" height="20" style="fill-opacity: 0.641066;"></rect>
    </g>
    <g>
      <rect x="160" y="220" width="20" height="20" style="fill-opacity: 0.65351;"></rect>
    </g>
    <g>
      <rect x="180" y="220" width="20" height="20" style="fill-opacity: 0.166667;"></rect>
    </g>
    <g>
      <rect x="200" y="220" width="20" height="20" style="fill-opacity: 0.24903;"></rect>
    </g>
    <g>
      <rect x="220" y="220" width="20" height="20" style="fill-opacity: 0.560199;"></rect>
    </g>
    <g>
      <rect x="240" y="220" width="20" height="20" style="fill-opacity: 0.442669;"></rect>
    </g>
    <g>
      <rect x="260" y="220" width="20" height="20" style="fill-opacity: 0.382274;"></rect>
    </g>
    <g>
      <rect x="280" y="220" width="20" height="20" style="fill-opacity: 0.52633;"></rect>
    </g>
    <g>
      <rect x="300" y="220" width="20" height="20" style="fill-opacity: 0.781691;"></rect>
    </g>
    <g>
      <rect x="320" y="220" width="20" height="20" style="fill-opacity: 0.762109;"></rect>
    </g>
    <g>
      <rect x="0" y="240" width="20" height="20" style="fill-opacity: 0.698865;"></rect>
    </g>
    <g>
      <rect x="20" y="240" width="20" height="20" style="fill-opacity: 0.678586;"></rect>
    </g>
    <g>
      <rect x="40" y="240" width="20" height="20" style="fill-opacity: 0.653451;"></rect>
    </g>
    <g>
      <rect x="60" y="240" width="20" height="20" style="fill-opacity: 0.854082;"></rect>
    </g>
    <g>
      <rect x="80" y="240" width="20" height="20" style="fill-opacity: 0.675137;"></rect>
    </g>
    <g>
      <rect x="100" y="240" width="20" height="20" style="fill-opacity: 0.166667;"></rect>
    </g>
    <g>
      <rect x="120" y="240" width="20" height="20" style="fill-opacity: 0.469629;"></rect>
    </g>
    <g>
      <rect x="140" y="240" width="20" height="20" style="fill-opacity: 0.744964;"></rect>
    </g>
    <g>
      <rect x="160" y="240" width="20" height="20" style="fill-opacity: 0.767214;"></rect>
    </g>
    <g>
      <rect x="180" y="240" width="20" height="20" style="fill-opacity: 0.204279;"></rect>
    </g>
    <g>
      <rect x="200" y="240" width="20" height="20" style="fill-opacity: 0.176823;"></rect>
    </g>
    <g>
      <rect x="220" y="240" width="20" height="20" style="fill-opacity: 0.720415;"></rect>
    </g>
    <g>
      <rect x="240" y="240" width="20" height="20" style="fill-opacity: 0.626272;"></rect>
    </g>
    <g>
      <rect x="260" y="240" width="18" height="18" style="fill-opacity: 0.616304;"></rect>
    </g>
    <g>
      <rect x="278" y="240" width="18" height="18" style="fill-opacity: 0.342535;"></rect>
    </g>
    <g>
      <rect x="296" y="240" width="18" height="18" style="fill-opacity: 0.772931;"></rect>
    </g>
    <g>
      <rect x="314" y="240" width="18" height="18" style="fill-opacity: 0.205251;"></rect>
    </g>
    <g>
      <rect x="332" y="240" width="18" height="18" style="fill-opacity: 0.490917;"></rect>
    </g>
    <g>
      <rect x="0" y="260" width="18" height="18" style="fill-opacity: 0.710986;"></rect>
    </g>
    <g>
      <rect x="18" y="260" width="18" height="18" style="fill-opacity: 0.31042;"></rect>
    </g>
    <g>
      <rect x="36" y="260" width="18" height="18" style="fill-opacity: 0.709223;"></rect>
    </g>
    <g>
      <rect x="54" y="260" width="18" height="18" style="fill-opacity: 0.821866;"></rect>
    </g>
    <g>
      <rect x="72" y="260" width="18" height="18" style="fill-opacity: 0.418991;"></rect>
    </g>
    <g>
      <rect x="90" y="260" width="18" height="18" style="fill-opacity: 0.845967;"></rect>
    </g>
    <g>
      <rect x="108" y="260" width="18" height="18" style="fill-opacity: 0.232977;"></rect>
    </g>
    <g>
      <rect x="126" y="260" width="18" height="18" style="fill-opacity: 0.312656;"></rect>
    </g>
    <g>
      <rect x="144" y="260" width="18" height="18" style="fill-opacity: 0.166667;"></rect>
    </g>
    <g>
      <rect x="162" y="260" width="18" height="18" style="fill-opacity: 0.87557;"></rect>
    </g>
    <g>
      <rect x="180" y="260" width="18" height="18" style="fill-opacity: 0.569393;"></rect>
    </g>
    <g>
      <rect x="198" y="260" width="18" height="18" style="fill-opacity: 0.651737;"></rect>
    </g>
    <g>
      <rect x="216" y="260" width="18" height="18" style="fill-opacity: 0.855713;"></rect>
    </g>
    <g>
      <rect x="234" y="260" width="18" height="18" style="fill-opacity: 0.668015;"></rect>
    </g>
    <g>
      <rect x="252" y="260" width="18" height="18" style="fill-opacity: 0.166667;"></rect>
    </g>
    <g>
      <rect x="270" y="260" width="18" height="18" style="fill-opacity: 0.659688;"></rect>
    </g>
    <g>
      <rect x="288" y="260" width="18" height="18" style="fill-opacity: 0.243764;"></rect>
    </g>
    <g>
      <rect x="306" y="260" width="18" height="18" style="fill-opacity: 0.243267;"></rect>
    </g>
    <g>
      <rect x="324" y="260" width="18" height="18" style="fill-opacity: 0.547439;"></rect>
    </g>
    <g>
      <rect x="0" y="278" width="18" height="18" style="fill-opacity: 0.334611;"></rect>
    </g>
    <g>
      <rect x="18" y="278" width="18" height="18" style="fill-opacity: 0.166667;"></rect>
    </g>
    <g>
      <rect x="36" y="278" width="18" height="18" style="fill-opacity: 0.7808;"></rect>
    </g>
    <g>
      <rect x="54" y="278" width="18" height="18" style="fill-opacity: 0.166667;"></rect>
    </g>
    <g>
      <rect x="72" y="278" width="18" height="18" style="fill-opacity: 0.766093;"></rect>
    </g>
    <g>
      <rect x="90" y="278" width="18" height="18" style="fill-opacity: 0.369017;"></rect>
    </g>
    <g>
      <rect x="108" y="278" width="18" height="18" style="fill-opacity: 0.273758;"></rect>
    </g>
    <g>
      <rect x="126" y="278" width="18" height="18" style="fill-opacity: 0.433243;"></rect>
    </g>
    <g>
      <rect x="144" y="278" width="18" height="18" style="fill-opacity: 0.846755;"></rect>
    </g>
    <g>
      <rect x="162" y="278" width="18" height="18" style="fill-opacity: 0.580731;"></rect>
    </g>
    <g>
      <rect x="180" y="278" width="18" height="18" style="fill-opacity: 0.329921;"></rect>
    </g>
    <g>
      <rect x="198" y="278" width="18" height="18" style="fill-opacity: 0.875218;"></rect>
    </g>
    <g>
      <rect x="216" y="278" width="18" height="18" style="fill-opacity: 0.840979;"></rect>
    </g>
    <g>
      <rect x="234" y="278" width="18" height="18" style="fill-opacity: 0.871713;"></rect>
    </g>
    <g>
      <rect x="252" y="278" width="15" height="15" style="fill-opacity: 0.340147;"></rect>
    </g>
    <g>
      <rect x="267" y="278" width="15" height="15" style="fill-opacity: 0.359912;"></rect>
    </g>
    <g>
      <rect x="282" y="278" width="15" height="15" style="fill-opacity: 0.166667;"></rect>
    </g>
    <g>
      <rect x="297" y="278" width="15" height="15" style="fill-opacity: 0.252968;"></rect>
    </g>
    <g>
      <rect x="312" y="278" width="15" height="15" style="fill-opacity: 0.477203;"></rect>
    </g>
    <g>
      <rect x="327" y="278" width="15" height="15" style="fill-opacity: 0.304834;"></rect>
    </g>
    <g>
      <rect x="0" y="296" width="15" height="15" style="fill-opacity: 0.166667;"></rect>
    </g>
    <g>
      <rect x="15" y="296" width="15" height="15" style="fill-opacity: 0.362334;"></rect>
    </g>
    <g>
      <rect x="30" y="296" width="15" height="15" style="fill-opacity: 0.825178;"></rect>
    </g>
    <g>
      <rect x="45" y="296" width="15" height="15" style="fill-opacity: 0.412035;"></rect>
    </g>
    <g>
      <rect x="60" y="296" width="15" height="15" style="fill-opacity: 0.650499;"></rect>
    </g>
    <g>
      <rect x="75" y="296" width="15" height="15" style="fill-opacity: 0.252972;"></rect>
    </g>
    <g>
      <rect x="90" y="296" width="15" height="15" style="fill-opacity: 0.359853;"></rect>
    </g>
    <g>
      <rect x="105" y="296" width="15" height="15" style="fill-opacity: 0.664312;"></rect>
    </g>
    <g>
      <rect x="120" y="296" width="15" height="15" style="fill-opacity: 0.321769;"></rect>
    </g>
    <g>
      <rect x="135" y="296" width="15" height="15" style="fill-opacity: 0.267623;"></rect>
    </g>
    <g>
      <rect x="150" y="296" width="15" height="15" style="fill-opacity: 0.680833;"></rect>
    </g>
    <g>
      <rect x="165" y="296" width="15" height="15" style="fill-opacity: 0.166667;"></rect>
    </g>
    <g>
      <rect x="180" y="296" width="15" height="15" style="fill-opacity: 0.293189;"></rect>
    </g>
    <g>
      <rect x="195" y="296" width="15" height="15" style="fill-opacity: 0.774097;"></rect>
    </g>
    <g>
      <rect x="210" y="296" width="15" height="15" style="fill-opacity: 0.372802;"></rect>
    </g>
    <g>
      <rect x="225" y="296" width="15" height="15" style="fill-opacity: 0.437646;"></rect>
    </g>
    <g>
      <rect x="240" y="296" width="15" height="15" style="fill-opacity: 0.171001;"></rect>
    </g>
    <g>
      <rect x="255" y="296" width="15" height="15" style="fill-opacity: 0.166667;"></rect>
    </g>
    <g>
      <rect x="270" y="296" width="15" height="15" style="fill-opacity: 0.578472;"></rect>
    </g>
    <g>
      <rect x="285" y="296" width="15" height="15" style="fill-opacity: 0.463861;"></rect>
    </g>
    <g>
      <rect x="300" y="296" width="15" height="15" style="fill-opacity: 0.622612;"></rect>
    </g>
    <g>
      <rect x="315" y="296" width="15" height="15" style="fill-opacity: 0.166667;"></rect>
    </g>
    <g>
      <rect x="330" y="296" width="15" height="15" style="fill-opacity: 0.452467;"></rect>
    </g>
    <g>
      <rect x="0" y="311" width="15" height="15" style="fill-opacity: 0.608688;"></rect>
    </g>
    <g>
      <rect x="15" y="311" width="15" height="15" style="fill-opacity: 0.598094;"></rect>
    </g>
    <g>
      <rect x="30" y="311" width="15" height="15" style="fill-opacity: 0.343094;"></rect>
    </g>
    <g>
      <rect x="45" y="311" width="15" height="15" style="fill-opacity: 0.272556;"></rect>
    </g>
    <g>
      <rect x="60" y="311" width="15" height="15" style="fill-opacity: 0.432492;"></rect>
    </g>
    <g>
      <rect x="75" y="311" width="15" height="15" style="fill-opacity: 0.59269;"></rect>
    </g>
    <g>
      <rect x="90" y="311" width="15" height="15" style="fill-opacity: 0.853105;"></rect>
    </g>
    <g>
      <rect x="105" y="311" width="15" height="15" style="fill-opacity: 0.287465;"></rect>
    </g>
    <g>
      <rect x="120" y="311" width="12" height="12" style="fill-opacity: 0.817419;"></rect>
    </g>
    <g>
      <rect x="132" y="311" width="12" height="12" style="fill-opacity: 0.856486;"></rect>
    </g>
    <g>
      <rect x="144" y="311" width="12" height="12" style="fill-opacity: 0.428991;"></rect>
    </g>
    <g>
      <rect x="156" y="311" width="12" height="12" style="fill-opacity: 0.493525;"></rect>
    </g>
    <g>
      <rect x="168" y="311" width="12" height="12" style="fill-opacity: 0.788149;"></rect>
    </g>
    <g>
      <rect x="180" y="311" width="12" height="12" style="fill-opacity: 0.680242;"></rect>
    </g>
    <g>
      <rect x="192" y="311" width="12" height="12" style="fill-opacity: 0.402737;"></rect>
    </g>
    <g>
      <rect x="204" y="311" width="12" height="12" style="fill-opacity: 0.771665;"></rect>
    </g>
    <g>
      <rect x="216" y="311" width="12" height="12" style="fill-opacity: 0.552764;"></rect>
    </g>
    <g>
      <rect x="228" y="311" width="12" height="12" style="fill-opacity: 0.729411;"></rect>
    </g>
    <g>
      <rect x="240" y="311" width="12" height="12" style="fill-opacity: 0.511677;"></rect>
    </g>
    <g>
      <rect x="252" y="311" width="12" height="12" style="fill-opacity: 0.615566;"></rect>
    </g>
    <g>
      <rect x="264" y="311" width="12" height="12" style="fill-opacity: 0.357843;"></rect>
    </g>
    <g>
      <rect x="276" y="311" width="12" height="12" style="fill-opacity: 0.459073;"></rect>
    </g>
    <g>
      <rect x="288" y="311" width="12" height="12" style="fill-opacity: 0.178228;"></rect>
    </g>
    <g>
      <rect x="300" y="311" width="12" height="12" style="fill-opacity: 0.512698;"></rect>
    </g>
    <g>
      <rect x="312" y="311" width="12" height="12" style="fill-opacity: 0.60014;"></rect>
    </g>
    <g>
      <rect x="324" y="311" width="12" height="12" style="fill-opacity: 0.785694;"></rect>
    </g>
    <g>
      <rect x="336" y="311" width="12" height="12" style="fill-opacity: 0.791128;"></rect>
    </g>
    <g>
      <rect x="340" y="220" width="12" height="12" style="fill-opacity: 0.723824;"></rect>
    </g>
    <g>
      <rect x="340" y="190" width="12" height="12" style="fill-opacity: 0.260307;"></rect>
    </g>
    <g>
      <rect x="0" y="326" width="12" height="12" style="fill-opacity: 0.657885;"></rect>
    </g>
    <g>
      <rect x="12" y="326" width="12" height="12" style="fill-opacity: 0.343208;"></rect>
    </g>
    <g>
      <rect x="24" y="326" width="12" height="12" style="fill-opacity: 0.792059;"></rect>
    </g>
    <g>
      <rect x="36" y="326" width="12" height="12" style="fill-opacity: 0.399702;"></rect>
    </g>
    <g>
      <rect x="48" y="326" width="12" height="12" style="fill-opacity: 0.202872;"></rect>
    </g>
    <g>
      <rect x="60" y="326" width="12" height="12" style="fill-opacity: 0.317678;"></rect>
    </g>
    <g>
      <rect x="72" y="326" width="12" height="12" style="fill-opacity: 0.176222;"></rect>
    </g>
    <g>
      <rect x="84" y="326" width="12" height="12" style="fill-opacity: 0.792707;"></rect>
    </g>
    <g>
      <rect x="96" y="326" width="12" height="12" style="fill-opacity: 0.814277;"></rect>
    </g>
    <g>
      <rect x="108" y="326" width="12" height="12" style="fill-opacity: 0.279875;"></rect>
    </g>
    <g>
      <rect x="120" y="326" width="12" height="12" style="fill-opacity: 0.166667;"></rect>
    </g>
    <g>
      <rect x="132" y="326" width="12" height="12" style="fill-opacity: 0.63206;"></rect>
    </g>
    <g>
      <rect x="144" y="326" width="12" height="12" style="fill-opacity: 0.203653;"></rect>
    </g>
    <g>
      <rect x="156" y="326" width="12" height="12" style="fill-opacity: 0.434891;"></rect>
    </g>
    <g>
      <rect x="168" y="326" width="12" height="12" style="fill-opacity: 0.339839;"></rect>
    </g>
    <g>
      <rect x="180" y="326" width="12" height="12" style="fill-opacity: 0.245;"></rect>
    </g>
    <g>
      <rect x="192" y="326" width="12" height="12" style="fill-opacity: 0.200068;"></rect>
    </g>
    <g>
      <rect x="204" y="326" width="10" height="10" style="fill-opacity: 0.497846;"></rect>
    </g>
    <g>
      <rect x="214" y="326" width="10" height="10" style="fill-opacity: 0.317629;"></rect>
    </g>
    <g>
      <rect x="224" y="326" width="10" height="10" style="fill-opacity: 0.178659;"></rect>
    </g>
    <g>
      <rect x="234" y="326" width="10" height="10" style="fill-opacity: 0.461735;"></rect>
    </g>
    <g>
      <rect x="244" y="326" width="10" height="10" style="fill-opacity: 0.706732;"></rect>
    </g>
    <g>
      <rect x="254" y="326" width="10" height="10" style="fill-opacity: 0.482863;"></rect>
    </g>
    <g>
      <rect x="264" y="326" width="10" height="10" style="fill-opacity: 0.701245;"></rect>
    </g>
    <g>
      <rect x="274" y="326" width="10" height="10" style="fill-opacity: 0.335529;"></rect>
    </g>
    <g>
      <rect x="284" y="326" width="10" height="10" style="fill-opacity: 0.482989;"></rect>
    </g>
    <g>
      <rect x="294" y="326" width="10" height="10" style="fill-opacity: 0.556334;"></rect>
    </g>
    <g>
      <rect x="304" y="326" width="10" height="10" style="fill-opacity: 0.207443;"></rect>
    </g>
    <g>
      <rect x="314" y="326" width="10" height="10" style="fill-opacity: 0.166667;"></rect>
    </g>
    <g>
      <rect x="324" y="326" width="10" height="10" style="fill-opacity: 0.166667;"></rect>
    </g>
    <g>
      <rect x="334" y="326" width="10" height="10" style="fill-opacity: 0.196365;"></rect>
    </g>
    <g>
      <rect x="342" y="278" width="10" height="10" style="fill-opacity: 0.580333;"></rect>
    </g>
    <g>
      <rect x="342" y="260" width="10" height="10" style="fill-opacity: 0.803651;"></rect>
    </g>
    <g>
      <rect x="300" y="210" width="10" height="10" style="fill-opacity: 0.814026;"></rect>
    </g>
    <g>
      <rect x="310" y="210" width="10" height="10" style="fill-opacity: 0.536474;"></rect>
    </g>
    <g>
      <rect x="320" y="210" width="10" height="10" style="fill-opacity: 0.529283;"></rect>
    </g>
    <g>
      <rect x="330" y="210" width="10" height="10" style="fill-opacity: 0.421805;"></rect>
    </g>
    <g>
      <rect x="340" y="210" width="10" height="10" style="fill-opacity: 0.612608;"></rect>
    </g>
    <g>
      <rect x="330" y="180" width="10" height="10" style="fill-opacity: 0.725894;"></rect>
    </g>
    <g>
      <rect x="340" y="180" width="10" height="10" style="fill-opacity: 0.391343;"></rect>
    </g>
    <g>
      <rect x="200" y="150" width="10" height="10" style="fill-opacity: 0.581225;"></rect>
    </g>
    <g>
      <rect x="210" y="150" width="10" height="10" style="fill-opacity: 0.19275;"></rect>
    </g>
    <g>
      <rect x="220" y="150" width="10" height="10" style="fill-opacity: 0.216635;"></rect>
    </g>
    <g>
      <rect x="230" y="150" width="10" height="10" style="fill-opacity: 0.319703;"></rect>
    </g>
    <g>
      <rect x="240" y="150" width="10" height="10" style="fill-opacity: 0.755286;"></rect>
    </g>
    <g>
      <rect x="250" y="150" width="10" height="10" style="fill-opacity: 0.379695;"></rect>
    </g>
    <g>
      <rect x="260" y="150" width="10" height="10" style="fill-opacity: 0.166667;"></rect>
    </g>
    <g>
      <rect x="270" y="150" width="10" height="10" style="fill-opacity: 0.166667;"></rect>
    </g>
    <g>
      <rect x="280" y="150" width="10" height="10" style="fill-opacity: 0.19638;"></rect>
    </g>
    <g>
      <rect x="290" y="150" width="10" height="10" style="fill-opacity: 0.201478;"></rect>
    </g>
    <g>
      <rect x="344" y="326" width="7" height="7" style="fill-opacity: 0.27694;"></rect>
    </g>
    <g>
      <rect x="345" y="296" width="7" height="7" style="fill-opacity: 0.229342;"></rect>
    </g>
    <g>
      <rect x="345" y="303" width="7" height="7" style="fill-opacity: 0.279272;"></rect>
    </g>
    <g>
      <rect x="342" y="270" width="7" height="7" style="fill-opacity: 0.662635;"></rect>
    </g>
    <g>
      <rect x="340" y="232" width="7" height="7" style="fill-opacity: 0.747879;"></rect>
    </g>
    <g>
      <rect x="340" y="202" width="7" height="7" style="fill-opacity: 0.318882;"></rect>
    </g>
    <g>
      <rect x="300" y="150" width="7" height="7" style="fill-opacity: 0.704561;"></rect>
    </g>
    <g>
      <rect x="307" y="150" width="7" height="7" style="fill-opacity: 0.166667;"></rect>
    </g>
    <g>
      <rect x="314" y="150" width="7" height="7" style="fill-opacity: 0.166667;"></rect>
    </g>
    <g>
      <rect x="321" y="150" width="7" height="7" style="fill-opacity: 0.273045;"></rect>
    </g>
    <g>
      <rect x="328" y="150" width="7" height="7" style="fill-opacity: 0.697009;"></rect>
    </g>
    <g>
      <rect x="335" y="150" width="7" height="7" style="fill-opacity: 0.480162;"></rect>
    </g>
    <g>
      <rect x="342" y="150" width="7" height="7" style="fill-opacity: 0.742569;"></rect>
    </g>
    <g>
      <rect x="320" y="110" width="7" height="7" style="fill-opacity: 0.289504;"></rect>
    </g>
    <g>
      <rect x="327" y="110" width="7" height="7" style="fill-opacity: 0.54587;"></rect>
    </g>
    <g>
      <rect x="334" y="110" width="7" height="7" style="fill-opacity: 0.176283;"></rect>
    </g>
    <g>
      <rect x="341" y="110" width="7" height="7" style="fill-opacity: 0.396041;"></rect>
    </g>
    <g>
      <rect x="320" y="70" width="7" height="7" style="fill-opacity: 0.229753;"></rect>
    </g>
    <g>
      <rect x="327" y="70" width="7" height="7" style="fill-opacity: 0.514677;"></rect>
    </g>
    <g>
      <rect x="334" y="70" width="7" height="7" style="fill-opacity: 0.166667;"></rect>
    </g>
    <g>
      <rect x="341" y="70" width="7" height="7" style="fill-opacity: 0.595985;"></rect>
    </g>
    <g>
      <rect x="320" y="30" width="7" height="7" style="fill-opacity: 0.317393;"></rect>
    </g>
    <g>
      <rect x="327" y="30" width="7" height="7" style="fill-opacity: 0.644201;"></rect>
    </g>
    <g>
      <rect x="334" y="30" width="7" height="7" style="fill-opacity: 0.251356;"></rect>
    </g>
    <g>
      <rect x="341" y="30" width="7" height="7" style="fill-opacity: 0.166667;"></rect>
    </g>
    <g>
      <rect x="347" y="202" width="5" height="5" style="fill-opacity: 0.63119;"></rect>
    </g>
    <g>
      <rect x="347" y="232" width="5" height="5" style="fill-opacity: 0.393098;"></rect>
    </g>
    <g>
      <rect x="342" y="288" width="5" height="5" style="fill-opacity: 0.461524;"></rect>
    </g>
    <g>
      <rect x="347" y="288" width="5" height="5" style="fill-opacity: 0.317902;"></rect>
    </g>
    <g>
      <rect x="0" y="338" width="5" height="5" style="fill-opacity: 0.324777;"></rect>
    </g>
    <g>
      <rect x="5" y="338" width="5" height="5" style="fill-opacity: 0.639388;"></rect>
    </g>
    <g>
      <rect x="10" y="338" width="5" height="5" style="fill-opacity: 0.827638;"></rect>
    </g>
    <g>
      <rect x="15" y="338" width="5" height="5" style="fill-opacity: 0.551996;"></rect>
    </g>
    <g>
      <rect x="20" y="338" width="5" height="5" style="fill-opacity: 0.893541;"></rect>
    </g>
    <g>
      <rect x="25" y="338" width="5" height="5" style="fill-opacity: 0.19008;"></rect>
    </g>
    <g>
      <rect x="30" y="338" width="5" height="5" style="fill-opacity: 0.545924;"></rect>
    </g>
    <g>
      <rect x="35" y="338" width="5" height="5" style="fill-opacity: 0.479511;"></rect>
    </g>
    <g>
      <rect x="40" y="338" width="5" height="5" style="fill-opacity: 0.166667;"></rect>
    </g>
    <g>
      <rect x="45" y="338" width="5" height="5" style="fill-opacity: 0.49389;"></rect>
    </g>
    <g>
      <rect x="50" y="338" width="5" height="5" style="fill-opacity: 0.865619;"></rect>
    </g>
    <g>
      <rect x="55" y="338" width="5" height="5" style="fill-opacity: 0.449991;"></rect>
    </g>
    <g>
      <rect x="60" y="338" width="5" height="5" style="fill-opacity: 0.296423;"></rect>
    </g>
    <g>
      <rect x="65" y="338" width="5" height="5" style="fill-opacity: 0.346315;"></rect>
    </g>
    <g>
      <rect x="70" y="338" width="5" height="5" style="fill-opacity: 0.885926;"></rect>
    </g>
    <g>
      <rect x="75" y="338" width="5" height="5" style="fill-opacity: 0.166667;"></rect>
    </g>
    <g>
      <rect x="80" y="338" width="5" height="5" style="fill-opacity: 0.188626;"></rect>
    </g>
    <g>
      <rect x="85" y="338" width="5" height="5" style="fill-opacity: 0.518313;"></rect>
    </g>
    <g>
      <rect x="90" y="338" width="5" height="5" style="fill-opacity: 0.707036;"></rect>
    </g>
    <g>
      <rect x="95" y="338" width="5" height="5" style="fill-opacity: 0.228329;"></rect>
    </g>
    <g>
      <rect x="100" y="338" width="5" height="5" style="fill-opacity: 0.503744;"></rect>
    </g>
    <g>
      <rect x="105" y="338" width="5" height="5" style="fill-opacity: 0.352685;"></rect>
    </g>
    <g>
      <rect x="110" y="338" width="5" height="5" style="fill-opacity: 0.465476;"></rect>
    </g>
    <g>
      <rect x="115" y="338" width="5" height="5" style="fill-opacity: 0.589321;"></rect>
    </g>
    <g>
      <rect x="120" y="338" width="5" height="5" style="fill-opacity: 0.257394;"></rect>
    </g>
    <g>
      <rect x="125" y="338" width="5" height="5" style="fill-opacity: 0.252279;"></rect>
    </g>
    <g>
      <rect x="130" y="338" width="5" height="5" style="fill-opacity: 0.166667;"></rect>
    </g>
    <g>
      <rect x="135" y="338" width="5" height="5" style="fill-opacity: 0.382543;"></rect>
    </g>
    <g>
      <rect x="140" y="338" width="5" height="5" style="fill-opacity: 0.216853;"></rect>
    </g>
    <g>
      <rect x="145" y="338" width="5" height="5" style="fill-opacity: 0.353098;"></rect>
    </g>
    <g>
      <rect x="150" y="338" width="5" height="5" style="fill-opacity: 0.693405;"></rect>
    </g>
    <g>
      <rect x="155" y="338" width="5" height="5" style="fill-opacity: 0.354246;"></rect>
    </g>
    <g>
      <rect x="160" y="338" width="5" height="5" style="fill-opacity: 0.6532;"></rect>
    </g>
    <g>
      <rect x="165" y="338" width="5" height="5" style="fill-opacity: 0.876605;"></rect>
    </g>
  </g>
</svg>