<svg xmlns="http://www.w3.org/2000/svg" width="500" height="500" style="width: 500px; height: 500px;">
  <g transform="translate(
              80.55908279331427,
              81.12321789492754
            )">
    <g>
      <rect x="0" y="0" width="30" height="30" style="fill: rgba(0, 0, 0, 0.235);"></rect>
    </g>
    <g>
      <rect x="30" y="0" width="29.9719523002991" height="29.9719523002991" style="fill: rgba(0, 0, 0, 0.427);"></rect>
    </g>
    <g>
      <rect x="59.9719523002991" y="0" width="29.578762614285836" height="29.578762614285836" style="fill: rgba(0, 0, 0, 0.404);"></rect>
    </g>
    <g>
      <rect x="89.55071491458494" y="0" width="29.559354487748138" height="29.559354487748138" style="fill: rgba(0, 0, 0, 0.682);"></rect>
    </g>
    <g>
      <rect x="119.11006940233308" y="0" width="29.540111590426918" height="29.540111590426918" style="fill: rgba(0, 0, 0, 0.447);"></rect>
    </g>
    <g>
      <rect x="148.65018099276" y="0" width="29.488214816400166" height="29.488214816400166" style="fill: rgba(0, 0, 0, 0.082);"></rect>
    </g>
    <g>
      <rect x="178.13839580916016" y="0" width="29.17893680533851" height="29.17893680533851" style="fill: rgba(0, 0, 0, 0.11);"></rect>
    </g>
    <g>
      <rect x="207.31733261449867" y="0" width="29.151995869679993" height="29.151995869679993" style="fill: rgba(0, 0, 0, 0.757);"></rect>
    </g>
    <g>
      <rect x="236.46932848417867" y="0" width="28.91662830352582" height="28.91662830352582" style="fill: rgba(0, 0, 0, 0.624);"></rect>
    </g>
    <g>
      <rect x="265.3859567877045" y="0" width="28.83621796049912" height="28.83621796049912" style="fill: rgba(0, 0, 0, 0.376);"></rect>
    </g>
    <g>
      <rect x="294.22217474820366" y="0" width="28.802363865203503" height="28.802363865203503" style="fill: rgba(0, 0, 0, 0.965);"></rect>
    </g>
    <g>
      <rect x="0" y="30" width="28.776423332663015" height="28.776423332663015" style="fill: rgba(0, 0, 0, 0.133);"></rect>
    </g>
    <g>
      <rect x="28.776423332663015" y="30" width="28.61041357486157" height="28.61041357486157" style="fill: rgba(0, 0, 0, 0.275);"></rect>
    </g>
    <g>
      <rect x="57.38683690752458" y="30" width="28.43123528859605" height="28.43123528859605" style="fill: rgba(0, 0, 0, 0.19);"></rect>
    </g>
    <g>
      <rect x="85.81807219612062" y="30" width="28.348794732071052" height="28.348794732071052" style="fill: rgba(0, 0, 0, 0.216);"></rect>
    </g>
    <g>
      <rect x="114.16686692819168" y="30" width="28.22269838799938" height="28.22269838799938" style="fill: rgba(0, 0, 0, 0.082);"></rect>
    </g>
    <g>
      <rect x="142.38956531619107" y="30" width="28.126515254271567" height="28.126515254271567" style="fill: rgba(0, 0, 0, 0.51);"></rect>
    </g>
    <g>
      <rect x="170.51608057046263" y="30" width="28.1261635468219" height="28.1261635468219" style="fill: rgba(0, 0, 0, 0.31);"></rect>
    </g>
    <g>
      <rect x="198.64224411728452" y="30" width="28.080691553283845" height="28.080691553283845" style="fill: rgba(0, 0, 0, 0.384);"></rect>
    </g>
    <g>
      <rect x="226.72293567056838" y="30" width="28.049304829477784" height="28.049304829477784" style="fill: rgba(0, 0, 0, 0.427);"></rect>
    </g>
    <g>
      <rect x="254.77224050004617" y="30" width="28.04847723745261" height="28.04847723745261" style="fill: rgba(0, 0, 0, 0.682);"></rect>
    </g>
    <g>
      <rect x="282.8207177374988" y="30" width="28.012801872331885" height="28.012801872331885" style="fill: rgba(0, 0, 0, 0.13);"></rect>
    </g>
    <g>
      <rect x="310.83351960983066" y="30" width="27.949454239762726" height="27.949454239762726" style="fill: rgba(0, 0, 0, 0.59);"></rect>
    </g>
    <g>
      <rect x="0" y="58.776423332663015" width="27.90230103506054" height="27.90230103506054" style="fill: rgba(0, 0, 0, 0.424);"></rect>
    </g>
    <g>
      <rect x="27.90230103506054" y="58.776423332663015" width="27.885320183836853" height="27.885320183836853" style="fill: rgba(0, 0, 0, 0.157);"></rect>
    </g>
    <g>
      <rect x="55.78762121889739" y="58.776423332663015" width="27.865171270938685" height="27.865171270938685" style="fill: rgba(0, 0, 0, 0.086);"></rect>
    </g>
    <g>
      <rect x="83.65279248983607" y="58.776423332663015" width="27.6923237937316" height="27.6923237937316" style="fill: rgba(0, 0, 0, 0.643);"></rect>
    </g>
    <g>
      <rect x="111.34511628356768" y="58.776423332663015" width="27.661148291325528" height="27.661148291325528" style="fill: rgba(0, 0, 0, 0.32);"></rect>
    </g>
    <g>
      <rect x="139.0062645748932" y="58.776423332663015" width="27.654233478183833" height="27.654233478183833" style="fill: rgba(0, 0, 0, 0.624);"></rect>
    </g>
    <g>
      <rect x="166.66049805307705" y="58.776423332663015" width="27.570052160309906" height="27.570052160309906" style="fill: rgba(0, 0, 0, 0.776);"></rect>
    </g>
    <g>
      <rect x="194.23055021338695" y="58.776423332663015" width="27.356365557629932" height="27.356365557629932" style="fill: rgba(0, 0, 0, 0.082);"></rect>
    </g>
    <g>
      <rect x="221.5869157710169" y="58.776423332663015" width="27.17558335997178" height="27.17558335997178" style="fill: rgba(0, 0, 0, 0.827);"></rect>
    </g>
    <g>
      <rect x="248.76249913098866" y="58.776423332663015" width="27.16970433794034" height="27.16970433794034" style="fill: rgba(0, 0, 0, 0.227);"></rect>
    </g>
    <g>
      <rect x="275.932203468929" y="58.776423332663015" width="27.031225847468523" height="27.031225847468523" style="fill: rgba(0, 0, 0, 0.25);"></rect>
    </g>
    <g>
      <rect x="302.96342931639754" y="58.776423332663015" width="26.88017466352656" height="26.88017466352656" style="fill: rgba(0, 0, 0, 0.63);"></rect>
    </g>
    <g>
      <rect x="0" y="86.67872436772356" width="26.86749231411451" height="26.86749231411451" style="fill: rgba(0, 0, 0, 0.082);"></rect>
    </g>
    <g>
      <rect x="26.86749231411451" y="86.67872436772356" width="26.75771993642104" height="26.75771993642104" style="fill: rgba(0, 0, 0, 0.255);"></rect>
    </g>
    <g>
      <rect x="53.625212250535554" y="86.67872436772356" width="26.473745937888687" height="26.473745937888687" style="fill: rgba(0, 0, 0, 0.953);"></rect>
    </g>
    <g>
      <rect x="80.09895818842423" y="86.67872436772356" width="26.419777356035947" height="26.419777356035947" style="fill: rgba(0, 0, 0, 0.298);"></rect>
    </g>
    <g>
      <rect x="106.51873554446018" y="86.67872436772356" width="26.334616664295677" height="26.334616664295677" style="fill: rgba(0, 0, 0, 0.106);"></rect>
    </g>
    <g>
      <rect x="132.85335220875587" y="86.67872436772356" width="26.26781964622328" height="26.26781964622328" style="fill: rgba(0, 0, 0, 0.77);"></rect>
    </g>
    <g>
      <rect x="159.12117185497914" y="86.67872436772356" width="26.23476563978879" height="26.23476563978879" style="fill: rgba(0, 0, 0, 0.255);"></rect>
    </g>
    <g>
      <rect x="185.35593749476794" y="86.67872436772356" width="26.231744590277348" height="26.231744590277348" style="fill: rgba(0, 0, 0, 0.78);"></rect>
    </g>
    <g>
      <rect x="211.5876820850453" y="86.67872436772356" width="26.21205683924292" height="26.21205683924292" style="fill: rgba(0, 0, 0, 0.82);"></rect>
    </g>
    <g>
      <rect x="237.7997389242882" y="86.67872436772356" width="26.19435637917758" height="26.19435637917758" style="fill: rgba(0, 0, 0, 0.48);"></rect>
    </g>
    <g>
      <rect x="263.99409530346577" y="86.67872436772356" width="26.16283057404818" height="26.16283057404818" style="fill: rgba(0, 0, 0, 0.608);"></rect>
    </g>
    <g>
      <rect x="290.15692587751397" y="86.67872436772356" width="26.14605047117193" height="26.14605047117193" style="fill: rgba(0, 0, 0, 0.165);"></rect>
    </g>
    <g>
      <rect x="0" y="113.54621668183808" width="26.138845784127618" height="26.138845784127618" style="fill: rgba(0, 0, 0, 0.976);"></rect>
    </g>
    <g>
      <rect x="26.138845784127618" y="113.54621668183808" width="26.136959590790564" height="26.136959590790564" style="fill: rgba(0, 0, 0, 0.18);"></rect>
    </g>
    <g>
      <rect x="52.27580537491818" y="113.54621668183808" width="26.086215705472668" height="26.086215705472668" style="fill: rgba(0, 0, 0, 0.082);"></rect>
    </g>
    <g>
      <rect x="78.36202108039085" y="113.54621668183808" width="26.035409748007833" height="26.035409748007833" style="fill: rgba(0, 0, 0, 0.19);"></rect>
    </g>
    <g>
      <rect x="104.39743082839868" y="113.54621668183808" width="25.91838267293523" height="25.91838267293523" style="fill: rgba(0, 0, 0, 0.6);"></rect>
    </g>
    <g>
      <rect x="130.3158135013339" y="113.54621668183808" width="25.62884764996239" height="25.62884764996239" style="fill: rgba(0, 0, 0, 0.784);"></rect>
    </g>
    <g>
      <rect x="155.9446611512963" y="113.54621668183808" width="25.602495154438717" height="25.602495154438717" style="fill: rgba(0, 0, 0, 0.792);"></rect>
    </g>
    <g>
      <rect x="181.547156305735" y="113.54621668183808" width="25.599544625688036" height="25.599544625688036" style="fill: rgba(0, 0, 0, 0.9);"></rect>
    </g>
    <g>
      <rect x="207.14670093142303" y="113.54621668183808" width="25.571602153390135" height="25.571602153390135" style="fill: rgba(0, 0, 0, 0.243);"></rect>
    </g>
    <g>
      <rect x="232.71830308481316" y="113.54621668183808" width="25.561069153608702" height="25.561069153608702" style="fill: rgba(0, 0, 0, 0.44);"></rect>
    </g>
    <g>
      <rect x="258.27937223842184" y="113.54621668183808" width="25.53938576670028" height="25.53938576670028" style="fill: rgba(0, 0, 0, 0.082);"></rect>
    </g>
    <g>
      <rect x="283.8187580051221" y="113.54621668183808" width="25.507527490407874" height="25.507527490407874" style="fill: rgba(0, 0, 0, 0.72);"></rect>
    </g>
    <g>
      <rect x="309.32628549553" y="113.54621668183808" width="25.431046622898865" height="25.431046622898865" style="fill: rgba(0, 0, 0, 0.337);"></rect>
    </g>
    <g>
      <rect x="0" y="139.6850624659657" width="25.414957002483803" height="25.414957002483803" style="fill: rgba(0, 0, 0, 0.69);"></rect>
    </g>
    <g>
      <rect x="25.414957002483803" y="139.6850624659657" width="25.220060829135004" height="25.220060829135004" style="fill: rgba(0, 0, 0, 0.373);"></rect>
    </g>
    <g>
      <rect x="50.63501783161881" y="139.6850624659657" width="25.216635583558677" height="25.216635583558677" style="fill: rgba(0, 0, 0, 0.725);"></rect>
    </g>
    <g>
      <rect x="75.85165341517748" y="139.6850624659657" width="25.12316794982901" height="25.12316794982901" style="fill: rgba(0, 0, 0, 0.416);"></rect>
    </g>
    <g>
      <rect x="100.97482136500649" y="139.6850624659657" width="25.122104930906534" height="25.122104930906534" style="fill: rgba(0, 0, 0, 0.992);"></rect>
    </g>
    <g>
      <rect x="126.09692629591302" y="139.6850624659657" width="25.07217581919035" height="25.07217581919035" style="fill: rgba(0, 0, 0, 0.082);"></rect>
    </g>
    <g>
      <rect x="151.16910211510339" y="139.6850624659657" width="24.879882968665108" height="24.879882968665108" style="fill: rgba(0, 0, 0, 0.475);"></rect>
    </g>
    <g>
      <rect x="176.04898508376849" y="139.6850624659657" width="24.75367792404889" height="24.75367792404889" style="fill: rgba(0, 0, 0, 0.765);"></rect>
    </g>
    <g>
      <rect x="200.8026630078174" y="139.6850624659657" width="24.735071715256943" height="24.735071715256943" style="fill: rgba(0, 0, 0, 0.96);"></rect>
    </g>
    <g>
      <rect x="225.53773472307432" y="139.6850624659657" width="24.607802616244363" height="24.607802616244363" style="fill: rgba(0, 0, 0, 0.576);"></rect>
    </g>
    <g>
      <rect x="250.14553733931868" y="139.6850624659657" width="24.556839865434842" height="24.556839865434842" style="fill: rgba(0, 0, 0, 0.082);"></rect>
    </g>
    <g>
      <rect x="274.70237720475353" y="139.6850624659657" width="24.50183847405985" height="24.50183847405985" style="fill: rgba(0, 0, 0, 0.494);"></rect>
    </g>
    <g>
      <rect x="299.2042156788134" y="139.6850624659657" width="24.487486756784456" height="24.487486756784456" style="fill: rgba(0, 0, 0, 0.596);"></rect>
    </g>
    <g>
      <rect x="0" y="165.1000194684495" width="24.259002271472404" height="24.259002271472404" style="fill: rgba(0, 0, 0, 0.847);"></rect>
    </g>
    <g>
      <rect x="24.259002271472404" y="165.1000194684495" width="24.14351754253836" height="24.14351754253836" style="fill: rgba(0, 0, 0, 0.427);"></rect>
    </g>
    <g>
      <rect x="48.40251981401076" y="165.1000194684495" width="24.018416073910412" height="24.018416073910412" style="fill: rgba(0, 0, 0, 0.914);"></rect>
    </g>
    <g>
      <rect x="72.42093588792117" y="165.1000194684495" width="23.96890431011998" height="23.96890431011998" style="fill: rgba(0, 0, 0, 0.898);"></rect>
    </g>
    <g>
      <rect x="96.38984019804116" y="165.1000194684495" width="23.963679324354047" height="23.963679324354047" style="fill: rgba(0, 0, 0, 0.082);"></rect>
    </g>
    <g>
      <rect x="120.3535195223952" y="165.1000194684495" width="23.960126017176336" height="23.960126017176336" style="fill: rgba(0, 0, 0, 0.392);"></rect>
    </g>
    <g>
      <rect x="144.31364553957155" y="165.1000194684495" width="23.80261041605109" height="23.80261041605109" style="fill: rgba(0, 0, 0, 0.89);"></rect>
    </g>
    <g>
      <rect x="168.11625595562265" y="165.1000194684495" width="23.786553544970346" height="23.786553544970346" style="fill: rgba(0, 0, 0, 0.77);"></rect>
    </g>
    <g>
      <rect x="191.90280950059298" y="165.1000194684495" width="23.743878446911953" height="23.743878446911953" style="fill: rgba(0, 0, 0, 0.46);"></rect>
    </g>
    <g>
      <rect x="215.64668794750494" y="165.1000194684495" width="23.712895581390555" height="23.712895581390555" style="fill: rgba(0, 0, 0, 0.58);"></rect>
    </g>
    <g>
      <rect x="239.35958352889548" y="165.1000194684495" width="23.626349645896507" height="23.626349645896507" style="fill: rgba(0, 0, 0, 0.082);"></rect>
    </g>
    <g>
      <rect x="262.98593317479197" y="165.1000194684495" width="23.545156792751516" height="23.545156792751516" style="fill: rgba(0, 0, 0, 0.498);"></rect>
    </g>
    <g>
      <rect x="286.5310899675435" y="165.1000194684495" width="23.483872762837812" height="23.483872762837812" style="fill: rgba(0, 0, 0, 0.75);"></rect>
    </g>
    <g>
      <rect x="310.0149627303813" y="165.1000194684495" width="23.37772048341456" height="23.37772048341456" style="fill: rgba(0, 0, 0, 0.54);"></rect>
    </g>
    <g>
      <rect x="0" y="189.3590217399219" width="23.281763804828387" height="23.281763804828387" style="fill: rgba(0, 0, 0, 0.725);"></rect>
    </g>
    <g>
      <rect x="23.281763804828387" y="189.3590217399219" width="23.25537456583664" height="23.25537456583664" style="fill: rgba(0, 0, 0, 0.365);"></rect>
    </g>
    <g>
      <rect x="46.537138370665026" y="189.3590217399219" width="23.168126053770514" height="23.168126053770514" style="fill: rgba(0, 0, 0, 0.224);"></rect>
    </g>
    <g>
      <rect x="69.70526442443554" y="189.3590217399219" width="22.86067995367403" height="22.86067995367403" style="fill: rgba(0, 0, 0, 0.082);"></rect>
    </g>
    <g>
      <rect x="92.56594437810958" y="189.3590217399219" width="22.855100757300086" height="22.855100757300086" style="fill: rgba(0, 0, 0, 0.118);"></rect>
    </g>
    <g>
      <rect x="115.42104513540966" y="189.3590217399219" width="22.600816642598456" height="22.600816642598456" style="fill: rgba(0, 0, 0, 0.886);"></rect>
    </g>
    <g>
      <rect x="138.02186177800812" y="189.3590217399219" width="22.587893831571062" height="22.587893831571062" style="fill: rgba(0, 0, 0, 0.64);"></rect>
    </g>
    <g>
      <rect x="160.60975560957917" y="189.3590217399219" width="22.553642587701066" height="22.553642587701066" style="fill: rgba(0, 0, 0, 0.13);"></rect>
    </g>
    <g>
      <rect x="183.16339819728023" y="189.3590217399219" width="22.51971572851782" height="22.51971572851782" style="fill: rgba(0, 0, 0, 0.11);"></rect>
    </g>
    <g>
      <rect x="205.68311392579804" y="189.3590217399219" width="22.406771038712986" height="22.406771038712986" style="fill: rgba(0, 0, 0, 0.137);"></rect>
    </g>
    <g>
      <rect x="228.08988496451101" y="189.3590217399219" width="22.365357744837596" height="22.365357744837596" style="fill: rgba(0, 0, 0, 0.698);"></rect>
    </g>
    <g>
      <rect x="250.45524270934862" y="189.3590217399219" width="22.34218513001441" height="22.34218513001441" style="fill: rgba(0, 0, 0, 0.325);"></rect>
    </g>
    <g>
      <rect x="272.797427839363" y="189.3590217399219" width="21.917264219629807" height="21.917264219629807" style="fill: rgba(0, 0, 0, 0.443);"></rect>
    </g>
    <g>
      <rect x="294.71469205899285" y="189.3590217399219" width="21.906132362084765" height="21.906132362084765" style="fill: rgba(0, 0, 0, 0.427);"></rect>
    </g>
    <g>
      <rect x="316.6208244210776" y="189.3590217399219" width="21.8754157814661" height="21.8754157814661" style="fill: rgba(0, 0, 0, 0.804);"></rect>
    </g>
    <g>
      <rect x="316.3029763486859" y="86.67872436772356" width="21.840697579034533" height="21.840697579034533" style="fill: rgba(0, 0, 0, 0.486);"></rect>
    </g>
    <g>
      <rect x="0" y="212.6407855447503" width="21.81317954792015" height="21.81317954792015" style="fill: rgba(0, 0, 0, 0.29);"></rect>
    </g>
    <g>
      <rect x="21.81317954792015" y="212.6407855447503" width="21.787316894936026" height="21.787316894936026" style="fill: rgba(0, 0, 0, 0.27);"></rect>
    </g>
    <g>
      <rect x="43.600496442856176" y="212.6407855447503" width="21.62897069075359" height="21.62897069075359" style="fill: rgba(0, 0, 0, 0.082);"></rect>
    </g>
    <g>
      <rect x="65.22946713360977" y="212.6407855447503" width="21.62591494115285" height="21.62591494115285" style="fill: rgba(0, 0, 0, 0.655);"></rect>
    </g>
    <g>
      <rect x="86.85538207476262" y="212.6407855447503" width="21.51370394205441" height="21.51370394205441" style="fill: rgba(0, 0, 0, 0.082);"></rect>
    </g>
    <g>
      <rect x="108.36908601681702" y="212.6407855447503" width="21.28814037453841" height="21.28814037453841" style="fill: rgba(0, 0, 0, 0.082);"></rect>
    </g>
    <g>
      <rect x="129.65722639135544" y="212.6407855447503" width="21.218781060317294" height="21.218781060317294" style="fill: rgba(0, 0, 0, 0.18);"></rect>
    </g>
    <g>
      <rect x="150.87600745167273" y="212.6407855447503" width="21.145959072791076" height="21.145959072791076" style="fill: rgba(0, 0, 0, 0.486);"></rect>
    </g>
    <g>
      <rect x="172.0219665244638" y="212.6407855447503" width="21.129614695485028" height="21.129614695485028" style="fill: rgba(0, 0, 0, 0.514);"></rect>
    </g>
    <g>
      <rect x="193.15158121994884" y="212.6407855447503" width="21.047775972684864" height="21.047775972684864" style="fill: rgba(0, 0, 0, 0.96);"></rect>
    </g>
    <g>
      <rect x="214.1993571926337" y="212.6407855447503" width="21.032570725263074" height="21.032570725263074" style="fill: rgba(0, 0, 0, 0.28);"></rect>
    </g>
    <g>
      <rect x="235.23192791789677" y="212.6407855447503" width="20.907622056059765" height="20.907622056059765" style="fill: rgba(0, 0, 0, 0.565);"></rect>
    </g>
    <g>
      <rect x="256.13954997395655" y="212.6407855447503" width="20.869431441648555" height="20.869431441648555" style="fill: rgba(0, 0, 0, 0.082);"></rect>
    </g>
    <g>
      <rect x="277.0089814156051" y="212.6407855447503" width="20.84700673854818" height="20.84700673854818" style="fill: rgba(0, 0, 0, 0.627);"></rect>
    </g>
    <g>
      <rect x="297.8559881541533" y="212.6407855447503" width="20.772325209418348" height="20.772325209418348" style="fill: rgba(0, 0, 0, 0.64);"></rect>
    </g>
    <g>
      <rect x="0" y="234.45396509267044" width="20.704609085969384" height="20.704609085969384" style="fill: rgba(0, 0, 0, 0.996);"></rect>
    </g>
    <g>
      <rect x="20.704609085969384" y="234.45396509267044" width="20.604142326520687" height="20.604142326520687" style="fill: rgba(0, 0, 0, 0.224);"></rect>
    </g>
    <g>
      <rect x="41.30875141249007" y="234.45396509267044" width="20.583479151804355" height="20.583479151804355" style="fill: rgba(0, 0, 0, 0.082);"></rect>
    </g>
    <g>
      <rect x="61.89223056429442" y="234.45396509267044" width="20.55423041284103" height="20.55423041284103" style="fill: rgba(0, 0, 0, 0.153);"></rect>
    </g>
    <g>
      <rect x="82.44646097713544" y="234.45396509267044" width="20.524260333808776" height="20.524260333808776" style="fill: rgba(0, 0, 0, 0.94);"></rect>
    </g>
    <g>
      <rect x="102.97072131094421" y="234.45396509267044" width="20.390373437584202" height="20.390373437584202" style="fill: rgba(0, 0, 0, 0.553);"></rect>
    </g>
    <g>
      <rect x="123.36109474852842" y="234.45396509267044" width="20.388992663356277" height="20.388992663356277" style="fill: rgba(0, 0, 0, 0.082);"></rect>
    </g>
    <g>
      <rect x="143.7500874118847" y="234.45396509267044" width="20.296830227109275" height="20.296830227109275" style="fill: rgba(0, 0, 0, 0.792);"></rect>
    </g>
    <g>
      <rect x="164.04691763899396" y="234.45396509267044" width="20.29512924602885" height="20.29512924602885" style="fill: rgba(0, 0, 0, 0.85);"></rect>
    </g>
    <g>
      <rect x="184.3420468850228" y="234.45396509267044" width="19.88007244009499" height="19.88007244009499" style="fill: rgba(0, 0, 0, 0.776);"></rect>
    </g>
    <g>
      <rect x="204.22211932511777" y="234.45396509267044" width="19.77705861711797" height="19.77705861711797" style="fill: rgba(0, 0, 0, 0.196);"></rect>
    </g>
    <g>
      <rect x="223.99917794223575" y="234.45396509267044" width="19.540167617120424" height="19.540167617120424" style="fill: rgba(0, 0, 0, 0.16);"></rect>
    </g>
    <g>
      <rect x="243.53934555935618" y="234.45396509267044" width="19.534002917028964" height="19.534002917028964" style="fill: rgba(0, 0, 0, 0.435);"></rect>
    </g>
    <g>
      <rect x="263.07334847638515" y="234.45396509267044" width="19.23421841428699" height="19.23421841428699" style="fill: rgba(0, 0, 0, 0.675);"></rect>
    </g>
    <g>
      <rect x="282.30756689067215" y="234.45396509267044" width="19.148777666054457" height="19.148777666054457" style="fill: rgba(0, 0, 0, 0.396);"></rect>
    </g>
    <g>
      <rect x="301.4563445567266" y="234.45396509267044" width="19.06698334187832" height="19.06698334187832" style="fill: rgba(0, 0, 0, 0.37);"></rect>
    </g>
    <g>
      <rect x="318.62831336357164" y="212.6407855447503" width="18.913507183056616" height="18.913507183056616" style="fill: rgba(0, 0, 0, 0.67);"></rect>
    </g>
    <g>
      <rect x="0" y="255.15857417863984" width="18.659024525247425" height="18.659024525247425" style="fill: rgba(0, 0, 0, 0.784);"></rect>
    </g>
    <g>
      <rect x="18.659024525247425" y="255.15857417863984" width="18.658819749045193" height="18.658819749045193" style="fill: rgba(0, 0, 0, 0.082);"></rect>
    </g>
    <g>
      <rect x="37.31784427429262" y="255.15857417863984" width="18.63776758293693" height="18.63776758293693" style="fill: rgba(0, 0, 0, 0.22);"></rect>
    </g>
    <g>
      <rect x="55.95561185722955" y="255.15857417863984" width="18.523123954202013" height="18.523123954202013" style="fill: rgba(0, 0, 0, 0.875);"></rect>
    </g>
    <g>
      <rect x="74.47873581143156" y="255.15857417863984" width="18.390026621078075" height="18.390026621078075" style="fill: rgba(0, 0, 0, 0.675);"></rect>
    </g>
    <g>
      <rect x="92.86876243250964" y="255.15857417863984" width="18.144212802392943" height="18.144212802392943" style="fill: rgba(0, 0, 0, 0.45);"></rect>
    </g>
    <g>
      <rect x="111.01297523490258" y="255.15857417863984" width="18.04796644798843" height="18.04796644798843" style="fill: rgba(0, 0, 0, 0.082);"></rect>
    </g>
    <g>
      <rect x="129.060941682891" y="255.15857417863984" width="17.96732961414594" height="17.96732961414594" style="fill: rgba(0, 0, 0, 0.227);"></rect>
    </g>
    <g>
      <rect x="147.02827129703695" y="255.15857417863984" width="17.965500028089146" height="17.965500028089146" style="fill: rgba(0, 0, 0, 0.082);"></rect>
    </g>
    <g>
      <rect x="164.9937713251261" y="255.15857417863984" width="17.829382257722322" height="17.829382257722322" style="fill: rgb(0, 0, 0);"></rect>
    </g>
    <g>
      <rect x="182.82315358284842" y="255.15857417863984" width="17.826828768689694" height="17.826828768689694" style="fill: rgba(0, 0, 0, 0.784);"></rect>
    </g>
    <g>
      <rect x="200.6499823515381" y="255.15857417863984" width="17.807276926254602" height="17.807276926254602" style="fill: rgba(0, 0, 0, 0.35);"></rect>
    </g>
    <g>
      <rect x="218.45725927779273" y="255.15857417863984" width="17.791405401399096" height="17.791405401399096" style="fill: rgba(0, 0, 0, 0.325);"></rect>
    </g>
    <g>
      <rect x="236.24866467919182" y="255.15857417863984" width="17.5337923837158" height="17.5337923837158" style="fill: rgba(0, 0, 0, 0.976);"></rect>
    </g>
    <g>
      <rect x="253.7824570629076" y="255.15857417863984" width="17.50973220883332" height="17.50973220883332" style="fill: rgba(0, 0, 0, 0.75);"></rect>
    </g>
    <g>
      <rect x="271.29218927174094" y="255.15857417863984" width="17.38379132588074" height="17.38379132588074" style="fill: rgba(0, 0, 0, 0.525);"></rect>
    </g>
    <g>
      <rect x="288.6759805976217" y="255.15857417863984" width="17.349730836750524" height="17.349730836750524" style="fill: rgba(0, 0, 0, 0.604);"></rect>
    </g>
    <g>
      <rect x="306.02571143437217" y="255.15857417863984" width="17.195524069207366" height="17.195524069207366" style="fill: rgba(0, 0, 0, 0.082);"></rect>
    </g>
    <g>
      <rect x="320.5233278986049" y="234.45396509267044" width="17.11900472933855" height="17.11900472933855" style="fill: rgba(0, 0, 0, 0.718);"></rect>
    </g>
    <g>
      <rect x="0" y="273.81759870388726" width="17.07536780497425" height="17.07536780497425" style="fill: rgba(0, 0, 0, 0.486);"></rect>
    </g>
    <g>
      <rect x="17.07536780497425" y="273.81759870388726" width="16.9926206802966" height="16.9926206802966" style="fill: rgba(0, 0, 0, 0.314);"></rect>
    </g>
    <g>
      <rect x="34.067988485270845" y="273.81759870388726" width="16.96514072856174" height="16.96514072856174" style="fill: rgba(0, 0, 0, 0.53);"></rect>
    </g>
    <g>
      <rect x="51.03312921383258" y="273.81759870388726" width="16.81530140048802" height="16.81530140048802" style="fill: rgba(0, 0, 0, 0.22);"></rect>
    </g>
    <g>
      <rect x="67.8484306143206" y="273.81759870388726" width="16.69620560508475" height="16.69620560508475" style="fill: rgba(0, 0, 0, 0.173);"></rect>
    </g>
    <g>
      <rect x="84.54463621940536" y="273.81759870388726" width="16.645063806360415" height="16.645063806360415" style="fill: rgba(0, 0, 0, 0.082);"></rect>
    </g>
    <g>
      <rect x="101.18970002576577" y="273.81759870388726" width="16.641602549495566" height="16.641602549495566" style="fill: rgba(0, 0, 0, 0.54);"></rect>
    </g>
    <g>
      <rect x="117.83130257526133" y="273.81759870388726" width="16.549835481802766" height="16.549835481802766" style="fill: rgba(0, 0, 0, 0.173);"></rect>
    </g>
    <g>
      <rect x="134.3811380570641" y="273.81759870388726" width="16.31212715076402" height="16.31212715076402" style="fill: rgba(0, 0, 0, 0.282);"></rect>
    </g>
    <g>
      <rect x="150.69326520782812" y="273.81759870388726" width="16.14444349266715" height="16.14444349266715" style="fill: rgba(0, 0, 0, 0.91);"></rect>
    </g>
    <g>
      <rect x="166.83770870049528" y="273.81759870388726" width="16.112441428523596" height="16.112441428523596" style="fill: rgba(0, 0, 0, 0.282);"></rect>
    </g>
    <g>
      <rect x="182.95015012901888" y="273.81759870388726" width="16.032536466501234" height="16.032536466501234" style="fill: rgba(0, 0, 0, 0.996);"></rect>
    </g>
    <g>
      <rect x="198.9826865955201" y="273.81759870388726" width="15.959144436054766" height="15.959144436054766" style="fill: rgba(0, 0, 0, 0.553);"></rect>
    </g>
    <g>
      <rect x="214.94183103157488" y="273.81759870388726" width="15.953134806421005" height="15.953134806421005" style="fill: rgba(0, 0, 0, 0.62);"></rect>
    </g>
    <g>
      <rect x="230.89496583799587" y="273.81759870388726" width="15.926031695241429" height="15.926031695241429" style="fill: rgba(0, 0, 0, 0.984);"></rect>
    </g>
    <g>
      <rect x="246.8209975332373" y="273.81759870388726" width="15.831962595732133" height="15.831962595732133" style="fill: rgba(0, 0, 0, 0.992);"></rect>
    </g>
    <g>
      <rect x="262.6529601289694" y="273.81759870388726" width="15.604498013551007" height="15.604498013551007" style="fill: rgba(0, 0, 0, 0.82);"></rect>
    </g>
    <g>
      <rect x="278.2574581425204" y="273.81759870388726" width="15.530974409028847" height="15.530974409028847" style="fill: rgba(0, 0, 0, 0.38);"></rect>
    </g>
    <g>
      <rect x="293.78843255154925" y="273.81759870388726" width="15.518451727641379" height="15.518451727641379" style="fill: rgba(0, 0, 0, 0.208);"></rect>
    </g>
    <g>
      <rect x="309.3068842791906" y="273.81759870388726" width="15.285319212014326" height="15.285319212014326" style="fill: rgba(0, 0, 0, 0.7);"></rect>
    </g>
    <g>
      <rect x="323.2212355035795" y="255.15857417863984" width="15.09146813407195" height="15.09146813407195" style="fill: rgba(0, 0, 0, 0.68);"></rect>
    </g>
    <g>
      <rect x="323.69170243559785" y="139.6850624659657" width="15.01676555949219" height="15.01676555949219" style="fill: rgba(0, 0, 0, 0.945);"></rect>
    </g>
    <g>
      <rect x="323.0245386134072" y="0" width="14.810280996018198" height="14.810280996018198" style="fill: rgba(0, 0, 0, 0.745);"></rect>
    </g>
    <g>
      <rect x="0" y="290.8929665088615" width="14.801441160064787" height="14.801441160064787" style="fill: rgba(0, 0, 0, 0.55);"></rect>
    </g>
    <g>
      <rect x="14.801441160064787" y="290.8929665088615" width="14.71136711978698" height="14.71136711978698" style="fill: rgba(0, 0, 0, 0.455);"></rect>
    </g>
    <g>
      <rect x="29.512808279851768" y="290.8929665088615" width="14.322355694449314" height="14.322355694449314" style="fill: rgba(0, 0, 0, 0.945);"></rect>
    </g>
    <g>
      <rect x="43.83516397430108" y="290.8929665088615" width="14.19156164152642" height="14.19156164152642" style="fill: rgba(0, 0, 0, 0.24);"></rect>
    </g>
    <g>
      <rect x="58.0267256158275" y="290.8929665088615" width="14.154781966878973" height="14.154781966878973" style="fill: rgba(0, 0, 0, 0.14);"></rect>
    </g>
    <g>
      <rect x="72.18150758270647" y="290.8929665088615" width="14.1210031633478" height="14.1210031633478" style="fill: rgba(0, 0, 0, 0.475);"></rect>
    </g>
    <g>
      <rect x="86.30251074605427" y="290.8929665088615" width="14.115120558679338" height="14.115120558679338" style="fill: rgba(0, 0, 0, 0.43);"></rect>
    </g>
    <g>
      <rect x="100.4176313047336" y="290.8929665088615" width="13.994143154323748" height="13.994143154323748" style="fill: rgba(0, 0, 0, 0.77);"></rect>
    </g>
    <g>
      <rect x="114.41177445905736" y="290.8929665088615" width="13.981978522629182" height="13.981978522629182" style="fill: rgba(0, 0, 0, 0.23);"></rect>
    </g>
    <g>
      <rect x="128.39375298168653" y="290.8929665088615" width="13.95391379829301" height="13.95391379829301" style="fill: rgba(0, 0, 0, 0.824);"></rect>
    </g>
    <g>
      <rect x="142.34766677997953" y="290.8929665088615" width="13.86321681105828" height="13.86321681105828" style="fill: rgba(0, 0, 0, 0.45);"></rect>
    </g>
    <g>
      <rect x="156.21088359103783" y="290.8929665088615" width="13.808820651666183" height="13.808820651666183" style="fill: rgba(0, 0, 0, 0.31);"></rect>
    </g>
    <g>
      <rect x="170.01970424270402" y="290.8929665088615" width="13.807889497740826" height="13.807889497740826" style="fill: rgba(0, 0, 0, 0.47);"></rect>
    </g>
    <g>
      <rect x="183.82759374044485" y="290.8929665088615" width="13.784698776861982" height="13.784698776861982" style="fill: rgba(0, 0, 0, 0.082);"></rect>
    </g>
    <g>
      <rect x="197.61229251730683" y="290.8929665088615" width="13.715113779241266" height="13.715113779241266" style="fill: rgba(0, 0, 0, 0.765);"></rect>
    </g>
    <g>
      <rect x="211.3274062965481" y="290.8929665088615" width="13.696733713807847" height="13.696733713807847" style="fill: rgba(0, 0, 0, 0.082);"></rect>
    </g>
    <g>
      <rect x="225.02414001035595" y="290.8929665088615" width="13.662173139322233" height="13.662173139322233" style="fill: rgba(0, 0, 0, 0.392);"></rect>
    </g>
    <g>
      <rect x="238.68631314967817" y="290.8929665088615" width="13.651346971725872" height="13.651346971725872" style="fill: rgba(0, 0, 0, 0.74);"></rect>
    </g>
    <g>
      <rect x="252.33766012140404" y="290.8929665088615" width="13.647603709877663" height="13.647603709877663" style="fill: rgba(0, 0, 0, 0.937);"></rect>
    </g>
    <g>
      <rect x="265.9852638312817" y="290.8929665088615" width="13.52200334099133" height="13.52200334099133" style="fill: rgba(0, 0, 0, 0.224);"></rect>
    </g>
    <g>
      <rect x="279.50726717227303" y="290.8929665088615" width="13.434818636373178" height="13.434818636373178" style="fill: rgba(0, 0, 0, 0.992);"></rect>
    </g>
    <g>
      <rect x="292.9420858086462" y="290.8929665088615" width="13.270770416580914" height="13.270770416580914" style="fill: rgba(0, 0, 0, 0.624);"></rect>
    </g>
    <g>
      <rect x="306.2128562252271" y="290.8929665088615" width="13.09707479876176" height="13.09707479876176" style="fill: rgba(0, 0, 0, 0.3);"></rect>
    </g>
    <g>
      <rect x="319.30993102398884" y="290.8929665088615" width="13.083143766743511" height="13.083143766743511" style="fill: rgba(0, 0, 0, 0.686);"></rect>
    </g>
    <g>
      <rect x="324.59220349120494" y="273.81759870388726" width="13.068121993784198" height="13.068121993784198" style="fill: rgba(0, 0, 0, 0.655);"></rect>
    </g>
    <g>
      <rect x="323.0245386134072" y="14.810280996018198" width="13.05531866668806" height="13.05531866668806" style="fill: rgba(0, 0, 0, 0.27);"></rect>
    </g>
    <g>
      <rect x="0" y="305.69440766892626" width="13.017217833772227" height="13.017217833772227" style="fill: rgba(0, 0, 0, 0.447);"></rect>
    </g>
    <g>
      <rect x="13.017217833772227" y="305.69440766892626" width="13.01331057803549" height="13.01331057803549" style="fill: rgba(0, 0, 0, 0.15);"></rect>
    </g>
    <g>
      <rect x="26.030528411807715" y="305.69440766892626" width="13.010311929109653" height="13.010311929109653" style="fill: rgba(0, 0, 0, 0.082);"></rect>
    </g>
    <g>
      <rect x="39.04084034091737" y="305.69440766892626" width="12.97816656973746" height="12.97816656973746" style="fill: rgba(0, 0, 0, 0.75);"></rect>
    </g>
    <g>
      <rect x="52.01900691065483" y="305.69440766892626" width="12.836522849174873" height="12.836522849174873" style="fill: rgba(0, 0, 0, 0.506);"></rect>
    </g>
    <g>
      <rect x="64.85552975982971" y="305.69440766892626" width="12.814090053576217" height="12.814090053576217" style="fill: rgba(0, 0, 0, 0.12);"></rect>
    </g>
    <g>
      <rect x="77.66961981340593" y="305.69440766892626" width="12.728760864671308" height="12.728760864671308" style="fill: rgba(0, 0, 0, 0.184);"></rect>
    </g>
    <g>
      <rect x="90.39838067807725" y="305.69440766892626" width="12.718949952566076" height="12.718949952566076" style="fill: rgba(0, 0, 0, 0.337);"></rect>
    </g>
    <g>
      <rect x="103.11733063064332" y="305.69440766892626" width="12.69873096016813" height="12.69873096016813" style="fill: rgba(0, 0, 0, 0.21);"></rect>
    </g>
    <g>
      <rect x="115.81606159081146" y="305.69440766892626" width="12.682398343644138" height="12.682398343644138" style="fill: rgba(0, 0, 0, 0.357);"></rect>
    </g>
    <g>
      <rect x="128.49845993445558" y="305.69440766892626" width="12.611534561254244" height="12.611534561254244" style="fill: rgba(0, 0, 0, 0.65);"></rect>
    </g>
    <g>
      <rect x="141.10999449570983" y="305.69440766892626" width="12.54740409383601" height="12.54740409383601" style="fill: rgba(0, 0, 0, 0.81);"></rect>
    </g>
    <g>
      <rect x="153.65739858954583" y="305.69440766892626" width="12.450732753957173" height="12.450732753957173" style="fill: rgba(0, 0, 0, 0.557);"></rect>
    </g>
    <g>
      <rect x="166.108131343503" y="305.69440766892626" width="12.447000559588727" height="12.447000559588727" style="fill: rgba(0, 0, 0, 0.792);"></rect>
    </g>
    <g>
      <rect x="178.55513190309173" y="305.69440766892626" width="12.441243589001402" height="12.441243589001402" style="fill: rgba(0, 0, 0, 0.357);"></rect>
    </g>
    <g>
      <rect x="190.99637549209314" y="305.69440766892626" width="12.424432836740834" height="12.424432836740834" style="fill: rgba(0, 0, 0, 0.082);"></rect>
    </g>
    <g>
      <rect x="203.42080832883397" y="305.69440766892626" width="12.385478093157404" height="12.385478093157404" style="fill: rgba(0, 0, 0, 0.89);"></rect>
    </g>
    <g>
      <rect x="215.8062864219914" y="305.69440766892626" width="12.36294688874193" height="12.36294688874193" style="fill: rgba(0, 0, 0, 0.93);"></rect>
    </g>
    <g>
      <rect x="228.16923331073332" y="305.69440766892626" width="12.346303423698206" height="12.346303423698206" style="fill: rgba(0, 0, 0, 0.82);"></rect>
    </g>
    <g>
      <rect x="240.51553673443152" y="305.69440766892626" width="12.267224648227732" height="12.267224648227732" style="fill: rgba(0, 0, 0, 0.996);"></rect>
    </g>
    <g>
      <rect x="252.78276138265926" y="305.69440766892626" width="12.081100486686276" height="12.081100486686276" style="fill: rgba(0, 0, 0, 0.643);"></rect>
    </g>
    <g>
      <rect x="264.86386186934556" y="305.69440766892626" width="12.00072428221199" height="12.00072428221199" style="fill: rgba(0, 0, 0, 0.082);"></rect>
    </g>
    <g>
      <rect x="276.86458615155755" y="305.69440766892626" width="11.979253283849772" height="11.979253283849772" style="fill: rgba(0, 0, 0, 0.11);"></rect>
    </g>
    <g>
      <rect x="288.8438394354073" y="305.69440766892626" width="11.91690555049884" height="11.91690555049884" style="fill: rgba(0, 0, 0, 0.082);"></rect>
    </g>
    <g>
      <rect x="300.7607449859061" y="305.69440766892626" width="11.662759302127895" height="11.662759302127895" style="fill: rgba(0, 0, 0, 0.353);"></rect>
    </g>
    <g>
      <rect x="312.423504288034" y="305.69440766892626" width="11.468821253057872" height="11.468821253057872" style="fill: rgba(0, 0, 0, 0.21);"></rect>
    </g>
    <g>
      <rect x="323.89232554109185" y="305.69440766892626" width="11.452275300746567" height="11.452275300746567" style="fill: rgba(0, 0, 0, 0.68);"></rect>
    </g>
    <g>
      <rect x="0" y="318.7116255026985" width="11.172745055526544" height="11.172745055526544" style="fill: rgba(0, 0, 0, 0.275);"></rect>
    </g>
    <g>
      <rect x="11.172745055526544" y="318.7116255026985" width="11.124078125206864" height="11.124078125206864" style="fill: rgba(0, 0, 0, 0.082);"></rect>
    </g>
    <g>
      <rect x="22.29682318073341" y="318.7116255026985" width="11.0487935105345" height="11.0487935105345" style="fill: rgba(0, 0, 0, 0.996);"></rect>
    </g>
    <g>
      <rect x="33.34561669126791" y="318.7116255026985" width="11.010458244594053" height="11.010458244594053" style="fill: rgba(0, 0, 0, 0.26);"></rect>
    </g>
    <g>
      <rect x="44.35607493586196" y="318.7116255026985" width="10.925239635687934" height="10.925239635687934" style="fill: rgba(0, 0, 0, 0.71);"></rect>
    </g>
    <g>
      <rect x="55.2813145715499" y="318.7116255026985" width="10.916813673112385" height="10.916813673112385" style="fill: rgba(0, 0, 0, 0.18);"></rect>
    </g>
    <g>
      <rect x="66.19812824466229" y="318.7116255026985" width="10.602315553195371" height="10.602315553195371" style="fill: rgba(0, 0, 0, 0.243);"></rect>
    </g>
    <g>
      <rect x="76.80044379785765" y="318.7116255026985" width="10.598631306457191" height="10.598631306457191" style="fill: rgba(0, 0, 0, 0.808);"></rect>
    </g>
    <g>
      <rect x="87.39907510431485" y="318.7116255026985" width="10.41632658080138" height="10.41632658080138" style="fill: rgba(0, 0, 0, 0.22);"></rect>
    </g>
    <g>
      <rect x="97.81540168511623" y="318.7116255026985" width="10.412622066591998" height="10.412622066591998" style="fill: rgba(0, 0, 0, 0.733);"></rect>
    </g>
    <g>
      <rect x="108.22802375170822" y="318.7116255026985" width="10.065079558326637" height="10.065079558326637" style="fill: rgba(0, 0, 0, 0.118);"></rect>
    </g>
    <g>
      <rect x="118.29310331003487" y="318.7116255026985" width="10.006049622642497" height="10.006049622642497" style="fill: rgba(0, 0, 0, 0.92);"></rect>
    </g>
    <g>
      <rect x="128.29915293267737" y="318.7116255026985" width="9.81836193105958" height="9.81836193105958" style="fill: rgba(0, 0, 0, 0.886);"></rect>
    </g>
    <g>
      <rect x="138.11751486373694" y="318.7116255026985" width="9.799610039185069" height="9.799610039185069" style="fill: rgba(0, 0, 0, 0.718);"></rect>
    </g>
    <g>
      <rect x="147.917124902922" y="318.7116255026985" width="9.750731801667074" height="9.750731801667074" style="fill: rgba(0, 0, 0, 0.133);"></rect>
    </g>
    <g>
      <rect x="157.6678567045891" y="318.7116255026985" width="9.727383676812615" height="9.727383676812615" style="fill: rgba(0, 0, 0, 0.65);"></rect>
    </g>
    <g>
      <rect x="167.39524038140172" y="318.7116255026985" width="9.717103724732777" height="9.717103724732777" style="fill: rgba(0, 0, 0, 0.282);"></rect>
    </g>
    <g>
      <rect x="177.1123441061345" y="318.7116255026985" width="9.652430506838646" height="9.652430506838646" style="fill: rgba(0, 0, 0, 0.082);"></rect>
    </g>
    <g>
      <rect x="186.76477461297313" y="318.7116255026985" width="9.616366369933086" height="9.616366369933086" style="fill: rgba(0, 0, 0, 0.725);"></rect>
    </g>
    <g>
      <rect x="196.3811409829062" y="318.7116255026985" width="9.475413650234145" height="9.475413650234145" style="fill: rgba(0, 0, 0, 0.47);"></rect>
    </g>
    <g>
      <rect x="205.85655463314035" y="318.7116255026985" width="9.473823153576737" height="9.473823153576737" style="fill: rgba(0, 0, 0, 0.937);"></rect>
    </g>
    <g>
      <rect x="215.3303777867171" y="318.7116255026985" width="9.440648931877519" height="9.440648931877519" style="fill: rgba(0, 0, 0, 0.12);"></rect>
    </g>
    <g>
      <rect x="224.7710267185946" y="318.7116255026985" width="9.420776853013884" height="9.420776853013884" style="fill: rgba(0, 0, 0, 0.14);"></rect>
    </g>
    <g>
      <rect x="234.1918035716085" y="318.7116255026985" width="9.420018704306864" height="9.420018704306864" style="fill: rgba(0, 0, 0, 0.082);"></rect>
    </g>
    <g>
      <rect x="243.61182227591536" y="318.7116255026985" width="9.302628280527934" height="9.302628280527934" style="fill: rgba(0, 0, 0, 0.2);"></rect>
    </g>
    <g>
      <rect x="252.91445055644328" y="318.7116255026985" width="9.086658790542863" height="9.086658790542863" style="fill: rgba(0, 0, 0, 0.675);"></rect>
    </g>
    <g>
      <rect x="262.00110934698614" y="318.7116255026985" width="9.018092486837894" height="9.018092486837894" style="fill: rgba(0, 0, 0, 0.353);"></rect>
    </g>
    <g>
      <rect x="271.019201833824" y="318.7116255026985" width="8.928914708281873" height="8.928914708281873" style="fill: rgba(0, 0, 0, 0.094);"></rect>
    </g>
    <g>
      <rect x="279.9481165421059" y="318.7116255026985" width="8.702983793666192" height="8.702983793666192" style="fill: rgba(0, 0, 0, 0.8);"></rect>
    </g>
    <g>
      <rect x="288.65110033577207" y="318.7116255026985" width="8.592777662173438" height="8.592777662173438" style="fill: rgba(0, 0, 0, 0.79);"></rect>
    </g>
    <g>
      <rect x="297.2438779979455" y="318.7116255026985" width="8.49772508310906" height="8.49772508310906" style="fill: rgba(0, 0, 0, 0.25);"></rect>
    </g>
    <g>
      <rect x="305.74160308105456" y="318.7116255026985" width="8.417626987269442" height="8.417626987269442" style="fill: rgba(0, 0, 0, 0.894);"></rect>
    </g>
    <g>
      <rect x="314.159230068324" y="318.7116255026985" width="8.25700563390769" height="8.25700563390769" style="fill: rgba(0, 0, 0, 0.082);"></rect>
    </g>
    <g>
      <rect x="322.4162357022317" y="318.7116255026985" width="8.240325085582507" height="8.240325085582507" style="fill: rgba(0, 0, 0, 0.486);"></rect>
    </g>
    <g>
      <rect x="330.6565607878142" y="318.7116255026985" width="8.225273625557259" height="8.225273625557259" style="fill: rgba(0, 0, 0, 0.945);"></rect>
    </g>
    <g>
      <rect x="323.69170243559785" y="154.7018280254579" width="8.201720179947662" height="8.201720179947662" style="fill: rgba(0, 0, 0, 0.784);"></rect>
    </g>
    <g>
      <rect x="329.84360397992407" y="58.776423332663015" width="8.14407411579367" height="8.14407411579367" style="fill: rgba(0, 0, 0, 0.792);"></rect>
    </g>
    <g>
      <rect x="329.84360397992407" y="66.92049744845669" width="8.018535398495832" height="8.018535398495832" style="fill: rgba(0, 0, 0, 0.455);"></rect>
    </g>
    <g>
      <rect x="329.84360397992407" y="74.93903284695251" width="7.94543679031996" height="7.94543679031996" style="fill: rgba(0, 0, 0, 0.957);"></rect>
    </g>
    <g>
      <rect x="0" y="329.88437055822504" width="7.869193651919877" height="7.869193651919877" style="fill: rgba(0, 0, 0, 0.75);"></rect>
    </g>
    <g>
      <rect x="7.869193651919877" y="329.88437055822504" width="7.811110279130146" height="7.811110279130146" style="fill: rgba(0, 0, 0, 0.314);"></rect>
    </g>
    <g>
      <rect x="15.680303931050023" y="329.88437055822504" width="7.665944044486747" height="7.665944044486747" style="fill: rgba(0, 0, 0, 0.46);"></rect>
    </g>
    <g>
      <rect x="23.34624797553677" y="329.88437055822504" width="7.314146275737464" height="7.314146275737464" style="fill: rgba(0, 0, 0, 0.808);"></rect>
    </g>
    <g>
      <rect x="30.660394251274234" y="329.88437055822504" width="7.299051604101226" height="7.299051604101226" style="fill: rgba(0, 0, 0, 0.733);"></rect>
    </g>
    <g>
      <rect x="37.95944585537546" y="329.88437055822504" width="7.191828996475733" height="7.191828996475733" style="fill: rgba(0, 0, 0, 0.208);"></rect>
    </g>
    <g>
      <rect x="45.1512748518512" y="329.88437055822504" width="7.191408224024327" height="7.191408224024327" style="fill: rgba(0, 0, 0, 0.125);"></rect>
    </g>
    <g>
      <rect x="52.34268307587553" y="329.88437055822504" width="7.084767401141608" height="7.084767401141608" style="fill: rgba(0, 0, 0, 0.525);"></rect>
    </g>
    <g>
      <rect x="59.42745047701713" y="329.88437055822504" width="7.084767401141608" height="7.084767401141608" style="fill: rgba(0, 0, 0, 0.282);"></rect>
    </g>
    <g>
      <rect x="66.51221787815874" y="329.88437055822504" width="7.084767401141608" height="7.084767401141608" style="fill: rgba(0, 0, 0, 0.816);"></rect>
    </g>
    <g>
      <rect x="73.59698527930034" y="329.88437055822504" width="7.084767401141608" height="7.084767401141608" style="fill: rgba(0, 0, 0, 0.565);"></rect>
    </g>
    <g>
      <rect x="80.68175268044195" y="329.88437055822504" width="7.084767401141608" height="7.084767401141608" style="fill: rgba(0, 0, 0, 0.082);"></rect>
    </g>
    <g>
      <rect x="87.76652008158355" y="329.88437055822504" width="7.084767401141608" height="7.084767401141608" style="fill: rgba(0, 0, 0, 0.53);"></rect>
    </g>
    <g>
      <rect x="94.85128748272516" y="329.88437055822504" width="7.084767401141608" height="7.084767401141608" style="fill: rgba(0, 0, 0, 0.46);"></rect>
    </g>
    <g>
      <rect x="101.93605488386676" y="329.88437055822504" width="7.084767401141608" height="7.084767401141608" style="fill: rgba(0, 0, 0, 0.98);"></rect>
    </g>
    <g>
      <rect x="109.02082228500836" y="329.88437055822504" width="7.084767401141608" height="7.084767401141608" style="fill: rgba(0, 0, 0, 0.58);"></rect>
    </g>
    <g>
      <rect x="116.10558968614997" y="329.88437055822504" width="7.084767401141608" height="7.084767401141608" style="fill: rgba(0, 0, 0, 0.93);"></rect>
    </g>
    <g>
      <rect x="123.19035708729157" y="329.88437055822504" width="7.084767401141608" height="7.084767401141608" style="fill: rgba(0, 0, 0, 0.21);"></rect>
    </g>
    <g>
      <rect x="130.2751244884332" y="329.88437055822504" width="7.084767401141608" height="7.084767401141608" style="fill: rgba(0, 0, 0, 0.737);"></rect>
    </g>
    <g>
      <rect x="137.3598918895748" y="329.88437055822504" width="7.084767401141608" height="7.084767401141608" style="fill: rgba(0, 0, 0, 0.976);"></rect>
    </g>
    <g>
      <rect x="144.44465929071643" y="329.88437055822504" width="7.084767401141608" height="7.084767401141608" style="fill: rgba(0, 0, 0, 0.082);"></rect>
    </g>
    <g>
      <rect x="151.52942669185805" y="329.88437055822504" width="7.084767401141608" height="7.084767401141608" style="fill: rgba(0, 0, 0, 0.082);"></rect>
    </g>
    <g>
      <rect x="158.61419409299967" y="329.88437055822504" width="7.084767401141608" height="7.084767401141608" style="fill: rgba(0, 0, 0, 0.624);"></rect>
    </g>
    <g>
      <rect x="165.6989614941413" y="329.88437055822504" width="7.084767401141608" height="7.084767401141608" style="fill: rgba(0, 0, 0, 0.353);"></rect>
    </g>
    <g>
      <rect x="172.7837288952829" y="329.88437055822504" width="7.084767401141608" height="7.084767401141608" style="fill: rgba(0, 0, 0, 0.09);"></rect>
    </g>
    <g>
      <rect x="179.86849629642452" y="329.88437055822504" width="7.084767401141608" height="7.084767401141608" style="fill: rgba(0, 0, 0, 0.082);"></rect>
    </g>
    <g>
      <rect x="186.95326369756614" y="329.88437055822504" width="7.084767401141608" height="7.084767401141608" style="fill: rgba(0, 0, 0, 0.87);"></rect>
    </g>
    <g>
      <rect x="194.03803109870776" y="329.88437055822504" width="7.084767401141608" height="7.084767401141608" style="fill: rgba(0, 0, 0, 0.953);"></rect>
    </g>
    <g>
      <rect x="201.12279849984938" y="329.88437055822504" width="7.084767401141608" height="7.084767401141608" style="fill: rgba(0, 0, 0, 0.184);"></rect>
    </g>
    <g>
      <rect x="208.207565900991" y="329.88437055822504" width="7.084767401141608" height="7.084767401141608" style="fill: rgba(0, 0, 0, 0.45);"></rect>
    </g>
    <g>
      <rect x="215.29233330213262" y="329.88437055822504" width="7.084767401141608" height="7.084767401141608" style="fill: rgba(0, 0, 0, 0.157);"></rect>
    </g>
  </g>
</svg>