<?xml version="1.0" encoding="utf-8"?>
<!-- Generator: Adobe Illustrator 17.0.0, SVG Export Plug-In . SVG Version: 6.00 Build 0)  -->
<!DOCTYPE svg PUBLIC "-//W3C//DTD SVG 1.1//EN" "http://www.w3.org/Graphics/SVG/1.1/DTD/svg11.dtd">
<svg version="1.1" id="Layer_1" xmlns="http://www.w3.org/2000/svg" xmlns:xlink="http://www.w3.org/1999/xlink" x="0px" y="0px"
	 width="75.941px" height="30.135px" viewBox="-0.122 1670.182 75.941 30.135"
	 enable-background="new -0.122 1670.182 75.941 30.135" xml:space="preserve">
<g>
	
		<line fill="none" stroke="#FFFFFF" stroke-width="3" stroke-miterlimit="10" x1="14.837" y1="1685.575" x2="14.946" y2="1698.816"/>
</g>
<g>
	<line fill="none" stroke="#FFFFFF" stroke-width="3" stroke-miterlimit="10" x1="2.03" y1="1672.333" x2="14.946" y2="1685.249"/>
</g>
<rect x="1.378" y="1671.682" fill="none" stroke="#FFFFFF" stroke-width="3" stroke-miterlimit="10" width="27.135" height="27.135"/>
<g>
	
		<line fill="none" stroke="#FFFFFF" stroke-width="3" stroke-miterlimit="10" x1="28.079" y1="1672.116" x2="14.946" y2="1685.249"/>
</g>
<g>
	<line fill="none" stroke="#FFFFFF" stroke-width="3" stroke-miterlimit="10" x1="15.054" y1="1685.141" x2="1.921" y2="1698.274"/>
</g>
<g>
	<path fill="#FFFFFF" stroke="#FFFFFF" stroke-miterlimit="10" d="M39.77,1698.742c-0.319,0-0.588-0.101-0.805-0.303
		c-0.218-0.202-0.327-0.494-0.327-0.875v-2.369c0-0.342-0.107-0.601-0.321-0.776s-0.484-0.263-0.811-0.263v-1.319
		c0.327,0,0.597-0.088,0.811-0.263c0.214-0.175,0.321-0.434,0.321-0.776v-2.358c0-0.381,0.109-0.673,0.327-0.875
		s0.486-0.303,0.805-0.303h1.272v1.214h-0.805v2.509c0,0.187-0.033,0.364-0.099,0.531c-0.066,0.167-0.154,0.317-0.263,0.449
		s-0.237,0.243-0.385,0.333c-0.148,0.089-0.303,0.15-0.467,0.181v0.047c0.163,0.031,0.319,0.092,0.467,0.181s0.276,0.2,0.385,0.333
		c0.109,0.132,0.196,0.282,0.263,0.449c0.066,0.167,0.099,0.344,0.099,0.531v2.509h0.805v1.214H39.77V1698.742z"/>
	<path fill="#FFFFFF" stroke="#FFFFFF" stroke-miterlimit="10" d="M46.493,1697.132l-2.007-6.127h1.704l0.759,2.474l0.572,2.217
		h0.093l0.572-2.217l0.735-2.474h1.634l-2.007,6.127H46.493z"/>
	<path fill="#FFFFFF" stroke="#FFFFFF" stroke-miterlimit="10" d="M57.965,1691.004h1.611l-2.357,7.073
		c-0.156,0.474-0.375,0.825-0.659,1.05c-0.284,0.226-0.691,0.338-1.22,0.338h-1.074v-1.342h1.155l0.21-0.677l-2.147-6.442H55.2
		l0.899,2.859l0.443,1.774h0.07l0.455-1.774L57.965,1691.004z"/>
	<path fill="#FFFFFF" stroke="#FFFFFF" stroke-miterlimit="10" d="M62.855,1697.132v-1.365l3.046-3.42H62.96v-1.342h4.948v1.354
		l-3.058,3.431h3.139v1.342H62.855z"/>
	<path fill="#FFFFFF" stroke="#FFFFFF" stroke-miterlimit="10" d="M73.055,1688.262c0.319,0,0.587,0.101,0.805,0.303
		s0.327,0.494,0.327,0.875v2.358c0,0.343,0.107,0.601,0.321,0.776c0.214,0.175,0.484,0.263,0.811,0.263v1.319
		c-0.327,0-0.597,0.088-0.811,0.263c-0.214,0.175-0.321,0.434-0.321,0.776v2.369c0,0.381-0.109,0.673-0.327,0.875
		s-0.486,0.303-0.805,0.303h-1.272v-1.214h0.805v-2.521c0-0.187,0.033-0.364,0.099-0.531c0.066-0.167,0.154-0.317,0.263-0.449
		c0.109-0.132,0.237-0.243,0.385-0.333c0.148-0.089,0.303-0.15,0.467-0.181v-0.047c-0.163-0.031-0.319-0.091-0.467-0.181
		c-0.148-0.089-0.276-0.2-0.385-0.333c-0.109-0.132-0.197-0.282-0.263-0.449c-0.066-0.167-0.099-0.344-0.099-0.531v-2.498h-0.805
		v-1.214h1.272V1688.262z"/>
</g>
</svg>
