<?xml version="1.0" encoding="utf-8"?>
<!-- Generator: Adobe Illustrator 21.1.0, SVG Export Plug-In . SVG Version: 6.00 Build 0)  -->
<svg version="1.1" id="Layer_1" xmlns="http://www.w3.org/2000/svg" xmlns:xlink="http://www.w3.org/1999/xlink" x="0px" y="0px"
	 viewBox="0 0 851.7 306.1" style="enable-background:new 0 0 851.7 306.1;" xml:space="preserve">
<style type="text/css">
	.st0{fill:url(#SVGID_1_);}
	.st1{fill:#FFFFFF;}
</style>
<g>
	
		<linearGradient id="SVGID_1_" gradientUnits="userSpaceOnUse" x1="422.9982" y1="-536.5266" x2="73.9982" y2="-343.5265" gradientTransform="matrix(1 0 0 -1 0 -230.11)">
		<stop  offset="0" style="stop-color:#FFFFFF;stop-opacity:0"/>
		<stop  offset="8.962709e-02" style="stop-color:#FFFFFF;stop-opacity:8.962709e-02"/>
		<stop  offset="1" style="stop-color:#FFFFFF"/>
	</linearGradient>
	<path class="st0" d="M153,0l152.6,229.6L153,306.1L0,229.6L153,0z"/>
</g>
<g>
	<path class="st1" d="M341.4,118.9H364c18.3,0,28.8,11.9,28.8,35.6s-10.5,35.6-28.8,35.6h-22.6V118.9z M364.2,184.7
		c14,0,22.1-9.7,22.1-25.5v-9.4c0-15.8-8.2-25.5-22.1-25.5h-16.6v60.4L364.2,184.7L364.2,184.7z"/>
	<path class="st1" d="M462.6,190.1l-7.8-22.1h-30.3l-7.8,22.1h-6.1l25.2-71.2h7.9l25.3,71.2H462.6z M439.9,124.7h-0.4l-13.4,37.9
		h27.1L439.9,124.7z"/>
	<path class="st1" d="M508.1,124.3v65.8H502v-65.8h-23.9v-5.4H532v5.4H508.1z"/>
	<path class="st1" d="M593.1,190.1l-7.8-22.1H555l-7.8,22.1h-6.1l25.2-71.2h7.9l25.3,71.2H593.1z M570.3,124.7h-0.4l-13.4,37.9h27.1
		L570.3,124.7z"/>
	<path class="st1" d="M622.5,190.1v-71.2h6.1v65.8H660v5.4H622.5z"/>
	<path class="st1" d="M679.1,190.1V185h10.4v-61h-10.4v-5.1H706v5.1h-10.4v61H706v5.1H679.1z"/>
	<path class="st1" d="M754.2,124.3v65.8h-6.1v-65.8h-23.9v-5.4h53.9v5.4H754.2z"/>
	<path class="st1" d="M845.6,156.6h-39.1v33.5h-6.1v-71.2h6.1v32.3h39.1v-32.3h6.1v71.2h-6.1V156.6z"/>
</g>
</svg>
