<svg width="228" height="56" viewBox="0 0 228 56" fill="none" xmlns="http://www.w3.org/2000/svg">
<path d="M10.0938 1.5H46.9062C51.6591 1.5 55.5 5.34093 55.5 10.0938V45.4813C55.5 50.2341 51.6591 54.075 46.9062 54.075H10.0938C5.34093 54.075 1.5 50.2341 1.5 45.4813V10.0938C1.5 5.34093 5.34093 1.5 10.0938 1.5Z" fill="#212121" stroke="#E5E5E5" stroke-width="3"/>
<path d="M27.5149 16.3875C36.096 16.3875 39.1839 20.7432 39.1839 28.1592C39.3301 34.1666 35.0559 39.2833 28.3275 39.1861H17.8125V16.3875H27.5149Z" fill="white" stroke="white" stroke-width="3" stroke-linejoin="round"/>
<path d="M78.79 38.1H70V18H78.49C81.95 18 84.44 18.78 85.96 20.34C87.48 21.9 88.24 24.4 88.24 27.84C88.24 31.26 87.51 33.83 86.05 35.55C84.59 37.25 82.17 38.1 78.79 38.1ZM81.22 28.17C81.22 26.37 81.03 25.17 80.65 24.57C80.29 23.97 79.47 23.67 78.19 23.67H76.96V32.43H78.19C79.23 32.43 80 32.17 80.5 31.65C80.98 31.13 81.22 29.97 81.22 28.17Z" fill="#212121"/>
<path d="M92.493 38.1L96.933 18H107.463L111.993 38.1H104.973L104.403 35.79H99.813L99.333 38.1H92.493ZM101.853 23.46L100.713 30.48H103.683L102.603 23.46H101.853Z" fill="#212121"/>
<path d="M114.874 23.67V18H129.874V23.67H125.974V38.1H119.014V23.67H114.874Z" fill="#212121"/>
<path d="M132.841 38.1L137.281 18H147.811L152.341 38.1H145.321L144.751 35.79H140.161L139.681 38.1H132.841ZM142.201 23.46L141.061 30.48H144.031L142.951 23.46H142.201Z" fill="#212121"/>
<path d="M171.051 38.1H157.551V18H164.511V32.43H171.051V38.1Z" fill="#212121"/>
<path d="M176.729 38.1V18H183.689V38.1H176.729Z" fill="#212121"/>
<path d="M189.358 23.67V18H204.358V23.67H200.458V38.1H193.498V23.67H189.358Z" fill="#212121"/>
<path d="M220.935 38.1V31.08H217.005V38.1H210.045V18H217.005V25.41H220.935V18H227.895V38.1H220.935Z" fill="#212121"/>
</svg>
