<svg width="38" height="20" viewBox="0 0 53 28" fill="none"
  xmlns="http://www.w3.org/2000/svg">
  <path d="M28 27H27C27 27.5523 27.4477 28 28 28V27ZM28 1V0C27.4477 0 27 0.447715 27 1L28 1ZM36.1702 27V28C36.4687 28 36.7517 27.8666 36.9416 27.6363L36.1702 27ZM40 22.3571L40.7714 21.7208C40.5815 21.4905 40.2985 21.3571 40 21.3571C39.7015 21.3571 39.4185 21.4905 39.2286 21.7208L40 22.3571ZM43.8298 27L43.0584 27.6363C43.2483 27.8666 43.5313 28 43.8298 28V27ZM52 27V28C52.5523 28 53 27.5523 53 27H52ZM52 1L53 1C53 0.734784 52.8946 0.48043 52.7071 0.292893C52.5196 0.105357 52.2652 0 52 0V1ZM43.8298 1V0C43.5313 0 43.2483 0.133379 43.0584 0.363673L43.8298 1ZM40 5.64285L39.2286 6.27918C39.4185 6.50947 39.7015 6.64285 40 6.64285C40.2985 6.64285 40.5815 6.50947 40.7714 6.27918L40 5.64285ZM36.1702 1L36.9416 0.363673C36.7517 0.133379 36.4687 0 36.1702 0V1ZM29 27V1H27V27H29ZM36.1702 26H28V28H36.1702V26ZM39.2286 21.7208L35.3988 26.3637L36.9416 27.6363L40.7714 22.9935L39.2286 21.7208ZM44.6012 26.3637L40.7714 21.7208L39.2286 22.9935L43.0584 27.6363L44.6012 26.3637ZM52 26H43.8298V28H52V26ZM51 1L51 27H53L53 1L51 1ZM43.8298 2H52V0H43.8298V2ZM40.7714 6.27918L44.6012 1.63633L43.0584 0.363673L39.2286 5.00653L40.7714 6.27918ZM35.3988 1.63633L39.2286 6.27918L40.7714 5.00653L36.9416 0.363673L35.3988 1.63633ZM28 2H36.1702V0H28V2Z" fill="black"/>
  <path d="M11.894 0.999999C21.5288 0.999999 24.9959 5.90867 24.9959 14.2662C25.1601 21.0361 20.361 26.8025 12.8064 26.693H1V0.999999H11.894Z" stroke="black" stroke-width="2" stroke-linejoin="round"/>
</svg>
