<svg width="250" height="27" viewBox="0 0 250 27" fill="none" 
  xmlns="http://www.w3.org/2000/svg">
  <path fill-rule="evenodd" clip-rule="evenodd" d="M8.79463 1H1V25.5565H8.79463C15.1062 25.5565 18.7276 21.4523 18.7276 13.2783C18.7276 5.10425 15.1062 1 8.79463 1ZM16.4858 14.8993C16.4858 20.3486 13.6921 23.6941 8.86361 23.6941H3.13835V2.86243H8.86361C13.6577 2.86243 16.4858 6.20792 16.4858 11.6573V14.8993ZM40.1111 17.9344L42.8013 25.5565H45.0086L36.2828 1H33.5581L24.8668 25.5565H26.9706L29.6608 17.9344H40.1111ZM34.8342 3.00039H34.9722L39.5593 16.0719H30.2126L34.8342 3.00039ZM87.8101 25.5565L85.1199 17.9344H74.6696L71.9794 25.5565H69.8756L78.5669 1H81.2916L90.0174 25.5565H87.8101ZM79.9465 3.00039H79.8085L75.1869 16.0719H84.5336L79.9465 3.00039ZM97.9501 1V25.5565H110.884V23.6941H100.054V1H97.9501ZM143.373 2.86243V25.5565H141.269V2.86243H133.026V1H151.616V2.86243H143.373ZM161.411 14.0026H174.896V25.5565H177V1H174.896V12.1401H161.411V1H159.307V25.5565H161.411V14.0026ZM117.471 25.5565V23.7976H121.058V2.75897H117.471V1H126.749V2.75897H123.162V23.7976H126.749V25.5565H117.471ZM58.494 25.5565V2.86243H66.737V1H48.1472V2.86243H56.3902V25.5565H58.494Z" fill="#3801FF"/>
  <path d="M1 1V0C0.447715 0 0 0.447715 0 1L1 1ZM1 25.5565H0C0 26.1088 0.447715 26.5565 1 26.5565L1 25.5565ZM3.13835 23.6941H2.13835C2.13835 24.2464 2.58607 24.6941 3.13835 24.6941V23.6941ZM3.13835 2.86243V1.86243C2.58607 1.86243 2.13835 2.31015 2.13835 2.86243H3.13835ZM42.8013 25.5565L41.8583 25.8894C41.9994 26.2892 42.3773 26.5565 42.8013 26.5565V25.5565ZM40.1111 17.9344L41.0541 17.6015C40.913 17.2017 40.5351 16.9344 40.1111 16.9344V17.9344ZM45.0086 25.5565V26.5565C45.3335 26.5565 45.6382 26.3987 45.8256 26.1332C46.013 25.8678 46.0597 25.5279 45.9509 25.2217L45.0086 25.5565ZM36.2828 1L37.2251 0.665173C37.0834 0.266399 36.706 0 36.2828 0V1ZM33.5581 1V0C33.1345 0 32.7568 0.266967 32.6154 0.666349L33.5581 1ZM24.8668 25.5565L23.9241 25.2229C23.8157 25.529 23.8627 25.8686 24.0502 26.1337C24.2376 26.3989 24.5421 26.5565 24.8668 26.5565V25.5565ZM26.9706 25.5565V26.5565C27.3946 26.5565 27.7725 26.2892 27.9136 25.8894L26.9706 25.5565ZM29.6608 17.9344V16.9344C29.2368 16.9344 28.8589 17.2017 28.7178 17.6015L29.6608 17.9344ZM34.9722 3.00039L35.9158 2.66927C35.7752 2.26858 35.3968 2.00039 34.9722 2.00039V3.00039ZM34.8342 3.00039V2.00039C34.4104 2.00039 34.0327 2.26751 33.8914 2.66705L34.8342 3.00039ZM39.5593 16.0719V17.0719C39.8835 17.0719 40.1876 16.9147 40.3751 16.6502C40.5626 16.3857 40.6102 16.0467 40.5029 15.7408L39.5593 16.0719ZM30.2126 16.0719L29.2698 15.7386C29.1616 16.0446 29.2087 16.3842 29.3961 16.6493C29.5836 16.9143 29.888 17.0719 30.2126 17.0719V16.0719ZM85.1199 17.9344L86.0629 17.6015C85.9218 17.2017 85.5439 16.9344 85.1199 16.9344V17.9344ZM87.8101 25.5565L86.8671 25.8894C87.0082 26.2892 87.3861 26.5565 87.8101 26.5565V25.5565ZM74.6696 17.9344V16.9344C74.2456 16.9344 73.8677 17.2017 73.7266 17.6015L74.6696 17.9344ZM71.9794 25.5565V26.5565C72.4034 26.5565 72.7813 26.2892 72.9224 25.8894L71.9794 25.5565ZM69.8756 25.5565L68.9329 25.2229C68.8245 25.529 68.8715 25.8686 69.059 26.1337C69.2464 26.3989 69.5509 26.5565 69.8756 26.5565V25.5565ZM78.5669 1V0C78.1433 0 77.7656 0.266967 77.6242 0.666349L78.5669 1ZM81.2916 1L82.2339 0.665173C82.0922 0.266399 81.7148 0 81.2916 0V1ZM90.0174 25.5565V26.5565C90.3424 26.5565 90.647 26.3987 90.8344 26.1332C91.0218 25.8678 91.0685 25.5279 90.9597 25.2217L90.0174 25.5565ZM79.8085 3.00039V2.00039C79.3848 2.00039 79.007 2.26751 78.8657 2.66705L79.8085 3.00039ZM79.9465 3.00039L80.8901 2.66927C80.7495 2.26858 80.3711 2.00039 79.9465 2.00039V3.00039ZM75.1869 16.0719L74.2441 15.7386C74.1359 16.0446 74.183 16.3842 74.3704 16.6493C74.5579 16.9143 74.8623 17.0719 75.1869 17.0719V16.0719ZM84.5336 16.0719V17.0719C84.8578 17.0719 85.1619 16.9147 85.3494 16.6502C85.5369 16.3857 85.5845 16.0467 85.4772 15.7408L84.5336 16.0719ZM97.9501 25.5565H96.9501C96.9501 26.1088 97.3978 26.5565 97.9501 26.5565V25.5565ZM97.9501 1V0C97.3978 0 96.9501 0.447715 96.9501 1L97.9501 1ZM110.884 25.5565V26.5565C111.436 26.5565 111.884 26.1088 111.884 25.5565H110.884ZM110.884 23.6941H111.884C111.884 23.1418 111.436 22.6941 110.884 22.6941V23.6941ZM100.054 23.6941H99.0539C99.0539 24.2464 99.5016 24.6941 100.054 24.6941V23.6941ZM100.054 1H101.054C101.054 0.447715 100.606 0 100.054 0V1ZM143.373 25.5565V26.5565C143.925 26.5565 144.373 26.1088 144.373 25.5565H143.373ZM143.373 2.86243V1.86243C142.82 1.86243 142.373 2.31015 142.373 2.86243H143.373ZM141.269 25.5565H140.269C140.269 26.1088 140.717 26.5565 141.269 26.5565V25.5565ZM141.269 2.86243H142.269C142.269 2.31015 141.821 1.86243 141.269 1.86243V2.86243ZM133.026 2.86243H132.026C132.026 3.41472 132.474 3.86243 133.026 3.86243V2.86243ZM133.026 1V0C132.474 0 132.026 0.447715 132.026 1L133.026 1ZM151.616 1H152.616C152.616 0.447715 152.168 0 151.616 0V1ZM151.616 2.86243V3.86243C152.168 3.86243 152.616 3.41472 152.616 2.86243H151.616ZM174.896 14.0026H175.896C175.896 13.4503 175.448 13.0026 174.896 13.0026V14.0026ZM161.411 14.0026V13.0026C160.858 13.0026 160.411 13.4503 160.411 14.0026H161.411ZM174.896 25.5565H173.896C173.896 26.1088 174.344 26.5565 174.896 26.5565V25.5565ZM177 25.5565V26.5565C177.552 26.5565 178 26.1088 178 25.5565H177ZM177 1H178C178 0.447715 177.552 0 177 0V1ZM174.896 1V0C174.344 0 173.896 0.447715 173.896 1L174.896 1ZM174.896 12.1401V13.1401C175.448 13.1401 175.896 12.6924 175.896 12.1401H174.896ZM161.411 12.1401H160.411C160.411 12.6924 160.858 13.1401 161.411 13.1401V12.1401ZM161.411 1H162.411C162.411 0.447715 161.963 0 161.411 0V1ZM159.307 1V0C158.755 0 158.307 0.447715 158.307 1L159.307 1ZM159.307 25.5565H158.307C158.307 26.1088 158.755 26.5565 159.307 26.5565V25.5565ZM161.411 25.5565V26.5565C161.963 26.5565 162.411 26.1088 162.411 25.5565H161.411ZM117.471 23.7976V22.7976C116.919 22.7976 116.471 23.2453 116.471 23.7976H117.471ZM117.471 25.5565H116.471C116.471 26.1088 116.919 26.5565 117.471 26.5565V25.5565ZM121.058 23.7976V24.7976C121.61 24.7976 122.058 24.3499 122.058 23.7976H121.058ZM121.058 2.75897H122.058C122.058 2.20668 121.61 1.75897 121.058 1.75897V2.75897ZM117.471 2.75897H116.471C116.471 3.31125 116.919 3.75897 117.471 3.75897V2.75897ZM117.471 1V0C116.919 0 116.471 0.447715 116.471 1L117.471 1ZM126.749 1H127.749C127.749 0.447715 127.301 0 126.749 0V1ZM126.749 2.75897V3.75897C127.301 3.75897 127.749 3.31125 127.749 2.75897H126.749ZM123.162 2.75897V1.75897C122.61 1.75897 122.162 2.20668 122.162 2.75897H123.162ZM123.162 23.7976H122.162C122.162 24.3499 122.61 24.7976 123.162 24.7976V23.7976ZM126.749 23.7976H127.749C127.749 23.2453 127.301 22.7976 126.749 22.7976V23.7976ZM126.749 25.5565V26.5565C127.301 26.5565 127.749 26.1088 127.749 25.5565H126.749ZM58.494 2.86243V1.86243C57.9417 1.86243 57.494 2.31015 57.494 2.86243H58.494ZM58.494 25.5565V26.5565C59.0463 26.5565 59.494 26.1088 59.494 25.5565H58.494ZM66.737 2.86243V3.86243C67.2893 3.86243 67.737 3.41472 67.737 2.86243H66.737ZM66.737 1H67.737C67.737 0.447715 67.2893 0 66.737 0V1ZM48.1472 1V0C47.5949 0 47.1472 0.447715 47.1472 1L48.1472 1ZM48.1472 2.86243H47.1472C47.1472 3.41472 47.5949 3.86243 48.1472 3.86243V2.86243ZM56.3902 2.86243H57.3902C57.3902 2.31015 56.9424 1.86243 56.3902 1.86243V2.86243ZM56.3902 25.5565H55.3902C55.3902 26.1088 55.8379 26.5565 56.3902 26.5565V25.5565ZM1 2H8.79463V0H1V2ZM2 25.5565V1H0V25.5565H2ZM8.79463 24.5565H1V26.5565H8.79463V24.5565ZM17.7276 13.2783C17.7276 17.237 16.8483 20.0434 15.3575 21.8452C13.8927 23.6156 11.7205 24.5565 8.79463 24.5565V26.5565C12.1803 26.5565 14.9746 25.4453 16.8984 23.1201C18.7963 20.8263 19.7276 17.4936 19.7276 13.2783H17.7276ZM8.79463 2C11.7205 2 13.8927 2.94092 15.3575 4.71135C16.8483 6.51317 17.7276 9.31954 17.7276 13.2783H19.7276C19.7276 9.06299 18.7963 5.73022 16.8984 3.43641C14.9746 1.11121 12.1803 0 8.79463 0V2ZM8.86361 24.6941C11.5242 24.6941 13.7247 23.7626 15.2444 21.9913C16.7464 20.2406 17.4858 17.7841 17.4858 14.8993H15.4858C15.4858 17.4638 14.8283 19.4047 13.7264 20.689C12.6422 21.9529 11.0315 22.6941 8.86361 22.6941V24.6941ZM3.13835 24.6941H8.86361V22.6941H3.13835V24.6941ZM2.13835 2.86243V23.6941H4.13835V2.86243H2.13835ZM8.86361 1.86243H3.13835V3.86243H8.86361V1.86243ZM17.4858 11.6573C17.4858 8.76954 16.7364 6.3135 15.2304 4.56396C13.7076 2.79499 11.5087 1.86243 8.86361 1.86243V3.86243C11.0126 3.86243 12.6247 4.60262 13.7146 5.86873C14.8212 7.15426 15.4858 9.09564 15.4858 11.6573H17.4858ZM17.4858 14.8993V11.6573H15.4858V14.8993H17.4858ZM43.7443 25.2237L41.0541 17.6015L39.1681 18.2672L41.8583 25.8894L43.7443 25.2237ZM45.0086 24.5565H42.8013V26.5565H45.0086V24.5565ZM35.3405 1.33483L44.0663 25.8914L45.9509 25.2217L37.2251 0.665173L35.3405 1.33483ZM33.5581 2H36.2828V0H33.5581V2ZM25.8094 25.8902L34.5008 1.33365L32.6154 0.666349L23.9241 25.2229L25.8094 25.8902ZM26.9706 24.5565H24.8668V26.5565H26.9706V24.5565ZM28.7178 17.6015L26.0276 25.2237L27.9136 25.8894L30.6038 18.2672L28.7178 17.6015ZM40.1111 16.9344H29.6608V18.9344H40.1111V16.9344ZM34.9722 2.00039H34.8342V4.00039H34.9722V2.00039ZM40.5029 15.7408L35.9158 2.66927L34.0286 3.33152L38.6157 16.403L40.5029 15.7408ZM30.2126 17.0719H39.5593V15.0719H30.2126V17.0719ZM33.8914 2.66705L29.2698 15.7386L31.1554 16.4053L35.777 3.33373L33.8914 2.66705ZM84.1769 18.2672L86.8671 25.8894L88.7531 25.2237L86.0629 17.6015L84.1769 18.2672ZM74.6696 18.9344H85.1199V16.9344H74.6696V18.9344ZM72.9224 25.8894L75.6126 18.2672L73.7266 17.6015L71.0364 25.2237L72.9224 25.8894ZM69.8756 26.5565H71.9794V24.5565H69.8756V26.5565ZM77.6242 0.666349L68.9329 25.2229L70.8183 25.8902L79.5096 1.33365L77.6242 0.666349ZM81.2916 0H78.5669V2H81.2916V0ZM90.9597 25.2217L82.2339 0.665173L80.3493 1.33483L89.0752 25.8914L90.9597 25.2217ZM87.8101 26.5565H90.0174V24.5565H87.8101V26.5565ZM79.8085 4.00039H79.9465V2.00039H79.8085V4.00039ZM76.1297 16.4053L80.7513 3.33373L78.8657 2.66705L74.2441 15.7386L76.1297 16.4053ZM84.5336 15.0719H75.1869V17.0719H84.5336V15.0719ZM79.0029 3.33152L83.59 16.403L85.4772 15.7408L80.8901 2.66927L79.0029 3.33152ZM98.9501 25.5565V1H96.9501V25.5565H98.9501ZM110.884 24.5565H97.9501V26.5565H110.884V24.5565ZM109.884 23.6941V25.5565H111.884V23.6941H109.884ZM100.054 24.6941H110.884V22.6941H100.054V24.6941ZM99.0539 1V23.6941H101.054V1H99.0539ZM97.9501 2H100.054V0H97.9501V2ZM144.373 25.5565V2.86243H142.373V25.5565H144.373ZM141.269 26.5565H143.373V24.5565H141.269V26.5565ZM140.269 2.86243V25.5565H142.269V2.86243H140.269ZM133.026 3.86243H141.269V1.86243H133.026V3.86243ZM132.026 1V2.86243H134.026V1H132.026ZM151.616 0H133.026V2H151.616V0ZM152.616 2.86243V1H150.616V2.86243H152.616ZM143.373 3.86243H151.616V1.86243H143.373V3.86243ZM174.896 13.0026H161.411V15.0026H174.896V13.0026ZM175.896 25.5565V14.0026H173.896V25.5565H175.896ZM177 24.5565H174.896V26.5565H177V24.5565ZM176 1V25.5565H178V1H176ZM174.896 2H177V0H174.896V2ZM175.896 12.1401V1H173.896V12.1401H175.896ZM161.411 13.1401H174.896V11.1401H161.411V13.1401ZM160.411 1V12.1401H162.411V1H160.411ZM159.307 2H161.411V0H159.307V2ZM160.307 25.5565V1H158.307V25.5565H160.307ZM161.411 24.5565H159.307V26.5565H161.411V24.5565ZM160.411 14.0026V25.5565H162.411V14.0026H160.411ZM116.471 23.7976V25.5565H118.471V23.7976H116.471ZM121.058 22.7976H117.471V24.7976H121.058V22.7976ZM120.058 2.75897V23.7976H122.058V2.75897H120.058ZM117.471 3.75897H121.058V1.75897H117.471V3.75897ZM116.471 1V2.75897H118.471V1H116.471ZM126.749 0H117.471V2H126.749V0ZM127.749 2.75897V1H125.749V2.75897H127.749ZM123.162 3.75897H126.749V1.75897H123.162V3.75897ZM124.162 23.7976V2.75897H122.162V23.7976H124.162ZM126.749 22.7976H123.162V24.7976H126.749V22.7976ZM127.749 25.5565V23.7976H125.749V25.5565H127.749ZM117.471 26.5565H126.749V24.5565H117.471V26.5565ZM57.494 2.86243V25.5565H59.494V2.86243H57.494ZM66.737 1.86243H58.494V3.86243H66.737V1.86243ZM65.737 1V2.86243H67.737V1H65.737ZM48.1472 2H66.737V0H48.1472V2ZM49.1472 2.86243V1H47.1472V2.86243H49.1472ZM56.3902 1.86243H48.1472V3.86243H56.3902V1.86243ZM57.3902 25.5565V2.86243H55.3902V25.5565H57.3902ZM58.494 24.5565H56.3902V26.5565H58.494V24.5565Z" fill="#3801FF"/>
</svg>
