<svg width="46" height="24" viewBox="0 0 64 33" fill="none"
  xmlns="http://www.w3.org/2000/svg">
  <path d="M35.8182 30.3636H33.8182C33.8182 31.4682 34.7136 32.3636 35.8182 32.3636V30.3636ZM35.8182 2V0C34.7136 0 33.8182 0.895431 33.8182 2L35.8182 2ZM44.7311 30.3636V32.3636C45.3282 32.3636 45.8941 32.0969 46.274 31.6363L44.7311 30.3636ZM48.9091 25.2987L50.4519 24.0261C50.072 23.5655 49.5062 23.2987 48.9091 23.2987C48.312 23.2987 47.7462 23.5655 47.3663 24.0261L48.9091 25.2987ZM53.087 30.3636L51.5442 31.6363C51.9241 32.0969 52.49 32.3636 53.087 32.3636V30.3636ZM62 30.3636V32.3636C63.1046 32.3636 64 31.4682 64 30.3636L62 30.3636ZM62 2L64 2C64 1.46957 63.7893 0.960859 63.4142 0.585786C63.0391 0.210714 62.5304 0 62 0V2ZM53.087 2V0C52.49 0 51.9241 0.266757 51.5442 0.727346L53.087 2ZM48.9091 7.06493L47.3663 8.33759C47.7462 8.79817 48.312 9.06493 48.9091 9.06493C49.5062 9.06493 50.072 8.79817 50.4519 8.33759L48.9091 7.06493ZM44.7311 2L46.274 0.727346C45.8941 0.266757 45.3282 0 44.7311 0V2ZM37.8182 30.3636V2H33.8182V30.3636H37.8182ZM44.7311 28.3636H35.8182V32.3636H44.7311V28.3636ZM47.3663 24.0261L43.1883 29.091L46.274 31.6363L50.4519 26.5714L47.3663 24.0261ZM54.6299 29.091L50.4519 24.0261L47.3663 26.5714L51.5442 31.6363L54.6299 29.091ZM62 28.3636H53.087V32.3636H62V28.3636ZM60 2L60 30.3636L64 30.3636L64 2L60 2ZM53.087 4H62V0H53.087V4ZM50.4519 8.33759L54.6299 3.27265L51.5442 0.727346L47.3663 5.79228L50.4519 8.33759ZM43.1883 3.27265L47.3663 8.33759L50.4519 5.79228L46.274 0.727346L43.1883 3.27265ZM35.8182 4H44.7311V0H35.8182V4Z" fill="black"/>
  <path d="M13.8843 2C24.3951 2 28.1774 7.35491 28.1774 16.4722C28.3565 23.8576 23.121 30.1481 14.8797 30.0287H2V2H13.8843Z" stroke="black" stroke-width="4" stroke-linejoin="round"/>
</svg>
