<svg width="178" height="217" viewBox="0 0 178 217" fill="none" xmlns="http://www.w3.org/2000/svg">
<path fill-rule="evenodd" clip-rule="evenodd" d="M8.79463 191H1V215.557H8.79463C15.1062 215.557 18.7276 211.452 18.7276 203.278C18.7276 195.104 15.1062 191 8.79463 191ZM16.4858 204.899C16.4858 210.349 13.6921 213.694 8.86361 213.694H3.13835V192.862H8.86361C13.6577 192.862 16.4858 196.208 16.4858 201.657V204.899ZM40.1111 207.934L42.8013 215.557H45.0086L36.2828 191H33.5581L24.8668 215.557H26.9706L29.6608 207.934H40.1111ZM34.8342 193H34.9722L39.5593 206.072H30.2126L34.8342 193ZM87.8101 215.557L85.1199 207.934H74.6696L71.9794 215.557H69.8756L78.5669 191H81.2916L90.0174 215.557H87.8101ZM79.9465 193H79.8085L75.1869 206.072H84.5336L79.9465 193ZM97.9501 191V215.557H110.884V213.694H100.054V191H97.9501ZM143.373 192.862V215.557H141.269V192.862H133.026V191H151.616V192.862H143.373ZM161.411 204.003H174.896V215.557H177V191H174.896V202.14H161.411V191H159.307V215.557H161.411V204.003ZM117.471 215.557V213.798H121.058V192.759H117.471V191H126.749V192.759H123.162V213.798H126.749V215.557H117.471ZM58.494 215.557V192.862H66.737V191H48.1472V192.862H56.3902V215.557H58.494Z" fill="#3801FF"/>
<path d="M1 191V190C0.447715 190 0 190.448 0 191H1ZM1 215.557H0C0 216.109 0.447715 216.557 1 216.557L1 215.557ZM3.13835 213.694H2.13835C2.13835 214.246 2.58607 214.694 3.13835 214.694V213.694ZM3.13835 192.862V191.862C2.58607 191.862 2.13835 192.31 2.13835 192.862H3.13835ZM42.8013 215.557L41.8583 215.889C41.9994 216.289 42.3773 216.557 42.8013 216.557V215.557ZM40.1111 207.934L41.0541 207.602C40.913 207.202 40.5351 206.934 40.1111 206.934V207.934ZM45.0086 215.557V216.557C45.3335 216.557 45.6382 216.399 45.8256 216.133C46.013 215.868 46.0597 215.528 45.9509 215.222L45.0086 215.557ZM36.2828 191L37.2251 190.665C37.0834 190.266 36.706 190 36.2828 190V191ZM33.5581 191V190C33.1345 190 32.7568 190.267 32.6154 190.666L33.5581 191ZM24.8668 215.557L23.9241 215.223C23.8157 215.529 23.8627 215.869 24.0502 216.134C24.2376 216.399 24.5421 216.557 24.8668 216.557V215.557ZM26.9706 215.557V216.557C27.3946 216.557 27.7725 216.289 27.9136 215.889L26.9706 215.557ZM29.6608 207.934V206.934C29.2368 206.934 28.8589 207.202 28.7178 207.602L29.6608 207.934ZM34.9722 193L35.9158 192.669C35.7752 192.269 35.3968 192 34.9722 192V193ZM34.8342 193V192C34.4104 192 34.0327 192.268 33.8914 192.667L34.8342 193ZM39.5593 206.072V207.072C39.8835 207.072 40.1876 206.915 40.3751 206.65C40.5626 206.386 40.6102 206.047 40.5029 205.741L39.5593 206.072ZM30.2126 206.072L29.2698 205.739C29.1616 206.045 29.2087 206.384 29.3961 206.649C29.5836 206.914 29.888 207.072 30.2126 207.072V206.072ZM85.1199 207.934L86.0629 207.602C85.9218 207.202 85.5439 206.934 85.1199 206.934V207.934ZM87.8101 215.557L86.8671 215.889C87.0082 216.289 87.3861 216.557 87.8101 216.557V215.557ZM74.6696 207.934V206.934C74.2456 206.934 73.8677 207.202 73.7266 207.602L74.6696 207.934ZM71.9794 215.557V216.557C72.4034 216.557 72.7813 216.289 72.9224 215.889L71.9794 215.557ZM69.8756 215.557L68.9329 215.223C68.8245 215.529 68.8715 215.869 69.059 216.134C69.2464 216.399 69.5509 216.557 69.8756 216.557V215.557ZM78.5669 191V190C78.1433 190 77.7656 190.267 77.6242 190.666L78.5669 191ZM81.2916 191L82.2339 190.665C82.0922 190.266 81.7148 190 81.2916 190V191ZM90.0174 215.557V216.557C90.3424 216.557 90.647 216.399 90.8344 216.133C91.0218 215.868 91.0685 215.528 90.9597 215.222L90.0174 215.557ZM79.8085 193V192C79.3848 192 79.007 192.268 78.8657 192.667L79.8085 193ZM79.9465 193L80.8901 192.669C80.7495 192.269 80.3711 192 79.9465 192V193ZM75.1869 206.072L74.2441 205.739C74.1359 206.045 74.183 206.384 74.3704 206.649C74.5579 206.914 74.8623 207.072 75.1869 207.072V206.072ZM84.5336 206.072V207.072C84.8578 207.072 85.1619 206.915 85.3494 206.65C85.5369 206.386 85.5845 206.047 85.4772 205.741L84.5336 206.072ZM97.9501 215.557H96.9501C96.9501 216.109 97.3978 216.557 97.9501 216.557V215.557ZM97.9501 191V190C97.3978 190 96.9501 190.448 96.9501 191H97.9501ZM110.884 215.557V216.557C111.436 216.557 111.884 216.109 111.884 215.557H110.884ZM110.884 213.694H111.884C111.884 213.142 111.436 212.694 110.884 212.694V213.694ZM100.054 213.694H99.0539C99.0539 214.246 99.5016 214.694 100.054 214.694V213.694ZM100.054 191H101.054C101.054 190.448 100.606 190 100.054 190V191ZM143.373 215.557V216.557C143.925 216.557 144.373 216.109 144.373 215.557H143.373ZM143.373 192.862V191.862C142.82 191.862 142.373 192.31 142.373 192.862H143.373ZM141.269 215.557H140.269C140.269 216.109 140.717 216.557 141.269 216.557V215.557ZM141.269 192.862H142.269C142.269 192.31 141.821 191.862 141.269 191.862V192.862ZM133.026 192.862H132.026C132.026 193.415 132.474 193.862 133.026 193.862V192.862ZM133.026 191V190C132.474 190 132.026 190.448 132.026 191H133.026ZM151.616 191H152.616C152.616 190.448 152.168 190 151.616 190V191ZM151.616 192.862V193.862C152.168 193.862 152.616 193.415 152.616 192.862H151.616ZM174.896 204.003H175.896C175.896 203.45 175.448 203.003 174.896 203.003V204.003ZM161.411 204.003V203.003C160.858 203.003 160.411 203.45 160.411 204.003H161.411ZM174.896 215.557H173.896C173.896 216.109 174.344 216.557 174.896 216.557V215.557ZM177 215.557V216.557C177.552 216.557 178 216.109 178 215.557H177ZM177 191H178C178 190.448 177.552 190 177 190V191ZM174.896 191V190C174.344 190 173.896 190.448 173.896 191H174.896ZM174.896 202.14V203.14C175.448 203.14 175.896 202.692 175.896 202.14H174.896ZM161.411 202.14H160.411C160.411 202.692 160.858 203.14 161.411 203.14V202.14ZM161.411 191H162.411C162.411 190.448 161.963 190 161.411 190V191ZM159.307 191V190C158.755 190 158.307 190.448 158.307 191H159.307ZM159.307 215.557H158.307C158.307 216.109 158.755 216.557 159.307 216.557V215.557ZM161.411 215.557V216.557C161.963 216.557 162.411 216.109 162.411 215.557H161.411ZM117.471 213.798V212.798C116.919 212.798 116.471 213.245 116.471 213.798H117.471ZM117.471 215.557H116.471C116.471 216.109 116.919 216.557 117.471 216.557V215.557ZM121.058 213.798V214.798C121.61 214.798 122.058 214.35 122.058 213.798H121.058ZM121.058 192.759H122.058C122.058 192.207 121.61 191.759 121.058 191.759V192.759ZM117.471 192.759H116.471C116.471 193.311 116.919 193.759 117.471 193.759V192.759ZM117.471 191V190C116.919 190 116.471 190.448 116.471 191H117.471ZM126.749 191H127.749C127.749 190.448 127.301 190 126.749 190V191ZM126.749 192.759V193.759C127.301 193.759 127.749 193.311 127.749 192.759H126.749ZM123.162 192.759V191.759C122.61 191.759 122.162 192.207 122.162 192.759H123.162ZM123.162 213.798H122.162C122.162 214.35 122.61 214.798 123.162 214.798V213.798ZM126.749 213.798H127.749C127.749 213.245 127.301 212.798 126.749 212.798V213.798ZM126.749 215.557V216.557C127.301 216.557 127.749 216.109 127.749 215.557H126.749ZM58.494 192.862V191.862C57.9417 191.862 57.494 192.31 57.494 192.862H58.494ZM58.494 215.557V216.557C59.0463 216.557 59.494 216.109 59.494 215.557H58.494ZM66.737 192.862V193.862C67.2893 193.862 67.737 193.415 67.737 192.862H66.737ZM66.737 191H67.737C67.737 190.448 67.2893 190 66.737 190V191ZM48.1472 191V190C47.5949 190 47.1472 190.448 47.1472 191H48.1472ZM48.1472 192.862H47.1472C47.1472 193.415 47.5949 193.862 48.1472 193.862V192.862ZM56.3902 192.862H57.3902C57.3902 192.31 56.9424 191.862 56.3902 191.862V192.862ZM56.3902 215.557H55.3902C55.3902 216.109 55.8379 216.557 56.3902 216.557V215.557ZM1 192H8.79463V190H1V192ZM2 215.557V191H0V215.557H2ZM8.79463 214.557H1V216.557H8.79463V214.557ZM17.7276 203.278C17.7276 207.237 16.8483 210.043 15.3575 211.845C13.8927 213.616 11.7205 214.557 8.79463 214.557V216.557C12.1803 216.557 14.9746 215.445 16.8984 213.12C18.7963 210.826 19.7276 207.494 19.7276 203.278H17.7276ZM8.79463 192C11.7205 192 13.8927 192.941 15.3575 194.711C16.8483 196.513 17.7276 199.32 17.7276 203.278H19.7276C19.7276 199.063 18.7963 195.73 16.8984 193.436C14.9746 191.111 12.1803 190 8.79463 190V192ZM8.86361 214.694C11.5242 214.694 13.7247 213.763 15.2444 211.991C16.7464 210.241 17.4858 207.784 17.4858 204.899H15.4858C15.4858 207.464 14.8283 209.405 13.7264 210.689C12.6422 211.953 11.0315 212.694 8.86361 212.694V214.694ZM3.13835 214.694H8.86361V212.694H3.13835V214.694ZM2.13835 192.862V213.694H4.13835V192.862H2.13835ZM8.86361 191.862H3.13835V193.862H8.86361V191.862ZM17.4858 201.657C17.4858 198.77 16.7364 196.314 15.2304 194.564C13.7076 192.795 11.5087 191.862 8.86361 191.862V193.862C11.0126 193.862 12.6247 194.603 13.7146 195.869C14.8212 197.154 15.4858 199.096 15.4858 201.657H17.4858ZM17.4858 204.899V201.657H15.4858V204.899H17.4858ZM43.7443 215.224L41.0541 207.602L39.1681 208.267L41.8583 215.889L43.7443 215.224ZM45.0086 214.557H42.8013V216.557H45.0086V214.557ZM35.3405 191.335L44.0663 215.891L45.9509 215.222L37.2251 190.665L35.3405 191.335ZM33.5581 192H36.2828V190H33.5581V192ZM25.8094 215.89L34.5008 191.334L32.6154 190.666L23.9241 215.223L25.8094 215.89ZM26.9706 214.557H24.8668V216.557H26.9706V214.557ZM28.7178 207.602L26.0276 215.224L27.9136 215.889L30.6038 208.267L28.7178 207.602ZM40.1111 206.934H29.6608V208.934H40.1111V206.934ZM34.9722 192H34.8342V194H34.9722V192ZM40.5029 205.741L35.9158 192.669L34.0286 193.332L38.6157 206.403L40.5029 205.741ZM30.2126 207.072H39.5593V205.072H30.2126V207.072ZM33.8914 192.667L29.2698 205.739L31.1554 206.405L35.777 193.334L33.8914 192.667ZM84.1769 208.267L86.8671 215.889L88.7531 215.224L86.0629 207.602L84.1769 208.267ZM74.6696 208.934H85.1199V206.934H74.6696V208.934ZM72.9224 215.889L75.6126 208.267L73.7266 207.602L71.0364 215.224L72.9224 215.889ZM69.8756 216.557H71.9794V214.557H69.8756V216.557ZM77.6242 190.666L68.9329 215.223L70.8183 215.89L79.5096 191.334L77.6242 190.666ZM81.2916 190H78.5669V192H81.2916V190ZM90.9597 215.222L82.2339 190.665L80.3493 191.335L89.0752 215.891L90.9597 215.222ZM87.8101 216.557H90.0174V214.557H87.8101V216.557ZM79.8085 194H79.9465V192H79.8085V194ZM76.1297 206.405L80.7513 193.334L78.8657 192.667L74.2441 205.739L76.1297 206.405ZM84.5336 205.072H75.1869V207.072H84.5336V205.072ZM79.0029 193.332L83.59 206.403L85.4772 205.741L80.8901 192.669L79.0029 193.332ZM98.9501 215.557V191H96.9501V215.557H98.9501ZM110.884 214.557H97.9501V216.557H110.884V214.557ZM109.884 213.694V215.557H111.884V213.694H109.884ZM100.054 214.694H110.884V212.694H100.054V214.694ZM99.0539 191V213.694H101.054V191H99.0539ZM97.9501 192H100.054V190H97.9501V192ZM144.373 215.557V192.862H142.373V215.557H144.373ZM141.269 216.557H143.373V214.557H141.269V216.557ZM140.269 192.862V215.557H142.269V192.862H140.269ZM133.026 193.862H141.269V191.862H133.026V193.862ZM132.026 191V192.862H134.026V191H132.026ZM151.616 190H133.026V192H151.616V190ZM152.616 192.862V191H150.616V192.862H152.616ZM143.373 193.862H151.616V191.862H143.373V193.862ZM174.896 203.003H161.411V205.003H174.896V203.003ZM175.896 215.557V204.003H173.896V215.557H175.896ZM177 214.557H174.896V216.557H177V214.557ZM176 191V215.557H178V191H176ZM174.896 192H177V190H174.896V192ZM175.896 202.14V191H173.896V202.14H175.896ZM161.411 203.14H174.896V201.14H161.411V203.14ZM160.411 191V202.14H162.411V191H160.411ZM159.307 192H161.411V190H159.307V192ZM160.307 215.557V191H158.307V215.557H160.307ZM161.411 214.557H159.307V216.557H161.411V214.557ZM160.411 204.003V215.557H162.411V204.003H160.411ZM116.471 213.798V215.557H118.471V213.798H116.471ZM121.058 212.798H117.471V214.798H121.058V212.798ZM120.058 192.759V213.798H122.058V192.759H120.058ZM117.471 193.759H121.058V191.759H117.471V193.759ZM116.471 191V192.759H118.471V191H116.471ZM126.749 190H117.471V192H126.749V190ZM127.749 192.759V191H125.749V192.759H127.749ZM123.162 193.759H126.749V191.759H123.162V193.759ZM124.162 213.798V192.759H122.162V213.798H124.162ZM126.749 212.798H123.162V214.798H126.749V212.798ZM127.749 215.557V213.798H125.749V215.557H127.749ZM117.471 216.557H126.749V214.557H117.471V216.557ZM57.494 192.862V215.557H59.494V192.862H57.494ZM66.737 191.862H58.494V193.862H66.737V191.862ZM65.737 191V192.862H67.737V191H65.737ZM48.1472 192H66.737V190H48.1472V192ZM49.1472 192.862V191H47.1472V192.862H49.1472ZM56.3902 191.862H48.1472V193.862H56.3902V191.862ZM57.3902 215.557V192.862H55.3902V215.557H57.3902ZM58.494 214.557H56.3902V216.557H58.494V214.557Z" fill="#3801FF"/>
<path d="M89.5913 8L162 116.948L89.5913 153.244L17 116.948L89.5913 8Z" fill="url(#paint0_linear)" stroke="url(#paint1_linear)" stroke-width="15" stroke-miterlimit="10" stroke-linecap="round" stroke-linejoin="round"/>
<defs>
<linearGradient id="paint0_linear" x1="89.5" y1="8" x2="89.5" y2="153.244" gradientUnits="userSpaceOnUse">
<stop stop-color="#FF00C7"/>
<stop offset="1" stop-color="#3800FF"/>
</linearGradient>
<linearGradient id="paint1_linear" x1="89.5" y1="8" x2="89.5" y2="153.244" gradientUnits="userSpaceOnUse">
<stop stop-color="#FF00C7"/>
<stop offset="1" stop-color="#3800FF"/>
</linearGradient>
</defs>
</svg>
