<svg width="186" height="226" viewBox="0 0 186 226" fill="none"
  xmlns="http://www.w3.org/2000/svg">
  <path d="M25 224.462V206L41.9231 215.231L25 224.462Z" fill="#1d2936" stroke="#1d2936" stroke-width="2" stroke-linecap="round" stroke-linejoin="round"/>
  <path d="M61.9231 224.462L43.4615 224.462L52.6923 206L61.9231 224.462Z" fill="#1d2936" stroke="#1d2936" stroke-width="2" stroke-linecap="round" stroke-linejoin="round"/>
  <path d="M98.8462 224.462L80.3846 224.462L89.6154 206L98.8462 224.462Z" fill="#1d2936" stroke="#1d2936" stroke-width="2" stroke-linecap="round" stroke-linejoin="round"/>
  <path d="M61.9231 206L80.3846 206L71.1538 224.462L61.9231 206Z" fill="#1d2936" stroke="#1d2936" stroke-width="2" stroke-linecap="round" stroke-linejoin="round"/>
  <path d="M143.462 206L161.923 206L152.692 224.462L143.462 206Z" fill="#1d2936" stroke="#1d2936" stroke-width="2" stroke-linecap="round" stroke-linejoin="round"/>
  <path fill-rule="evenodd" clip-rule="evenodd" d="M114.231 215.231L105 206V224.462L123.462 224.462L114.231 215.231Z" fill="#1d2936"/>
  <path d="M114.231 215.231L113.524 215.938L114.231 215.231ZM105 206L105.707 205.293C105.421 205.007 104.991 204.921 104.617 205.076C104.244 205.231 104 205.596 104 206H105ZM105 224.462H104C104 224.727 104.105 224.981 104.293 225.169C104.48 225.356 104.735 225.462 105 225.462L105 224.462ZM123.462 224.462V225.462C123.866 225.462 124.231 225.218 124.385 224.844C124.54 224.471 124.455 224.04 124.169 223.754L123.462 224.462ZM114.938 214.524L105.707 205.293L104.293 206.707L113.524 215.938L114.938 214.524ZM104 206V224.462H106V206H104ZM105 225.462L123.462 225.462V223.462L105 223.462L105 225.462ZM124.169 223.754L114.938 214.524L113.524 215.938L122.754 225.169L124.169 223.754Z" fill="#1d2936"/>
  <path fill-rule="evenodd" clip-rule="evenodd" d="M185 215.231L185 206L176.538 210.615L168.077 206V224.462L176.538 219.846L185 224.462L185 215.231Z" fill="#1d2936"/>
  <path d="M185 206L186 206C186 205.647 185.814 205.32 185.51 205.14C185.207 204.96 184.831 204.953 184.521 205.122L185 206ZM185 215.231H184H185ZM176.538 210.615L176.06 211.493C176.358 211.656 176.719 211.656 177.017 211.493L176.538 210.615ZM168.077 206L168.556 205.122C168.246 204.953 167.87 204.96 167.566 205.14C167.263 205.32 167.077 205.647 167.077 206H168.077ZM168.077 224.462H167.077C167.077 224.814 167.263 225.141 167.566 225.321C167.87 225.502 168.246 225.508 168.556 225.339L168.077 224.462ZM176.538 219.846L177.017 218.968C176.719 218.805 176.358 218.805 176.06 218.968L176.538 219.846ZM185 224.462L184.521 225.339C184.831 225.508 185.207 225.502 185.51 225.321C185.814 225.141 186 224.814 186 224.462H185ZM184 206L184 215.231H186L186 206L184 206ZM177.017 211.493L185.479 206.878L184.521 205.122L176.06 209.737L177.017 211.493ZM167.598 206.878L176.06 211.493L177.017 209.737L168.556 205.122L167.598 206.878ZM169.077 224.462V206H167.077V224.462H169.077ZM176.06 218.968L167.598 223.584L168.556 225.339L177.017 220.724L176.06 218.968ZM185.479 223.584L177.017 218.968L176.06 220.724L184.521 225.339L185.479 223.584ZM184 215.231L184 224.462H186L186 215.231H184Z" fill="#1d2936"/>
  <path d="M129.615 206H137.308V224.462H129.615V206Z" fill="#1d2936" stroke="#1d2936" stroke-width="2" stroke-linecap="round" stroke-linejoin="round"/>
  <path fill-rule="evenodd" clip-rule="evenodd" d="M0.5 225.5L17.5283 113.125C17.6478 112.338 18.1348 111.655 18.84 111.285L28.1329 106.418L37.5102 2.77473C37.5835 1.96434 38.0466 1.24033 38.7516 0.834C39.4566 0.427673 40.3152 0.389877 41.0532 0.732681L118.553 36.7327C119.355 37.105 119.9 37.8729 119.988 38.7524L130.374 143.106L140.928 150.448C141.413 150.785 141.763 151.284 141.915 151.855L153.5 189H148.5L137.321 154.03L126.572 146.552C125.972 146.135 125.585 145.475 125.512 144.748L115.154 40.6666L42.1696 6.76437L32.9898 108.225C32.9133 109.071 32.4124 109.82 31.66 110.215L22.2817 115.127L5.5 225.5H0.5Z" fill="#1d2936"/>
</svg>
