<svg width="106" height="14" viewBox="0 0 106 14" fill="none" xmlns="http://www.w3.org/2000/svg">
<path d="M1 12.6V0.600008L12 6.60001L1 12.6Z" fill="#1D2936" stroke="#1D2936" stroke-linecap="round" stroke-linejoin="round"/>
<path d="M25 12.6L13 12.6L19 0.600003L25 12.6Z" fill="#1D2936" stroke="#1D2936" stroke-linecap="round" stroke-linejoin="round"/>
<path d="M49 12.6L37 12.6L43 0.600003L49 12.6Z" fill="#1D2936" stroke="#1D2936" stroke-linecap="round" stroke-linejoin="round"/>
<path d="M25 0.600008L37 0.600008L31 12.6L25 0.600008Z" fill="#1D2936" stroke="#1D2936" stroke-linecap="round" stroke-linejoin="round"/>
<path d="M78 0.600008L90 0.600008L84 12.6L78 0.600008Z" fill="#1D2936" stroke="#1D2936" stroke-linecap="round" stroke-linejoin="round"/>
<path fill-rule="evenodd" clip-rule="evenodd" d="M59 6.60001L53 0.600008V12.6L65 12.6L59 6.60001Z" fill="#1D2936"/>
<path d="M53 0.600008L53.3536 0.246455C53.2106 0.103456 52.9955 0.0606778 52.8087 0.138068C52.6218 0.215459 52.5 0.397777 52.5 0.600008L53 0.600008ZM59 6.60001L58.6464 6.95356V6.95356L59 6.60001ZM53 12.6H52.5C52.5 12.7326 52.5527 12.8598 52.6464 12.9536C52.7402 13.0473 52.8674 13.1 53 13.1L53 12.6ZM65 12.6V13.1C65.2022 13.1 65.3845 12.9782 65.4619 12.7913C65.5393 12.6045 65.4966 12.3894 65.3536 12.2464L65 12.6ZM52.6464 0.953561L58.6464 6.95356L59.3536 6.24646L53.3536 0.246455L52.6464 0.953561ZM53.5 12.6V0.600008H52.5V12.6H53.5ZM65 12.1L53 12.1L53 13.1L65 13.1V12.1ZM58.6464 6.95356L64.6464 12.9536L65.3536 12.2464L59.3536 6.24646L58.6464 6.95356Z" fill="#1D2936"/>
<path fill-rule="evenodd" clip-rule="evenodd" d="M99.5 9.60001L105 12.6V6.60002L105 0.600008L99.5 3.60001L94 0.600018V6.60001V12.6L99.5 9.60001Z" fill="#1D2936"/>
<path d="M105 12.6L104.761 13.039C104.915 13.1235 105.103 13.12 105.255 13.03C105.407 12.9399 105.5 12.7765 105.5 12.6H105ZM99.5 9.60001L99.7394 9.16107C99.5902 9.07966 99.4098 9.07966 99.2606 9.16107L99.5 9.60001ZM105 6.60002H105.5H105ZM105 0.600008L105.5 0.600008C105.5 0.423539 105.407 0.260139 105.255 0.170059C105.103 0.0799777 104.915 0.0765579 104.761 0.16106L105 0.600008ZM99.5 3.60001L99.2606 4.03896C99.4098 4.12036 99.5902 4.12036 99.7394 4.03896L99.5 3.60001ZM94 0.600018L94.2394 0.16107C94.0845 0.0765675 93.8965 0.0799872 93.7448 0.170068C93.593 0.260149 93.5 0.423549 93.5 0.600018H94ZM94 12.6H93.5C93.5 12.7765 93.593 12.9399 93.7448 13.03C93.8965 13.12 94.0845 13.1235 94.2394 13.039L94 12.6ZM105.239 12.1611L99.7394 9.16107L99.2606 10.039L104.761 13.039L105.239 12.1611ZM104.5 6.60002V12.6H105.5V6.60002H104.5ZM104.5 0.600008L104.5 6.60002H105.5L105.5 0.600008L104.5 0.600008ZM99.7394 4.03896L105.239 1.03896L104.761 0.16106L99.2606 3.16107L99.7394 4.03896ZM93.7606 1.03897L99.2606 4.03896L99.7394 3.16107L94.2394 0.16107L93.7606 1.03897ZM94.5 6.60001V0.600018H93.5V6.60001H94.5ZM94.5 12.6V6.60001H93.5V12.6H94.5ZM99.2606 9.16107L93.7606 12.1611L94.2394 13.039L99.7394 10.039L99.2606 9.16107Z" fill="#1D2936"/>
<path d="M69 0.600008H74V12.6H69V0.600008Z" fill="#1D2936" stroke="#1D2936" stroke-linecap="round" stroke-linejoin="round"/>
</svg>
