<?xml version="1.0" encoding="utf-8"?>
<!-- Generator: Adobe Illustrator 21.1.0, SVG Export Plug-In . SVG Version: 6.00 Build 0)  -->
<svg version="1.1" id="Layer_1" xmlns="http://www.w3.org/2000/svg" xmlns:xlink="http://www.w3.org/1999/xlink" x="0px" y="0px"
	 viewBox="0 0 645 246.9" style="enable-background:new 0 0 645 246.9;" xml:space="preserve">
<style type="text/css">
	.st0{fill:none;stroke:#FFFFFF;stroke-width:5;stroke-miterlimit:10;}
	.st1{fill:#FFFFFF;}
</style>
<g>
	<path class="st0" d="M322.7,5l118.9,178.9l-118.9,59.6l-119.2-59.6L322.7,5z"/>
</g>
<g>
	<path class="st1" d="M67.4,88.7H90c18.3,0,28.8,11.9,28.8,35.6s-10.5,35.6-28.8,35.6H67.4V88.7z M90.2,154.5
		c14,0,22.1-9.7,22.1-25.5v-9.4c0-15.8-8.2-25.5-22.1-25.5H73.6v60.4H90.2L90.2,154.5z"/>
	<path class="st1" d="M188.6,159.9l-7.8-22.1h-30.3l-7.8,22.1h-6.1l25.2-71.2h7.9l25.3,71.2H188.6z M165.9,94.5h-0.4l-13.4,37.9
		h27.1L165.9,94.5z"/>
	<path class="st1" d="M234.1,94.1v65.8h-6.1V94.1h-23.9v-5.4H258v5.4H234.1z"/>
	<path class="st1" d="M319,159.9l-7.8-22.1H281l-7.8,22.1H267l25.2-71.2h7.9l25.3,71.2H319z M296.2,94.5h-0.4l-13.4,37.9h27.1
		L296.2,94.5z"/>
	<path class="st1" d="M348.5,159.9V88.7h6.1v65.8H386v5.4H348.5z"/>
	<path class="st1" d="M405.1,159.9v-5.1h10.4v-61h-10.4v-5.1H432v5.1h-10.4v61H432v5.1H405.1z"/>
	<path class="st1" d="M480.1,94.1v65.8H474V94.1h-23.9v-5.4H504v5.4H480.1z"/>
	<path class="st1" d="M571.6,126.4h-39.1v33.5h-6.1V88.7h6.1V121h39.1V88.7h6.1v71.2h-6.1V126.4z"/>
</g>
</svg>
