<svg width="178" height="247" viewBox="0 0 178 247" fill="none" xmlns="http://www.w3.org/2000/svg">
<g clip-path="url(#clip0)">
<path d="M88.9656 6L170.725 129.017L88.9656 170L6.99997 129.017L88.9656 6Z" stroke="url(#paint0_linear)" stroke-width="12" stroke-miterlimit="10" stroke-linecap="round" stroke-linejoin="round"/>
</g>
<path fill-rule="evenodd" clip-rule="evenodd" d="M8.79463 221.443H1V246H8.79463C15.1062 246 18.7276 241.896 18.7276 233.722C18.7276 225.548 15.1062 221.443 8.79463 221.443ZM16.4858 235.343C16.4858 240.792 13.6921 244.138 8.86361 244.138H3.13835V223.306H8.86361C13.6577 223.306 16.4858 226.651 16.4858 232.101V235.343ZM40.1111 238.378L42.8013 246H45.0086L36.2828 221.443H33.5581L24.8668 246H26.9706L29.6608 238.378H40.1111ZM34.8342 223.444H34.9722L39.5593 236.515H30.2126L34.8342 223.444ZM87.8101 246L85.1199 238.378H74.6696L71.9794 246H69.8756L78.5669 221.443H81.2916L90.0174 246H87.8101ZM79.9465 223.444H79.8085L75.1869 236.515H84.5336L79.9465 223.444ZM97.9501 221.443V246H110.884V244.138H100.054V221.443H97.9501ZM143.373 223.306V246H141.269V223.306H133.026V221.443H151.616V223.306H143.373ZM161.411 234.446H174.896V246H177V221.443H174.896V232.584H161.411V221.443H159.307V246H161.411V234.446ZM117.471 246V244.241H121.058V223.202H117.471V221.443H126.749V223.202H123.162V244.241H126.749V246H117.471ZM58.494 246V223.306H66.737V221.443H48.1472V223.306H56.3902V246H58.494Z" fill="#0A444F"/>
<path d="M1 221.443V220.443C0.447715 220.443 0 220.891 0 221.443H1ZM1 246H0C0 246.552 0.447715 247 1 247L1 246ZM3.13835 244.138H2.13835C2.13835 244.69 2.58607 245.138 3.13835 245.138V244.138ZM3.13835 223.306V222.306C2.58607 222.306 2.13835 222.754 2.13835 223.306H3.13835ZM42.8013 246L41.8583 246.333C41.9994 246.733 42.3773 247 42.8013 247V246ZM40.1111 238.378L41.0541 238.045C40.913 237.645 40.5351 237.378 40.1111 237.378V238.378ZM45.0086 246V247C45.3335 247 45.6382 246.842 45.8256 246.577C46.013 246.311 46.0597 245.971 45.9509 245.665L45.0086 246ZM36.2828 221.443L37.2251 221.109C37.0834 220.71 36.706 220.443 36.2828 220.443V221.443ZM33.5581 221.443V220.443C33.1345 220.443 32.7568 220.71 32.6154 221.11L33.5581 221.443ZM24.8668 246L23.9241 245.666C23.8157 245.972 23.8627 246.312 24.0502 246.577C24.2376 246.842 24.5421 247 24.8668 247V246ZM26.9706 246V247C27.3946 247 27.7725 246.733 27.9136 246.333L26.9706 246ZM29.6608 238.378V237.378C29.2368 237.378 28.8589 237.645 28.7178 238.045L29.6608 238.378ZM34.9722 223.444L35.9158 223.113C35.7752 222.712 35.3968 222.444 34.9722 222.444V223.444ZM34.8342 223.444V222.444C34.4104 222.444 34.0327 222.711 33.8914 223.111L34.8342 223.444ZM39.5593 236.515V237.515C39.8835 237.515 40.1876 237.358 40.3751 237.094C40.5626 236.829 40.6102 236.49 40.5029 236.184L39.5593 236.515ZM30.2126 236.515L29.2698 236.182C29.1616 236.488 29.2087 236.828 29.3961 237.093C29.5836 237.358 29.888 237.515 30.2126 237.515V236.515ZM85.1199 238.378L86.0629 238.045C85.9218 237.645 85.5439 237.378 85.1199 237.378V238.378ZM87.8101 246L86.8671 246.333C87.0082 246.733 87.3861 247 87.8101 247V246ZM74.6696 238.378V237.378C74.2456 237.378 73.8677 237.645 73.7266 238.045L74.6696 238.378ZM71.9794 246V247C72.4034 247 72.7813 246.733 72.9224 246.333L71.9794 246ZM69.8756 246L68.9329 245.666C68.8245 245.972 68.8715 246.312 69.059 246.577C69.2464 246.842 69.5509 247 69.8756 247V246ZM78.5669 221.443V220.443C78.1433 220.443 77.7656 220.71 77.6242 221.11L78.5669 221.443ZM81.2916 221.443L82.2339 221.109C82.0922 220.71 81.7148 220.443 81.2916 220.443V221.443ZM90.0174 246V247C90.3424 247 90.647 246.842 90.8344 246.577C91.0218 246.311 91.0685 245.971 90.9597 245.665L90.0174 246ZM79.8085 223.444V222.444C79.3848 222.444 79.007 222.711 78.8657 223.111L79.8085 223.444ZM79.9465 223.444L80.8901 223.113C80.7495 222.712 80.3711 222.444 79.9465 222.444V223.444ZM75.1869 236.515L74.2441 236.182C74.1359 236.488 74.183 236.828 74.3704 237.093C74.5579 237.358 74.8623 237.515 75.1869 237.515V236.515ZM84.5336 236.515V237.515C84.8578 237.515 85.1619 237.358 85.3494 237.094C85.5369 236.829 85.5845 236.49 85.4772 236.184L84.5336 236.515ZM97.9501 246H96.9501C96.9501 246.552 97.3978 247 97.9501 247V246ZM97.9501 221.443V220.443C97.3978 220.443 96.9501 220.891 96.9501 221.443H97.9501ZM110.884 246V247C111.436 247 111.884 246.552 111.884 246H110.884ZM110.884 244.138H111.884C111.884 243.585 111.436 243.138 110.884 243.138V244.138ZM100.054 244.138H99.0539C99.0539 244.69 99.5016 245.138 100.054 245.138V244.138ZM100.054 221.443H101.054C101.054 220.891 100.606 220.443 100.054 220.443V221.443ZM143.373 246V247C143.925 247 144.373 246.552 144.373 246H143.373ZM143.373 223.306V222.306C142.82 222.306 142.373 222.754 142.373 223.306H143.373ZM141.269 246H140.269C140.269 246.552 140.717 247 141.269 247V246ZM141.269 223.306H142.269C142.269 222.754 141.821 222.306 141.269 222.306V223.306ZM133.026 223.306H132.026C132.026 223.858 132.474 224.306 133.026 224.306V223.306ZM133.026 221.443V220.443C132.474 220.443 132.026 220.891 132.026 221.443H133.026ZM151.616 221.443H152.616C152.616 220.891 152.168 220.443 151.616 220.443V221.443ZM151.616 223.306V224.306C152.168 224.306 152.616 223.858 152.616 223.306H151.616ZM174.896 234.446H175.896C175.896 233.894 175.448 233.446 174.896 233.446V234.446ZM161.411 234.446V233.446C160.858 233.446 160.411 233.894 160.411 234.446H161.411ZM174.896 246H173.896C173.896 246.552 174.344 247 174.896 247V246ZM177 246V247C177.552 247 178 246.552 178 246H177ZM177 221.443H178C178 220.891 177.552 220.443 177 220.443V221.443ZM174.896 221.443V220.443C174.344 220.443 173.896 220.891 173.896 221.443H174.896ZM174.896 232.584V233.584C175.448 233.584 175.896 233.136 175.896 232.584H174.896ZM161.411 232.584H160.411C160.411 233.136 160.858 233.584 161.411 233.584V232.584ZM161.411 221.443H162.411C162.411 220.891 161.963 220.443 161.411 220.443V221.443ZM159.307 221.443V220.443C158.755 220.443 158.307 220.891 158.307 221.443H159.307ZM159.307 246H158.307C158.307 246.552 158.755 247 159.307 247V246ZM161.411 246V247C161.963 247 162.411 246.552 162.411 246H161.411ZM117.471 244.241V243.241C116.919 243.241 116.471 243.689 116.471 244.241H117.471ZM117.471 246H116.471C116.471 246.552 116.919 247 117.471 247V246ZM121.058 244.241V245.241C121.61 245.241 122.058 244.793 122.058 244.241H121.058ZM121.058 223.202H122.058C122.058 222.65 121.61 222.202 121.058 222.202V223.202ZM117.471 223.202H116.471C116.471 223.755 116.919 224.202 117.471 224.202V223.202ZM117.471 221.443V220.443C116.919 220.443 116.471 220.891 116.471 221.443H117.471ZM126.749 221.443H127.749C127.749 220.891 127.301 220.443 126.749 220.443V221.443ZM126.749 223.202V224.202C127.301 224.202 127.749 223.755 127.749 223.202H126.749ZM123.162 223.202V222.202C122.61 222.202 122.162 222.65 122.162 223.202H123.162ZM123.162 244.241H122.162C122.162 244.793 122.61 245.241 123.162 245.241V244.241ZM126.749 244.241H127.749C127.749 243.689 127.301 243.241 126.749 243.241V244.241ZM126.749 246V247C127.301 247 127.749 246.552 127.749 246H126.749ZM58.494 223.306V222.306C57.9417 222.306 57.494 222.754 57.494 223.306H58.494ZM58.494 246V247C59.0463 247 59.494 246.552 59.494 246H58.494ZM66.737 223.306V224.306C67.2893 224.306 67.737 223.858 67.737 223.306H66.737ZM66.737 221.443H67.737C67.737 220.891 67.2893 220.443 66.737 220.443V221.443ZM48.1472 221.443V220.443C47.5949 220.443 47.1472 220.891 47.1472 221.443H48.1472ZM48.1472 223.306H47.1472C47.1472 223.858 47.5949 224.306 48.1472 224.306V223.306ZM56.3902 223.306H57.3902C57.3902 222.754 56.9424 222.306 56.3902 222.306V223.306ZM56.3902 246H55.3902C55.3902 246.552 55.8379 247 56.3902 247V246ZM1 222.443H8.79463V220.443H1V222.443ZM2 246V221.443H0V246H2ZM8.79463 245H1V247H8.79463V245ZM17.7276 233.722C17.7276 237.68 16.8483 240.487 15.3575 242.289C13.8927 244.059 11.7205 245 8.79463 245V247C12.1803 247 14.9746 245.889 16.8984 243.564C18.7963 241.27 19.7276 237.937 19.7276 233.722H17.7276ZM8.79463 222.443C11.7205 222.443 13.8927 223.384 15.3575 225.155C16.8483 226.957 17.7276 229.763 17.7276 233.722H19.7276C19.7276 229.506 18.7963 226.174 16.8984 223.88C14.9746 221.555 12.1803 220.443 8.79463 220.443V222.443ZM8.86361 245.138C11.5242 245.138 13.7247 244.206 15.2444 242.435C16.7464 240.684 17.4858 238.228 17.4858 235.343H15.4858C15.4858 237.907 14.8283 239.848 13.7264 241.133C12.6422 242.396 11.0315 243.138 8.86361 243.138V245.138ZM3.13835 245.138H8.86361V243.138H3.13835V245.138ZM2.13835 223.306V244.138H4.13835V223.306H2.13835ZM8.86361 222.306H3.13835V224.306H8.86361V222.306ZM17.4858 232.101C17.4858 229.213 16.7364 226.757 15.2304 225.007C13.7076 223.238 11.5087 222.306 8.86361 222.306V224.306C11.0126 224.306 12.6247 225.046 13.7146 226.312C14.8212 227.598 15.4858 229.539 15.4858 232.101H17.4858ZM17.4858 235.343V232.101H15.4858V235.343H17.4858ZM43.7443 245.667L41.0541 238.045L39.1681 238.711L41.8583 246.333L43.7443 245.667ZM45.0086 245H42.8013V247H45.0086V245ZM35.3405 221.778L44.0663 246.335L45.9509 245.665L37.2251 221.109L35.3405 221.778ZM33.5581 222.443H36.2828V220.443H33.5581V222.443ZM25.8095 246.334L34.5008 221.777L32.6154 221.11L23.9241 245.666L25.8095 246.334ZM26.9706 245H24.8668V247H26.9706V245ZM28.7178 238.045L26.0276 245.667L27.9136 246.333L30.6038 238.711L28.7178 238.045ZM40.1111 237.378H29.6608V239.378H40.1111V237.378ZM34.9722 222.444H34.8342V224.444H34.9722V222.444ZM40.5029 236.184L35.9158 223.113L34.0286 223.775L38.6157 236.847L40.5029 236.184ZM30.2126 237.515H39.5593V235.515H30.2126V237.515ZM33.8914 223.111L29.2698 236.182L31.1554 236.849L35.777 223.777L33.8914 223.111ZM84.1769 238.711L86.8671 246.333L88.7531 245.667L86.0629 238.045L84.1769 238.711ZM74.6696 239.378H85.1199V237.378H74.6696V239.378ZM72.9224 246.333L75.6126 238.711L73.7266 238.045L71.0364 245.667L72.9224 246.333ZM69.8756 247H71.9794V245H69.8756V247ZM77.6242 221.11L68.9329 245.666L70.8183 246.334L79.5096 221.777L77.6242 221.11ZM81.2916 220.443H78.5669V222.443H81.2916V220.443ZM90.9597 245.665L82.2339 221.109L80.3493 221.778L89.0752 246.335L90.9597 245.665ZM87.8101 247H90.0174V245H87.8101V247ZM79.8085 224.444H79.9465V222.444H79.8085V224.444ZM76.1298 236.849L80.7514 223.777L78.8657 223.111L74.2441 236.182L76.1298 236.849ZM84.5336 235.515H75.1869V237.515H84.5336V235.515ZM79.0029 223.775L83.59 236.847L85.4772 236.184L80.8901 223.113L79.0029 223.775ZM98.9501 246V221.443H96.9501V246H98.9501ZM110.884 245H97.9501V247H110.884V245ZM109.884 244.138V246H111.884V244.138H109.884ZM100.054 245.138H110.884V243.138H100.054V245.138ZM99.0539 221.443V244.138H101.054V221.443H99.0539ZM97.9501 222.443H100.054V220.443H97.9501V222.443ZM144.373 246V223.306H142.373V246H144.373ZM141.269 247H143.373V245H141.269V247ZM140.269 223.306V246H142.269V223.306H140.269ZM133.026 224.306H141.269V222.306H133.026V224.306ZM132.026 221.443V223.306H134.026V221.443H132.026ZM151.616 220.443H133.026V222.443H151.616V220.443ZM152.616 223.306V221.443H150.616V223.306H152.616ZM143.373 224.306H151.616V222.306H143.373V224.306ZM174.896 233.446H161.411V235.446H174.896V233.446ZM175.896 246V234.446H173.896V246H175.896ZM177 245H174.896V247H177V245ZM176 221.443V246H178V221.443H176ZM174.896 222.443H177V220.443H174.896V222.443ZM175.896 232.584V221.443H173.896V232.584H175.896ZM161.411 233.584H174.896V231.584H161.411V233.584ZM160.411 221.443V232.584H162.411V221.443H160.411ZM159.307 222.443H161.411V220.443H159.307V222.443ZM160.307 246V221.443H158.307V246H160.307ZM161.411 245H159.307V247H161.411V245ZM160.411 234.446V246H162.411V234.446H160.411ZM116.471 244.241V246H118.471V244.241H116.471ZM121.058 243.241H117.471V245.241H121.058V243.241ZM120.058 223.202V244.241H122.058V223.202H120.058ZM117.471 224.202H121.058V222.202H117.471V224.202ZM116.471 221.443V223.202H118.471V221.443H116.471ZM126.749 220.443H117.471V222.443H126.749V220.443ZM127.749 223.202V221.443H125.749V223.202H127.749ZM123.162 224.202H126.749V222.202H123.162V224.202ZM124.162 244.241V223.202H122.162V244.241H124.162ZM126.749 243.241H123.162V245.241H126.749V243.241ZM127.749 246V244.241H125.749V246H127.749ZM117.471 247H126.749V245H117.471V247ZM57.494 223.306V246H59.494V223.306H57.494ZM66.737 222.306H58.494V224.306H66.737V222.306ZM65.737 221.443V223.306H67.737V221.443H65.737ZM48.1472 222.443H66.737V220.443H48.1472V222.443ZM49.1472 223.306V221.443H47.1472V223.306H49.1472ZM56.3902 222.306H48.1472V224.306H56.3902V222.306ZM57.3902 246V223.306H55.3902V246H57.3902ZM58.494 245H56.3902V247H58.494V245Z" fill="#0A444F"/>
<defs>
<linearGradient id="paint0_linear" x1="88.8624" y1="6" x2="88.8624" y2="170" gradientUnits="userSpaceOnUse">
<stop stop-color="#FF00C7"/>
<stop offset="1" stop-color="#3800FF"/>
</linearGradient>
<clipPath id="clip0">
<rect x="0.999969" width="176" height="176" fill="white"/>
</clipPath>
</defs>
</svg>
