<svg width="96" height="13" viewBox="0 0 96 13" fill="none" xmlns="http://www.w3.org/2000/svg">
<path d="M5.814 13H0.54V0.94H5.634C7.71 0.94 9.204 1.408 10.116 2.344C11.028 3.28 11.484 4.78 11.484 6.844C11.484 8.896 11.046 10.438 10.17 11.47C9.294 12.49 7.842 13 5.814 13ZM7.272 7.042C7.272 5.962 7.158 5.242 6.93 4.882C6.714 4.522 6.222 4.342 5.454 4.342H4.716V9.598H5.454C6.078 9.598 6.54 9.442 6.84 9.13C7.128 8.818 7.272 8.122 7.272 7.042ZM14.0358 13L16.6998 0.94H23.0178L25.7358 13H21.5238L21.1818 11.614H18.4278L18.1398 13H14.0358ZM19.6518 4.216L18.9678 8.428H20.7498L20.1018 4.216H19.6518ZM27.4643 4.342V0.94H36.4643V4.342H34.1243V13H29.9483V4.342H27.4643ZM38.2444 13L40.9084 0.94H47.2264L49.9444 13H45.7324L45.3904 11.614H42.6364L42.3484 13H38.2444ZM43.8604 4.216L43.1764 8.428H44.9584L44.3104 4.216H43.8604ZM61.1705 13H53.0705V0.94H57.2465V9.598H61.1705V13ZM64.5771 13V0.94H68.7531V13H64.5771ZM72.155 4.342V0.94H81.155V4.342H78.815V13H74.639V4.342H72.155ZM91.101 13V8.788H88.743V13H84.567V0.94H88.743V5.386H91.101V0.94H95.277V13H91.101Z" fill="black"/>
</svg>
