<svg width="196" height="76" viewBox="0 0 196 76" fill="none" xmlns="http://www.w3.org/2000/svg">
<path d="M171 74.5H170C170 75.0523 170.448 75.5 171 75.5V74.5ZM171 48.5V47.5C170.448 47.5 170 47.9477 170 48.5H171ZM179.17 74.5V75.5C179.469 75.5 179.752 75.3666 179.942 75.1363L179.17 74.5ZM183 69.8571L183.771 69.2208C183.581 68.9905 183.299 68.8571 183 68.8571C182.701 68.8571 182.419 68.9905 182.229 69.2208L183 69.8571ZM186.83 74.5L186.058 75.1363C186.248 75.3666 186.531 75.5 186.83 75.5V74.5ZM195 74.5V75.5C195.552 75.5 196 75.0523 196 74.5H195ZM195 48.5L196 48.5C196 48.2348 195.895 47.9804 195.707 47.7929C195.52 47.6054 195.265 47.5 195 47.5V48.5ZM186.83 48.5V47.5C186.531 47.5 186.248 47.6334 186.058 47.8637L186.83 48.5ZM183 53.1429L182.229 53.7792C182.419 54.0095 182.701 54.1429 183 54.1429C183.299 54.1429 183.581 54.0095 183.771 53.7792L183 53.1429ZM179.17 48.5L179.942 47.8637C179.752 47.6334 179.469 47.5 179.17 47.5V48.5ZM172 74.5V48.5H170V74.5H172ZM179.17 73.5H171V75.5H179.17V73.5ZM182.229 69.2208L178.399 73.8637L179.942 75.1363L183.771 70.4935L182.229 69.2208ZM187.601 73.8637L183.771 69.2208L182.229 70.4935L186.058 75.1363L187.601 73.8637ZM195 73.5H186.83V75.5H195V73.5ZM194 48.5L194 74.5H196L196 48.5L194 48.5ZM186.83 49.5H195V47.5H186.83V49.5ZM183.771 53.7792L187.601 49.1363L186.058 47.8637L182.229 52.5065L183.771 53.7792ZM178.399 49.1363L182.229 53.7792L183.771 52.5065L179.942 47.8637L178.399 49.1363ZM171 49.5H179.17V47.5H171V49.5Z" fill="black"/>
<path d="M97 48.5V47.5C96.4477 47.5 96 47.9477 96 48.5H97ZM97 74.5H96C96 75.0523 96.4477 75.5 97 75.5V74.5ZM124 74.5V75.5C124.375 75.5 124.719 75.2901 124.89 74.9564C125.061 74.6227 125.031 74.2212 124.812 73.9166L124 74.5ZM105.324 48.5L106.137 47.9166C105.949 47.6551 105.646 47.5 105.324 47.5V48.5ZM96 48.5V74.5H98V48.5H96ZM97 75.5H124V73.5H97V75.5ZM124.812 73.9166L106.137 47.9166L104.512 49.0834L123.188 75.0834L124.812 73.9166ZM105.324 47.5H97V49.5H105.324V47.5Z" fill="black"/>
<path d="M127 48.5V47.5C126.448 47.5 126 47.9477 126 48.5H127ZM127 74.5H126C126 75.0523 126.448 75.5 127 75.5V74.5ZM138 74.5V75.5C138.552 75.5 139 75.0523 139 74.5H138ZM138 48.5H139C139 47.9477 138.552 47.5 138 47.5V48.5ZM126 48.5V74.5H128V48.5H126ZM127 75.5H138V73.5H127V75.5ZM139 74.5V48.5H137V74.5H139ZM138 47.5H127V49.5H138V47.5Z" fill="black"/>
<path d="M11.894 48.5C21.5288 48.5 24.9959 53.4087 24.9959 61.7662C25.1601 68.5361 20.361 74.3024 12.8064 74.193H1V48.5H11.894Z" stroke="black" stroke-width="2" stroke-linejoin="round"/>
<path d="M25 74.5H52L42.1361 48.5185L35.0318 48.5L25 74.5Z" stroke="black" stroke-width="2" stroke-linejoin="round"/>
<path d="M67 74.5H94L84.1361 48.5185L77.0318 48.5L67 74.5Z" stroke="black" stroke-width="2" stroke-linejoin="round"/>
<path d="M73 48.5L46 48.5L55.8639 74.4815L62.9682 74.5L73 48.5Z" stroke="black" stroke-width="2" stroke-linejoin="round"/>
<path d="M168 48.5L141 48.5L150.864 74.4815L157.968 74.5L168 48.5Z" stroke="black" stroke-width="2" stroke-linejoin="round"/>
<path d="M1 48.5L39 1L155 23L195 48.5" stroke="black" stroke-width="2" stroke-linecap="round" stroke-linejoin="round"/>
</svg>
