<?xml version="1.0" encoding="utf-8"?>
<!-- Generator: Adobe Illustrator 21.1.0, SVG Export Plug-In . SVG Version: 6.00 Build 0)  -->
<svg version="1.1" id="Layer_1" xmlns="http://www.w3.org/2000/svg" xmlns:xlink="http://www.w3.org/1999/xlink" x="0px" y="0px"
	 viewBox="0 0 865.9 306.1" enable-background="new 0 0 865.9 306.1" xml:space="preserve">
<g>
	<path fill="#FFFFFF" d="M153,0c51.1,90,101.5,184,152.6,273.9L153,306.1L0,273.9C50.8,184.7,101.5,90.5,153,0z"/>
</g>
<g>
	<path fill="#FFFFFF" d="M355.6,118.9h22.6c18.3,0,28.8,11.9,28.8,35.6s-10.5,35.6-28.8,35.6h-22.6V118.9z M378.4,184.7
		c14,0,22.1-9.7,22.1-25.5v-9.4c0-15.8-8.2-25.5-22.1-25.5h-16.6v60.4L378.4,184.7L378.4,184.7z"/>
	<path fill="#FFFFFF" d="M476.8,190.1L469,168h-30.3l-7.8,22.1h-6.1l25.2-71.2h7.9l25.3,71.2H476.8z M454.1,124.7h-0.4l-13.4,37.9
		h27.1L454.1,124.7z"/>
	<path fill="#FFFFFF" d="M522.3,124.3v65.8h-6.1v-65.8h-23.9v-5.4h53.9v5.4H522.3z"/>
	<path fill="#FFFFFF" d="M607.3,190.1l-7.8-22.1h-30.3l-7.8,22.1h-6.1l25.2-71.2h7.9l25.3,71.2H607.3z M584.5,124.7h-0.4l-13.4,37.9
		h27.1L584.5,124.7z"/>
	<path fill="#FFFFFF" d="M636.7,190.1v-71.2h6.1v65.8h31.4v5.4H636.7z"/>
	<path fill="#FFFFFF" d="M693.3,190.1V185h10.4v-61h-10.4v-5.1h26.9v5.1h-10.4v61h10.4v5.1H693.3z"/>
	<path fill="#FFFFFF" d="M768.4,124.3v65.8h-6.1v-65.8h-23.9v-5.4h53.9v5.4H768.4z"/>
	<path fill="#FFFFFF" d="M859.8,156.6h-39.1v33.5h-6.1v-71.2h6.1v32.3h39.1v-32.3h6.1v71.2h-6.1V156.6z"/>
</g>
</svg>
