<svg xmlns="http://www.w3.org/2000/svg" width="500" height="500" style="width: 500px; height: 500px;">
  <g>
    <polygon points="243.74262139839078,289.5075336238055 243.74262139839078,435.57774293234047 217.5989404197414,454.5722390019341 198.60444435014784,428.4285580232847" style="fill: rgba(255, 255, 255, 0.447);"></polygon>
  </g>
  <g>
    <polygon points="231.84038001041813,285.6402609675347 209.86364001044058,353.27771186624653 194.90008891810072,358.13966434173517 190.03813644261209,343.1761132493953" style="fill: rgba(255, 255, 255, 0.667);"></polygon>
  </g>
  <g>
    <polygon points="221.7157287525381,278.2842712474619 165.87748101456353,355.1390259048005 144.86097409519948,355.1390259048005 144.86097409519948,334.1225189854365" style="fill: rgba(255, 255, 255, 0.33);"></polygon>
  </g>
  <g>
    <polygon points="214.35973903246528,268.15961998958187 95.9710844490127,354.174012377797 65.18133142798422,344.16981517911825 75.185528626663,313.38006215808974" style="fill: rgba(255, 255, 255, 0.76);"></polygon>
  </g>
  <g>
    <polygon points="210.4924663761945,256.2573786016092 102.09239148976782,291.4786980053313 81.69247730728168,276.6572927840954 96.51388252851757,256.2573786016092" style="fill: rgba(255, 255, 255, 0.59);"></polygon>
  </g>
  <g>
    <polygon points="210.4924663761945,243.74262139839078 151.98188413479107,243.74262139839078 144.37335786735431,233.27038340246085 154.84559586328425,225.66185713502412" style="fill: rgba(255, 255, 255, 0.824);"></polygon>
  </g>
  <g>
    <polygon points="214.35973903246528,231.84038001041813 95.71703893174023,193.29102993343875 87.1886990580629,167.0434987047868 113.43623028671487,158.5151588311095" style="fill: rgba(255, 255, 255, 0.008);"></polygon>
  </g>
  <g>
    <polygon points="221.7157287525381,221.7157287525381 137.3406583921306,160.41365183225744 137.34065839213056,137.3406583921306 160.41365183225741,137.3406583921306" style="fill: rgba(255, 255, 255, 0.26);"></polygon>
  </g>
  <g>
    <polygon points="231.84038001041813,214.35973903246528 212.94374437975267,188.350751392686 215.14158202054566,181.5865026682333 221.90583074499833,183.78434030902628" style="fill: rgba(255, 255, 255, 0.306);"></polygon>
  </g>
  <g>
    <polygon points="243.74262139839075,210.4924663761945 197.39007224214862,67.83398893192148 216.8955855424062,40.986953075936924 243.74262139839072,60.4924663761945" style="fill: rgba(255, 255, 255, 0.07);"></polygon>
  </g>
  <g>
    <polygon points="256.2573786016092,210.4924663761945 256.2573786016092,145.11173403062355 267.959237705423,136.60983573497612 276.46113600107043,148.31169483878995" style="fill: rgba(255, 255, 255, 0.12);"></polygon>
  </g>
  <g>
    <polygon points="268.15961998958187,214.35973903246528 287.6993710987873,154.22256872316171 301.003622050225,149.89975554541422 305.32643522797247,163.20400649685192" style="fill: rgba(255, 255, 255, 0.46);"></polygon>
  </g>
  <g>
    <polygon points="278.2842712474619,221.7157287525381 357.326237238181,112.92379580441488 387.0762041955851,112.92379580441485 387.0762041955851,142.67376276181892" style="fill: rgba(255, 255, 255, 0.035);"></polygon>
  </g>
  <g>
    <polygon points="285.6402609675347,231.84038001041813 357.34282807947193,179.74541563643717 375.99076643233195,185.80449810141843 369.93168396735075,204.45243645427848" style="fill: rgba(255, 255, 255, 0.3);"></polygon>
  </g>
  <g>
    <polygon points="289.5075336238055,243.74262139839075 301.99169803861076,239.68627048901058 304.3411049275719,241.3932145094296 302.6341609071529,243.74262139839075" style="fill: rgba(255, 255, 255, 0.15);"></polygon>
  </g>
  <g>
    <polygon points="289.5075336238055,256.2573786016092 338.22277004573476,256.2573786016092 344.55754132542233,264.9764432612912 335.8384766657403,271.31121454097877" style="fill: rgba(255, 255, 255, 0.733);"></polygon>
  </g>
  <g>
    <polygon points="285.64026096753474,268.15961998958187 402.8118644367019,306.2309817959062 411.2344581325672,332.1530597539869 385.31238017448646,340.5756534498522" style="fill: rgba(255, 255, 255, 0.408);"></polygon>
  </g>
  <g>
    <polygon points="278.2842712474619,278.2842712474619 309.37775012950203,300.87500599890063 309.37775012950203,309.37775012950203 300.87500599890063,309.37775012950203" style="fill: rgba(255, 255, 255, 0.82);"></polygon>
  </g>
  <g>
    <polygon points="268.15961998958187,285.6402609675347 301.7165760388694,331.82744857981976 297.8136198430123,343.8395126101254 285.8015558127067,339.93655641426824" style="fill: rgba(255, 255, 255, 0.6);"></polygon>
  </g>
  <g>
    <polygon points="256.2573786016093,289.5075336238055 260.9507209444058,303.95215608655786 258.9757259731152,306.67050345806376 256.2573786016093,304.6955084867732" style="fill: rgba(255, 255, 255, 0.91);"></polygon>
  </g>
</svg>