<?xml version="1.0" encoding="utf-8"?>
<!-- Generator: Adobe Illustrator 21.1.0, SVG Export Plug-In . SVG Version: 6.00 Build 0)  -->
<svg version="1.1" id="Layer_1" xmlns="http://www.w3.org/2000/svg" xmlns:xlink="http://www.w3.org/1999/xlink" x="0px" y="0px"
	 viewBox="0 0 510.3 245.9" style="enable-background:new 0 0 510.3 245.9;" xml:space="preserve">
<style type="text/css">
	.st0{fill:none;stroke:#FFFFFF;stroke-width:5;stroke-miterlimit:10;}
	.st1{fill:#FFFFFF;}
</style>
<g>
	<path class="st0" d="M255.3,4.5l118.9,178.9l-118.9,59.6l-119.2-59.6L255.3,4.5z"/>
</g>
<g>
	<path class="st1" d="M0,88.2h22.6c18.3,0,28.8,11.9,28.8,35.6s-10.5,35.6-28.8,35.6H0V88.2z M22.8,154c14,0,22.1-9.7,22.1-25.5
		v-9.4c0-15.8-8.2-25.5-22.1-25.5H6.2V154L22.8,154L22.8,154z"/>
	<path class="st1" d="M121.2,159.4l-7.8-22.1H83.1l-7.8,22.1h-6.1l25.2-71.2h7.9l25.3,71.2H121.2z M98.5,94h-0.4l-13.4,37.9h27.1
		L98.5,94z"/>
	<path class="st1" d="M166.7,93.6v65.8h-6.1V93.6h-23.9v-5.4h53.9v5.4H166.7z"/>
	<path class="st1" d="M251.7,159.4l-7.8-22.1h-30.3l-7.8,22.1h-6.1l25.2-71.2h7.9l25.3,71.2H251.7z M228.9,94h-0.4l-13.4,37.9h27.1
		L228.9,94z"/>
	<path class="st1" d="M281.1,159.4V88.2h6.1V154h31.4v5.4H281.1z"/>
	<path class="st1" d="M337.7,159.4v-5.1h10.4v-61h-10.4v-5.1h26.9v5.1h-10.4v61h10.4v5.1H337.7z"/>
	<path class="st1" d="M412.8,93.6v65.8h-6.1V93.6h-23.9v-5.4h53.9v5.4H412.8z"/>
	<path class="st1" d="M504.2,125.9h-39.1v33.5H459V88.2h6.1v32.3h39.1V88.2h6.1v71.2h-6.1V125.9z"/>
</g>
</svg>
