<svg xmlns="http://www.w3.org/2000/svg" width="500" height="500" style="width: 500px; height: 500px;">
  <g>
    <polygon points="425,250 416.43489035165186,304.0779740156158 345.83587219101605,352.0562864373736" style="fill: transparent; fill: rgba(255, 255, 255, 0.937);"></polygon>
  </g>
  <g>
    <polygon points="416.43489035165186,304.0779740156158 391.57797401561584,352.8624191511828 309.6082038501494,376.67620942291825" style="fill: transparent; fill: rgb(255, 255, 255);"></polygon>
  </g>
  <g>
    <polygon points="391.57797401561584,352.8624191511828 352.8624191511828,391.57797401561584 267.54566920165286,388.89618242509823" style="fill: transparent; fill: rgba(255, 255, 255, 0.95);"></polygon>
  </g>
  <g>
    <polygon points="352.8624191511828,391.57797401561584 304.0779740156158,416.43489035165186 223.76564220383287,387.5200293449019" style="fill: transparent; fill: rgba(255, 255, 255, 0.086);"></polygon>
  </g>
  <g>
    <polygon points="304.0779740156158,416.43489035165186 250,425 182.5536169326205,372.68245763404116" style="fill: transparent; fill: rgba(255, 255, 255, 0.408);"></polygon>
  </g>
  <g>
    <polygon points="250,425 195.92202598438422,416.4348903516519 147.94371356262639,345.835872191016" style="fill: transparent; fill: rgba(255, 255, 255, 0.992);"></polygon>
  </g>
  <g>
    <polygon points="195.92202598438422,416.4348903516519 147.1375808488172,391.57797401561584 123.32379057708177,309.6082038501494" style="fill: transparent; fill: rgba(255, 255, 255, 0.384);"></polygon>
  </g>
  <g>
    <polygon points="147.1375808488172,391.57797401561584 108.42202598438422,352.86241915118285 111.10381757490174,267.5456692016528" style="fill: transparent; fill: rgba(255, 255, 255, 0.886);"></polygon>
  </g>
  <g>
    <polygon points="108.42202598438422,352.86241915118285 83.56510964834814,304.07797401561584 112.4799706550981,223.76564220383284" style="fill: transparent; fill: rgba(255, 255, 255, 0.35);"></polygon>
  </g>
  <g>
    <polygon points="83.56510964834814,304.07797401561584 75,250.00000000000003 127.31754236595883,182.5536169326205" style="fill: transparent; fill: rgba(255, 255, 255, 0.875);"></polygon>
  </g>
  <g>
    <polygon points="75,250.00000000000003 83.56510964834814,195.92202598438416 154.164127808984,147.9437135626264" style="fill: transparent; fill: rgba(255, 255, 255, 0.95);"></polygon>
  </g>
  <g>
    <polygon points="83.56510964834814,195.92202598438416 108.42202598438419,147.1375808488172 190.39179614985062,123.32379057708177" style="fill: transparent; fill: rgba(255, 255, 255, 0.094);"></polygon>
  </g>
  <g>
    <polygon points="108.42202598438419,147.1375808488172 147.13758084881718,108.42202598438422 232.45433079834717,111.10381757490177" style="fill: transparent; fill: rgba(255, 255, 255, 0.65);"></polygon>
  </g>
  <g>
    <polygon points="147.13758084881718,108.42202598438422 195.92202598438416,83.56510964834814 276.23435779616716,112.4799706550981" style="fill: transparent; fill: rgba(255, 255, 255, 0.176);"></polygon>
  </g>
  <g>
    <polygon points="195.92202598438416,83.56510964834814 249.99999999999997,75 317.4463830673795,127.31754236595883" style="fill: transparent; fill: rgba(255, 255, 255, 0.25);"></polygon>
  </g>
  <g>
    <polygon points="249.99999999999997,75 304.0779740156158,83.56510964834811 352.0562864373736,154.164127808984" style="fill: transparent; fill: rgba(255, 255, 255, 0.592);"></polygon>
  </g>
  <g>
    <polygon points="304.0779740156158,83.56510964834811 352.86241915118273,108.42202598438416 376.67620942291825,190.39179614985062" style="fill: transparent; fill: rgba(255, 255, 255, 0.945);"></polygon>
  </g>
  <g>
    <polygon points="352.86241915118273,108.42202598438416 391.5779740156158,147.13758084881715 388.89618242509823,232.45433079834714" style="fill: transparent; fill: rgba(255, 255, 255, 0.11);"></polygon>
  </g>
  <g>
    <polygon points="391.5779740156158,147.13758084881715 416.43489035165186,195.92202598438416 387.5200293449019,276.23435779616716" style="fill: transparent; fill: rgba(255, 255, 255, 0.843);"></polygon>
  </g>
  <g>
    <polygon points="416.43489035165186,195.92202598438416 425,250 372.68245763404116,317.4463830673795" style="fill: transparent; fill: rgba(255, 255, 255, 0.086);"></polygon>
  </g>
</svg>