<svg width="200" height="80" viewBox="0 0 200 80" fill="none" xmlns="http://www.w3.org/2000/svg">
<rect width="200" height="80" fill="white"/>
<path d="M48 46V34L59 40L48 46Z" fill="#1D2936" stroke="#1D2936" stroke-linecap="round" stroke-linejoin="round"/>
<path d="M72 46L60 46L66 34L72 46Z" fill="#1D2936" stroke="#1D2936" stroke-linecap="round" stroke-linejoin="round"/>
<path d="M96 46L84 46L90 34L96 46Z" fill="#1D2936" stroke="#1D2936" stroke-linecap="round" stroke-linejoin="round"/>
<path d="M72 34L84 34L78 46L72 34Z" fill="#1D2936" stroke="#1D2936" stroke-linecap="round" stroke-linejoin="round"/>
<path d="M125 34L137 34L131 46L125 34Z" fill="#1D2936" stroke="#1D2936" stroke-linecap="round" stroke-linejoin="round"/>
<path fill-rule="evenodd" clip-rule="evenodd" d="M106 40L100 34V46L112 46L106 40Z" fill="#1D2936"/>
<path d="M100 34L100.354 33.6465C100.211 33.5035 99.9955 33.4607 99.8087 33.5381C99.6218 33.6155 99.5 33.7978 99.5 34H100ZM106 40L105.646 40.3536L105.646 40.3536L106 40ZM100 46H99.5C99.5 46.1326 99.5527 46.2598 99.6464 46.3536C99.7402 46.4473 99.8674 46.5 100 46.5L100 46ZM112 46L112 46.5C112.202 46.5 112.385 46.3782 112.462 46.1913C112.539 46.0045 112.497 45.7894 112.354 45.6464L112 46ZM99.6464 34.3536L105.646 40.3536L106.354 39.6465L100.354 33.6465L99.6464 34.3536ZM100.5 46V34H99.5V46H100.5ZM112 45.5L100 45.5L100 46.5L112 46.5L112 45.5ZM105.646 40.3536L111.646 46.3536L112.354 45.6464L106.354 39.6465L105.646 40.3536Z" fill="#1D2936"/>
<path fill-rule="evenodd" clip-rule="evenodd" d="M146.5 43L152 46V40L152 34L146.5 37L141 34V40V46L146.5 43Z" fill="#1D2936"/>
<path d="M152 46L151.761 46.439C151.915 46.5235 152.103 46.52 152.255 46.43C152.407 46.3399 152.5 46.1765 152.5 46H152ZM146.5 43L146.739 42.5611C146.59 42.4797 146.41 42.4797 146.261 42.5611L146.5 43ZM152 40L152.5 40V40L152 40ZM152 34L152.5 34C152.5 33.8235 152.407 33.6601 152.255 33.5701C152.103 33.48 151.915 33.4766 151.761 33.5611L152 34ZM146.5 37L146.261 37.439C146.41 37.5204 146.59 37.5204 146.739 37.439L146.5 37ZM141 34L141.239 33.5611C141.085 33.4766 140.897 33.48 140.745 33.5701C140.593 33.6601 140.5 33.8235 140.5 34H141ZM141 46H140.5C140.5 46.1765 140.593 46.3399 140.745 46.43C140.897 46.52 141.085 46.5235 141.239 46.439L141 46ZM152.239 45.5611L146.739 42.5611L146.261 43.439L151.761 46.439L152.239 45.5611ZM151.5 40V46H152.5V40H151.5ZM151.5 34L151.5 40L152.5 40L152.5 34L151.5 34ZM146.739 37.439L152.239 34.439L151.761 33.5611L146.261 36.5611L146.739 37.439ZM140.761 34.439L146.261 37.439L146.739 36.5611L141.239 33.5611L140.761 34.439ZM141.5 40V34H140.5V40H141.5ZM141.5 46V40H140.5V46H141.5ZM146.261 42.5611L140.761 45.5611L141.239 46.439L146.739 43.439L146.261 42.5611Z" fill="#1D2936"/>
<path d="M116 34H121V46H116V34Z" fill="#1D2936" stroke="#1D2936" stroke-linecap="round" stroke-linejoin="round"/>
</svg>
