<svg width="200" height="80" viewBox="0 0 200 80" fill="none" xmlns="http://www.w3.org/2000/svg">
<mask id="mask0" mask-type="alpha" maskUnits="userSpaceOnUse" x="0" y="0" width="200" height="80">
<rect width="200" height="80" fill="black"/>
</mask>
<g mask="url(#mask0)">
<path d="M39.5 -7L-20.5 59.5H71.5V93H105.5V20.5L55.5 -7L156.5 -29.5L122 -7V100L182.5 48V-5" stroke="url(#paint0_linear)" stroke-opacity="0.3"/>
</g>
<path d="M50 45.4231V34L60.4712 39.7115L50 45.4231Z" stroke="url(#paint1_linear)" stroke-linecap="round" stroke-linejoin="round"/>
<path d="M72.8462 45.4231L61.4231 45.4231L67.1346 34L72.8462 45.4231Z" stroke="url(#paint2_linear)" stroke-linecap="round" stroke-linejoin="round"/>
<path d="M95.6923 45.4231L84.2692 45.4231L89.9808 34L95.6923 45.4231Z" stroke="url(#paint3_linear)" stroke-linecap="round" stroke-linejoin="round"/>
<path d="M72.8461 34L84.2692 34L78.5577 45.4231L72.8461 34Z" stroke="url(#paint4_linear)" stroke-linecap="round" stroke-linejoin="round"/>
<path d="M123.298 34L134.721 34L129.01 45.4231L123.298 34Z" stroke="url(#paint5_linear)" stroke-linecap="round" stroke-linejoin="round"/>
<path d="M99.5 34L99.8536 33.6465C99.7106 33.5035 99.4955 33.4607 99.3087 33.5381C99.1218 33.6155 99 33.7978 99 34H99.5ZM105.212 39.7115L104.858 40.0651C104.988 40.1955 105.18 40.2435 105.356 40.1901C105.533 40.1367 105.666 39.9904 105.702 39.8096L105.212 39.7115ZM99.5 45.4231H99C99 45.5557 99.0527 45.6829 99.1464 45.7766C99.2402 45.8704 99.3674 45.9231 99.5 45.9231L99.5 45.4231ZM110.923 45.4231L110.923 45.9231C111.125 45.9231 111.308 45.8013 111.385 45.6144C111.462 45.4276 111.42 45.2125 111.277 45.0695L110.923 45.4231ZM105.212 39.7115L105.565 39.358C105.435 39.2276 105.243 39.1796 105.067 39.233C104.89 39.2864 104.757 39.4327 104.721 39.6135L105.212 39.7115ZM99.1464 34.3536L104.858 40.0651L105.565 39.358L99.8536 33.6465L99.1464 34.3536ZM100 45.4231V34H99V45.4231H100ZM110.923 44.9231L99.5 44.9231L99.5 45.9231L110.923 45.9231L110.923 44.9231ZM104.858 40.0651L110.57 45.7766L111.277 45.0695L105.565 39.358L104.858 40.0651ZM105.702 39.8096L105.702 39.8096L104.721 39.6135L104.721 39.6135L105.702 39.8096Z" fill="url(#paint6_linear)"/>
<path d="M149 45.4231L148.761 45.862C148.915 45.9465 149.103 45.9431 149.255 45.853C149.407 45.763 149.5 45.5996 149.5 45.4231H149ZM143.764 42.5673L144.004 42.1284C143.855 42.047 143.674 42.047 143.525 42.1284L143.764 42.5673ZM149 39.7116L149.5 39.7116V39.7116L149 39.7116ZM149 34L149.5 34C149.5 33.8235 149.407 33.6601 149.255 33.5701C149.103 33.48 148.915 33.4766 148.761 33.5611L149 34ZM143.764 36.8558L143.525 37.2947C143.674 37.3761 143.855 37.3761 144.004 37.2947L143.764 36.8558ZM138.529 34L138.768 33.5611C138.613 33.4766 138.425 33.48 138.274 33.5701C138.122 33.6601 138.029 33.8235 138.029 34H138.529ZM138.529 45.4231H138.029C138.029 45.5996 138.122 45.763 138.274 45.853C138.425 45.9431 138.613 45.9465 138.768 45.862L138.529 45.4231ZM149.239 44.9841L144.004 42.1284L143.525 43.0063L148.761 45.862L149.239 44.9841ZM148.5 39.7116V45.4231H149.5V39.7116H148.5ZM148.5 34L148.5 39.7116L149.5 39.7116L149.5 34L148.5 34ZM144.004 37.2947L149.239 34.439L148.761 33.5611L143.525 36.4168L144.004 37.2947ZM138.289 34.439L143.525 37.2947L144.004 36.4168L138.768 33.5611L138.289 34.439ZM139.029 39.7115V34H138.029V39.7115H139.029ZM139.029 45.4231V39.7115H138.029V45.4231H139.029ZM143.525 42.1284L138.289 44.9841L138.768 45.862L144.004 43.0063L143.525 42.1284Z" fill="url(#paint7_linear)"/>
<path d="M114.731 34H119.49V45.4231H114.731V34Z" stroke="url(#paint8_linear)" stroke-linecap="round" stroke-linejoin="round"/>
<defs>
<linearGradient id="paint0_linear" x1="81" y1="-29.5" x2="81" y2="100" gradientUnits="userSpaceOnUse">
<stop stop-color="#0BBBA9"/>
<stop offset="1" stop-color="#6F42C1"/>
</linearGradient>
<linearGradient id="paint1_linear" x1="55.2356" y1="34" x2="55.2356" y2="45.4231" gradientUnits="userSpaceOnUse">
<stop stop-color="#0BBBA9"/>
<stop offset="1" stop-color="#6F42C1"/>
</linearGradient>
<linearGradient id="paint2_linear" x1="61.4231" y1="39.7115" x2="72.8462" y2="39.7115" gradientUnits="userSpaceOnUse">
<stop stop-color="#0BBBA9"/>
<stop offset="1" stop-color="#6F42C1"/>
</linearGradient>
<linearGradient id="paint3_linear" x1="84.2692" y1="39.7115" x2="95.6923" y2="39.7115" gradientUnits="userSpaceOnUse">
<stop stop-color="#0BBBA9"/>
<stop offset="1" stop-color="#6F42C1"/>
</linearGradient>
<linearGradient id="paint4_linear" x1="84.2692" y1="39.7115" x2="72.8461" y2="39.7115" gradientUnits="userSpaceOnUse">
<stop stop-color="#0BBBA9"/>
<stop offset="1" stop-color="#6F42C1"/>
</linearGradient>
<linearGradient id="paint5_linear" x1="134.721" y1="39.7115" x2="123.298" y2="39.7115" gradientUnits="userSpaceOnUse">
<stop stop-color="#0BBBA9"/>
<stop offset="1" stop-color="#6F42C1"/>
</linearGradient>
<linearGradient id="paint6_linear" x1="105.212" y1="34" x2="105.212" y2="45.4231" gradientUnits="userSpaceOnUse">
<stop stop-color="#0BBBA9"/>
<stop offset="1" stop-color="#6F42C1"/>
</linearGradient>
<linearGradient id="paint7_linear" x1="143.764" y1="34" x2="143.764" y2="45.4231" gradientUnits="userSpaceOnUse">
<stop stop-color="#0BBBA9"/>
<stop offset="1" stop-color="#6F42C1"/>
</linearGradient>
<linearGradient id="paint8_linear" x1="117.111" y1="34" x2="117.111" y2="45.4231" gradientUnits="userSpaceOnUse">
<stop stop-color="#0BBBA9"/>
<stop offset="1" stop-color="#6F42C1"/>
</linearGradient>
</defs>
</svg>
