<?xml version="1.0" encoding="utf-8"?>
<!-- Generator: Adobe Illustrator 17.0.0, SVG Export Plug-In . SVG Version: 6.00 Build 0)  -->
<!DOCTYPE svg PUBLIC "-//W3C//DTD SVG 1.1//EN" "http://www.w3.org/Graphics/SVG/1.1/DTD/svg11.dtd">
<svg version="1.1" id="Layer_1" xmlns="http://www.w3.org/2000/svg" xmlns:xlink="http://www.w3.org/1999/xlink" x="0px" y="0px"
	 width="219.798px" height="119.927px" viewBox="-21.217 1646.3 219.798 119.927"
	 enable-background="new -21.217 1646.3 219.798 119.927" xml:space="preserve">
<g>
	<g>
		
			<line fill="none" stroke="#000000" stroke-width="6.9869" stroke-miterlimit="10" x1="33.925" y1="1706.267" x2="34.179" y2="1737.105"/>
	</g>
	<g>
		
			<line fill="none" stroke="#000000" stroke-width="6.9869" stroke-miterlimit="10" x1="4.098" y1="1675.427" x2="34.179" y2="1705.508"/>
	</g>
	
		<rect x="2.579" y="1673.911" fill="none" stroke="#000000" stroke-width="6.9869" stroke-miterlimit="10" width="63.196" height="63.196"/>
	<g>
		
			<line fill="none" stroke="#000000" stroke-width="6.9869" stroke-miterlimit="10" x1="64.765" y1="1674.922" x2="34.179" y2="1705.508"/>
	</g>
	<g>
		
			<line fill="none" stroke="#000000" stroke-width="6.9869" stroke-miterlimit="10" x1="34.43" y1="1705.256" x2="3.844" y2="1735.843"/>
	</g>
	<g>
		<path stroke="#000000" stroke-width="2.329" stroke-miterlimit="10" d="M91.993,1736.932c-0.743,0-1.369-0.235-1.875-0.706
			c-0.508-0.471-0.762-1.151-0.762-2.038v-5.517c0-0.797-0.249-1.4-0.748-1.807c-0.498-0.408-1.127-0.612-1.889-0.612v-3.072
			c0.762,0,1.39-0.205,1.889-0.612c0.498-0.408,0.748-1.011,0.748-1.807v-5.492c0-0.887,0.254-1.567,0.762-2.038
			c0.508-0.471,1.132-0.706,1.875-0.706h2.962v2.827H93.08v5.844c0,0.435-0.077,0.848-0.231,1.237
			c-0.154,0.389-0.359,0.738-0.613,1.046c-0.254,0.307-0.552,0.566-0.897,0.776c-0.345,0.207-0.706,0.349-1.088,0.422v0.109
			c0.38,0.072,0.743,0.214,1.088,0.422c0.345,0.207,0.643,0.466,0.897,0.776c0.254,0.307,0.456,0.657,0.613,1.046
			c0.154,0.389,0.231,0.801,0.231,1.237v5.843h1.875v2.827h-2.962V1736.932z"/>
		<path stroke="#000000" stroke-width="2.329" stroke-miterlimit="10" d="M107.65,1733.183l-4.674-14.27h3.969l1.768,5.762
			l1.332,5.163h0.217l1.332-5.163l1.712-5.762h3.806l-4.674,14.27H107.65z"/>
		<path stroke="#000000" stroke-width="2.329" stroke-miterlimit="10" d="M134.368,1718.911h3.752l-5.489,16.473
			c-0.363,1.104-0.873,1.921-1.535,2.446c-0.661,0.526-1.609,0.787-2.841,0.787h-2.501v-3.125h2.69l0.489-1.577l-5-15.003h3.997
			l2.094,6.658l1.032,4.132h0.163l1.06-4.132L134.368,1718.911z"/>
		<path stroke="#000000" stroke-width="2.329" stroke-miterlimit="10" d="M145.757,1733.183v-3.179l7.094-7.965h-6.849v-3.126
			h11.524v3.153l-7.122,7.991h7.311v3.126H145.757z"/>
		<path stroke="#000000" stroke-width="2.329" stroke-miterlimit="10" d="M169.512,1712.525c0.743,0,1.367,0.235,1.875,0.706
			c0.508,0.47,0.762,1.151,0.762,2.038v5.492c0,0.799,0.249,1.4,0.748,1.807c0.498,0.408,1.127,0.612,1.889,0.612v3.072
			c-0.762,0-1.39,0.205-1.889,0.612c-0.498,0.408-0.748,1.011-0.748,1.807v5.517c0,0.887-0.254,1.567-0.762,2.038
			c-0.508,0.47-1.132,0.706-1.875,0.706h-2.962v-2.827h1.875v-5.871c0-0.436,0.077-0.848,0.231-1.237s0.359-0.738,0.613-1.046
			c0.254-0.307,0.552-0.566,0.897-0.776c0.345-0.207,0.706-0.349,1.088-0.422v-0.109c-0.38-0.072-0.743-0.212-1.088-0.422
			c-0.345-0.207-0.643-0.466-0.897-0.776c-0.254-0.307-0.459-0.657-0.613-1.046s-0.231-0.801-0.231-1.237v-5.818h-1.875v-2.827
			h2.962V1712.525z"/>
	</g>
</g>
</svg>
