<svg width="216" height="77" viewBox="0 0 216 77" fill="none" xmlns="http://www.w3.org/2000/svg">
<path d="M191 75H190C190 75.5523 190.448 76 191 76V75ZM191 49V48C190.448 48 190 48.4477 190 49H191ZM199.17 75V76C199.469 76 199.752 75.8666 199.942 75.6363L199.17 75ZM203 70.3571L203.771 69.7208C203.581 69.4905 203.299 69.3571 203 69.3571C202.701 69.3571 202.419 69.4905 202.229 69.7208L203 70.3571ZM206.83 75L206.058 75.6363C206.248 75.8666 206.531 76 206.83 76V75ZM215 75V76C215.552 76 216 75.5523 216 75L215 75ZM215 49L216 49C216 48.7348 215.895 48.4804 215.707 48.2929C215.52 48.1054 215.265 48 215 48V49ZM206.83 49V48C206.531 48 206.248 48.1334 206.058 48.3637L206.83 49ZM203 53.6429L202.229 54.2792C202.419 54.5095 202.701 54.6429 203 54.6429C203.299 54.6429 203.581 54.5095 203.771 54.2792L203 53.6429ZM199.17 49L199.942 48.3637C199.752 48.1334 199.469 48 199.17 48V49ZM192 75V49H190V75H192ZM199.17 74H191V76H199.17V74ZM202.229 69.7208L198.399 74.3637L199.942 75.6363L203.771 70.9935L202.229 69.7208ZM207.601 74.3637L203.771 69.7208L202.229 70.9935L206.058 75.6363L207.601 74.3637ZM215 74H206.83V76H215V74ZM214 49L214 75L216 75L216 49L214 49ZM206.83 50H215V48H206.83V50ZM203.771 54.2792L207.601 49.6363L206.058 48.3637L202.229 53.0065L203.771 54.2792ZM198.399 49.6363L202.229 54.2792L203.771 53.0065L199.942 48.3637L198.399 49.6363ZM191 50H199.17V48H191V50Z" fill="#B1B1B1"/>
<path d="M117 75H116C116 75.5523 116.448 76 117 76V75ZM117 49V48C116.448 48 116 48.4477 116 49H117ZM125.324 49L126.137 48.4166C125.949 48.1551 125.646 48 125.324 48V49ZM144 75V76C144.375 76 144.719 75.7901 144.89 75.4564C145.061 75.1227 145.031 74.7212 144.812 74.4166L144 75ZM118 75V49H116V75H118ZM117 50H125.324V48H117V50ZM124.512 49.5834L143.188 75.5834L144.812 74.4166L126.137 48.4166L124.512 49.5834ZM144 74H117V76H144V74Z" fill="#B1B1B1"/>
<path d="M147 75H146C146 75.5523 146.448 76 147 76V75ZM147 49V48C146.448 48 146 48.4477 146 49H147ZM158 49H159C159 48.4477 158.552 48 158 48V49ZM158 75V76C158.552 76 159 75.5523 159 75H158ZM148 75V49H146V75H148ZM147 50H158V48H147V50ZM157 49V75H159V49H157ZM158 74H147V76H158V74Z" fill="#B1B1B1"/>
<path d="M31.894 49C41.5288 49 44.9959 53.9087 44.9959 62.2662C45.1601 69.0361 40.361 74.8024 32.8064 74.693H21V49H31.894Z" stroke="#B1B1B1" stroke-width="2" stroke-linejoin="round"/>
<path d="M45 75H72L62.1361 49.0185L55.0318 49L45 75Z" stroke="#B1B1B1" stroke-width="2" stroke-linejoin="round"/>
<path d="M87 75H114L104.136 49.0185L97.0318 49L87 75Z" stroke="#B1B1B1" stroke-width="2" stroke-linejoin="round"/>
<path d="M93 49L66 49L75.8639 74.9815L82.9682 75L93 49Z" stroke="#B1B1B1" stroke-width="2" stroke-linejoin="round"/>
<path d="M188 49L161 49L170.864 74.9815L177.968 75L188 49Z" stroke="#B1B1B1" stroke-width="2" stroke-linejoin="round"/>
<path d="M1 76L13.5 34.5L50 1.5L91.5 6.5L130 25.5L215.5 34.5" stroke="#B1B1B1" stroke-width="2"/>
</svg>
