<svg width="163" height="281" viewBox="0 0 163 281" fill="none" xmlns="http://www.w3.org/2000/svg">
<path d="M160 225.5H4L21 113.5L31.5 108L41 3L118.5 39L129 144.5L140.5 152.5L160 225.5Z" fill="black" stroke="white" stroke-width="5" stroke-linejoin="round"/>
<path d="M11.69 279H2.89999V258.9H11.39C14.85 258.9 17.34 259.68 18.86 261.24C20.38 262.8 21.14 265.3 21.14 268.74C21.14 272.16 20.41 274.73 18.95 276.45C17.49 278.15 15.07 279 11.69 279ZM14.12 269.07C14.12 267.27 13.93 266.07 13.55 265.47C13.19 264.87 12.37 264.57 11.09 264.57H9.85999V273.33H11.09C12.13 273.33 12.9 273.07 13.4 272.55C13.88 272.03 14.12 270.87 14.12 269.07Z" fill="black"/>
<path d="M25.393 279L29.833 258.9H40.363L44.893 279H37.873L37.303 276.69H32.713L32.233 279H25.393ZM34.753 264.36L33.613 271.38H36.583L35.503 264.36H34.753Z" fill="black"/>
<path d="M47.7739 264.57V258.9H62.7739V264.57H58.8739V279H51.9139V264.57H47.7739Z" fill="black"/>
<path d="M65.7406 279L70.1806 258.9H80.7106L85.2406 279H78.2206L77.6506 276.69H73.0606L72.5806 279H65.7406ZM75.1006 264.36L73.9606 271.38H76.9306L75.8506 264.36H75.1006Z" fill="black"/>
<path d="M103.951 279H90.4508V258.9H97.4108V273.33H103.951V279Z" fill="black"/>
<path d="M109.629 279V258.9H116.589V279H109.629Z" fill="black"/>
<path d="M122.258 264.57V258.9H137.258V264.57H133.358V279H126.398V264.57H122.258Z" fill="black"/>
<path d="M153.835 279V271.98H149.905V279H142.945V258.9H149.905V266.31H153.835V258.9H160.795V279H153.835Z" fill="black"/>
<path fill-rule="evenodd" clip-rule="evenodd" d="M0.899994 281V256.9H11.39C15.0818 256.9 18.225 257.722 20.2925 259.844C22.3386 261.944 23.14 265.07 23.14 268.74C23.14 272.399 22.3655 275.517 20.4747 277.744L20.4673 277.753C18.468 280.081 15.3537 281 11.69 281H0.899994ZM9.85999 264.57H11.09C11.3684 264.57 11.6251 264.584 11.86 264.613C12.705 264.715 13.2683 265.001 13.55 265.47C13.93 266.07 14.12 267.27 14.12 269.07C14.12 270.87 13.88 272.03 13.4 272.55C13.0325 272.932 12.5192 273.174 11.86 273.275C11.6223 273.312 11.3656 273.33 11.09 273.33H9.85999V264.57ZM11.86 271.221V266.639C11.8729 266.642 11.885 266.645 11.8964 266.648C11.9249 266.741 11.9645 266.896 12.0021 267.133C12.075 267.593 12.12 268.23 12.12 269.07C12.12 269.896 12.0636 270.488 11.9815 270.885C11.9484 271.045 11.9165 271.146 11.8953 271.205C11.8851 271.21 11.8734 271.215 11.86 271.221ZM22.903 281L28.2265 256.9H41.9624L47.3939 281H36.3065L35.7365 278.69H34.3401L33.8601 281H22.903ZM32.713 276.69H37.303L37.873 279H44.893L40.363 258.9H29.833L25.393 279H32.233L32.713 276.69ZM33.613 271.38H36.583L35.503 264.36H34.753L33.613 271.38ZM45.7739 266.57V256.9H64.7739V266.57H60.8739V281H49.9139V266.57H45.7739ZM51.9139 264.57V279H58.8739V264.57H62.7739V258.9H47.7739V264.57H51.9139ZM63.2506 281L68.5742 256.9H82.31L87.7415 281H76.6541L76.0841 278.69H74.6878L74.2078 281H63.2506ZM73.0606 276.69H77.6506L78.2206 279H85.2406L80.7106 258.9H70.1806L65.7406 279H72.5806L73.0606 276.69ZM73.9606 271.38H76.9306L75.8506 264.36H75.1006L73.9606 271.38ZM105.951 281H88.4508V256.9H99.4108V271.33H105.951V281ZM97.4108 273.33V258.9H90.4508V279H103.951V273.33H97.4108ZM107.629 281V256.9H118.589V281H107.629ZM120.258 266.57V256.9H139.258V266.57H135.358V281H124.398V266.57H120.258ZM126.398 264.57V279H133.358V264.57H137.258V258.9H122.258V264.57H126.398ZM140.945 281V256.9H162.795V281H140.945ZM153.835 266.31H149.905V258.9H142.945V279H149.905V271.98H153.835V279H160.795V258.9H153.835V266.31ZM11.69 279C15.07 279 17.49 278.15 18.95 276.45C20.41 274.73 21.14 272.16 21.14 268.74C21.14 265.3 20.38 262.8 18.86 261.24C17.34 259.68 14.85 258.9 11.39 258.9H2.89999V279H11.69ZM109.629 279H116.589V258.9H109.629V279Z" fill="white"/>
</svg>
