<?xml version="1.0" encoding="utf-8"?>
<!-- Generator: Adobe Illustrator 21.1.0, SVG Export Plug-In . SVG Version: 6.00 Build 0)  -->
<svg version="1.1" id="Layer_1" xmlns="http://www.w3.org/2000/svg" xmlns:xlink="http://www.w3.org/1999/xlink" x="0px" y="0px"
	 viewBox="0 0 856.8 306.1" enable-background="new 0 0 856.8 306.1" xml:space="preserve">
<g>
	<path d="M153,0c51.1,90,101.5,184,152.6,273.9L153,306.1L0,273.9C50.8,184.7,101.5,90.5,153,0z"/>
</g>
<g>
	<path d="M322.4,118.9h22.6c18.3,0,28.8,11.9,28.8,35.6c0,23.7-10.5,35.6-28.8,35.6h-22.6V118.9z M345.2,184.7
		c14,0,22.1-9.7,22.1-25.5v-9.4c0-15.8-8.2-25.5-22.1-25.5h-16.6v60.4H345.2z"/>
	<path d="M443.6,190.1l-7.8-22.1h-30.3l-7.8,22.1h-6.1l25.2-71.2h7.9l25.3,71.2H443.6z M420.9,124.7h-0.4l-13.4,37.9h27.1
		L420.9,124.7z"/>
	<path d="M489.1,124.3v65.8H483v-65.8h-23.9v-5.4H513v5.4H489.1z"/>
	<path d="M574.1,190.1l-7.8-22.1H536l-7.8,22.1h-6.1l25.2-71.2h7.9l25.3,71.2H574.1z M551.3,124.7h-0.4l-13.4,37.9h27.1L551.3,124.7
		z"/>
	<path d="M603.5,190.1v-71.2h6.1v65.8H641v5.4H603.5z"/>
	<path d="M660.1,190.1V185h10.4v-61h-10.4v-5.1H687v5.1h-10.4v61H687v5.1H660.1z"/>
	<path d="M735.2,124.3v65.8h-6.1v-65.8h-23.9v-5.4h53.9v5.4H735.2z"/>
	<path d="M826.6,156.6h-39.1v33.5h-6.1v-71.2h6.1v32.3h39.1v-32.3h6.1v71.2h-6.1V156.6z"/>
</g>
</svg>
